<?xml version="1.0" encoding="utf-8"?>
<!-- Generator: Adobe Illustrator 21.0.0, SVG Export Plug-In . SVG Version: 6.00 Build 0)  -->
<svg version="1.1" id="Livello_1" xmlns="http://www.w3.org/2000/svg" xmlns:xlink="http://www.w3.org/1999/xlink" x="0px" y="0px"
	 viewBox="0 0 673 1032.4" style="enable-background:new 0 0 673 1032.4;" xml:space="preserve">
<style type="text/css">
	.st0{fill:#002D5C;}
	.st1{fill:#F7A800;}
	.st2{fill:#00AE8D;}
	.st3{fill:#FFFFFF;}
</style>
<title>Rugbeat_Templates IG</title>
<path class="st0" d="M480.3,642.4l4.3-52.5l-11.1-50l-6,24.1l-1.2-45.1l-11.8-40.5l-9.6,24l-11-42.3l-13.6-29.3l-8,18.7l-24.5-40.6
	l-29.3-4.1l-7.9-8.8H291l-7.9,8.8l-29.3,4.1l-24.5,40.6l-8-18.7l-13.6,29.3l-11,42.3l-9.6-24l-11.8,40.5l-1.2,45.1l-6-24.1l-11.1,50
	l4.3,52.5l-16.1-8.7l7.1,44.6l17.7,45.8l5.9,38l34.6,26.7c3.1,2.6,6.3,5.1,9.6,7.4l0.1,0.1l0,0c27.2,19,61.9,27,99.8,27.2l0,0
	c0.2,0,0.5,0,0.7,0s0.5,0,0.7,0l0,0c37.8-0.2,72.5-8.3,99.8-27.2l0,0l0.1-0.1c3.3-2.3,6.5-4.8,9.6-7.4l34.6-26.7l5.9-38l17.7-45.8
	l7.1-44.6L480.3,642.4z"/>
<polygon class="st1" points="172.1,581.1 206.7,650.7 172.7,646.2 169.9,602.6 "/>
<polygon class="st1" points="248.8,550 266.1,499.6 295.3,550.3 271.1,581.1 "/>
<polygon class="st1" points="453.2,514.9 455.9,530.3 455.9,553.8 446.8,533.9 "/>
<polygon class="st1" points="394.5,548 377.9,499.6 349.8,548.3 373.1,577.9 "/>
<polygon class="st1" points="398.2,631.5 384.3,604.1 365.7,628.4 382.4,621.5 "/>
<polygon class="st1" points="323.2,523.1 311.3,539.1 287.9,500.1 323.6,447.7 358.5,496.8 334,536.7 "/>
<polygon class="st1" points="290.6,420.7 264.3,436.9 267.5,420.8 245.6,453 260.5,479.7 268.1,469.5 275.7,478.4 298.5,445.4 "/>
<polygon class="st1" points="354.8,420.7 381.2,436.9 378,420.8 399.9,453 385,479.7 377.4,469.5 369.8,478.4 347,445.4 "/>
<polygon class="st1" points="407.4,525.9 422,507.2 431.7,521.8 424.2,478.6 417.1,467.9 400.8,496.9 "/>
<polygon class="st1" points="193,580.1 218.1,537.9 254.4,598.6 230.8,607 217.7,588.8 204.9,600.5 "/>
<polygon class="st1" points="235.4,529.4 220.2,505.4 209.5,521.4 217.7,473.9 225.6,462.1 243.5,494 "/>
<polygon class="st1" points="191.1,513.5 188.3,529.5 188.3,553.8 197.7,533.2 "/>
<polygon class="st0" points="245.5,394.7 209.5,340.4 172.7,331.1 74.4,417.6 111.1,258.9 121.2,258.9 119.9,248.2 140,256.4 
	140,248.2 239.6,252.1 262.1,253.9 226.3,203.6 224.9,139.4 301.6,187.7 327.1,123.1 391.9,73.5 392.1,211.5 385.8,271.9 
	473.7,268.5 467.5,278.4 479.5,277 473.7,287.8 488.9,283.3 531.7,348.1 537.6,417.6 473.7,362.8 430.4,346.1 375.1,394.7 "/>
<polygon class="st2" points="271.5,312.3 267.3,271.2 152.6,262 162.8,278.8 133.8,265.2 142.2,278.8 121.5,267.7 93.1,384.8 
	158.7,300.1 148.7,282 166.2,290.5 231.7,292.4 "/>
<polygon class="st2" points="301.8,368.3 287.1,265.4 299.4,256.2 282.6,258.9 237.6,200.3 237.6,180.5 246.4,180.5 234.1,170.8 
	234.1,159.8 296.1,200.3 293.8,219.3 299.4,208.4 299.4,225.8 306,208.4 342.7,263.2 353.9,302 353.9,368.3 338.7,312 333.8,347.8 
	321,284.8 321,351.4 305.9,315.2 "/>
<polygon class="st2" points="315.5,187.6 333.9,135.9 342,141.1 333.9,130.7 347.9,135.9 340.1,124.9 380.8,95.2 380.8,177.9 
	367.3,159.8 380.8,192.2 367.9,174.1 374.8,200.3 362.1,188.3 374.8,213.5 363.5,291.3 348.2,238 "/>
<polygon class="st2" points="370.5,340.4 374.8,311.1 381.9,284.8 453.3,284.8 444.6,293.5 462.7,287 454.1,296.9 475.8,296.9 
	517.9,346.5 507.6,355.1 522.4,354 526.5,396.1 502.9,358 445.4,317 452.3,306.3 437.6,316.7 400.7,311.1 "/>
<path class="st0" d="M575.6,730.2l-29,2.4l-5.9-63.9l16.4-2.2l-11-37.1l3.3-27l-58-8.2l-5.7-5.1l-37.2-1l-3.2-12.8l-50.9,14
	l-55.7-3.3l-38-22l-29.9,42.5l-19.9,5.1l2.8-8.6L86.2,642.5l21.3,140l8.2,11l20.8,147l33.1-37.1l-1.3,15.6l3.1,8l-9.4,82.1
	l82.2-44.8l4,3l42.9-26.9l217.5-65.5l17.1,6.8l9.8-57l3.6-6.1l2.9-18.1l24.6-3.9l-2.5-22.7L575.6,730.2z"/>
<path class="st3" d="M274.3,631.3L234,749.8l64.1,38.9l-19.5,9.4l2.2,24.1l-52.2-15l-9.5,3.1l-32.2-8.9l-1.4,64.5l-12.8-9.9
	l-17.1,19.2l-13.7-96.4l-8-10.7L117.5,661l98.3-23.2l-3,9.1L274.3,631.3z M219.8,688.2l-45.7,14.7l3.8,45.2l3.1,3.6l14.9-9.8
	l16.2-44.7l5.8-2.1L219.8,688.2z"/>
<path class="st3" d="M424.2,608l-9.4,42.1l-3.6,7.6l-27,100l-36.7,3.3l-5.1-3.6l-67.5,5.1l-0.6-14.6l-13-5l27.1-73.4l-0.8-9.3
	l29.8-68.3l20.1,13.4l17,0.4l-51.4,112.9l37.6,7.4l22.5-0.8l3.3-25l-2.2-10.8l18.8-76.6l14.5,5.5L424.2,608z"/>
<path class="st3" d="M534.9,643.1l-65.7,8.7l-25.6,60.8l13.5,9.1l20.8-2.2l16.8-3.7l1.2-19.9l-25.3,2.7l6.9-13.5l-9.7-10.7l55.4-8
	l9.6,31.5l-5.7,4.1l2.8,28.7l-14.8,3.8l-15.2,6.9l-65.8,28.5l-18.5-14.6l-0.2-8.7L409,736l21.4-65.6l-1-9l13.2-50.1l42.9,1.1
	l5.3,4.7l40,2l-6.1,13.4L534.9,643.1z"/>
<path class="st3" d="M293.5,836.5l-23.9,37.1l25.3-1.9l-3,40.6l-38.8,24.3l-3.1-2.3l-53.3,29l4.6-40l-3.2-8.3l3.8-45.1l-2.5-8.4
	l3.4-29.1l45.8-3l-2.1,4.9L293.5,836.5z M264.4,898.5l-7.6-1.5l-3.7-2.2l-26.2,5l-1.7,21.8l6.7-3l27.1-14.7L264.4,898.5z
	 M257.1,855.5l-2-0.1l-6.4,3.3l-19.2,0.3l-3.3,18.8l19.1-2.4L257.1,855.5z"/>
<path class="st3" d="M399,798.4l-63.3,14.7l-2.1,8.4l43.5-4l-3.6,5.5l24.6,1.5l-10.2,13.4l1.4,7.2l-29.9,4.7l-4.1,3.8l-24.9,4.4
	l-1.7,14.5l30.2-4l1,4l30.3-7.5l-5.5,13.3l7.1,9.3l-53.7,14.8l-3.1,3.2l-29,6.3l5-63.9l-3-6.7l3.6-63.4l38.5,0.1l-1.4,4.5l60.8-1.2
	l-23.7,9.6L399,798.4z"/>
<path class="st3" d="M477.6,797l-0.5,26.1l-3.1,5.1l-5.2,44.1l-8.8-0.8l-6.9,10.2l0.2-29.6l-21.7,5.7l-1.8,3.4l-8.6,1.2
	c-1.1,3.9-3.6,12-7.3,24.3l-8.1-4.6l-7.3,7.4l10.6-44.9l-0.9-6.8l6.2-43.3l44.2-0.6l-2.5,4.1L477.6,797z M454,816l-18.9,1.5
	l-5.7,20.7l18.1-3.8l-1.4,3.8l5.5-1.5L454,816z"/>
<path class="st3" d="M549.4,756.7l-6.4,10.4l0.9,7.7l-19,3l-5,31.2l-3.5,6l-5.4,31.3l-5.8-2.3l-9,11.5l4.4-48.7l-1.7-8.5l1.4-16.3
	l-51.3,3l26.4-12.4l-17.7-1.4l61.2-14.8l1.3,2.8L549.4,756.7z"/>
<polygon class="st0" points="245.5,394.7 243.5,417.6 236.6,437.8 267.3,413.4 330.9,416.3 380.8,416.3 400.8,430.3 391.8,396.1 
	395.8,376.5 "/>
<polygon class="st1" points="298.5,581.1 323.2,548.9 342.8,577.9 323.2,562.8 "/>
<polygon class="st1" points="450.5,586.5 427,539.1 397.7,582.1 425.4,560.2 "/>
<polygon class="st1" points="441.3,586.5 427.1,539.1 409.5,582.1 425.4,562.8 "/>
<path class="st0" d="M349.8,548.3l11.1-6.7l-1.1,19.6l12.3-19.5L373,578l11.3-34.3v19.2l8.3-19.9c0,0,7.3,1.6,8.1,3
	s-13.3,24.7-13.3,24.7l-11.8,15.9l-19.7-5.4c0,0-9.2-23.1-9-23.4S349.8,548.3,349.8,548.3z"/>
<polygon class="st0" points="287.9,500.1 302.1,489.8 296,513.5 309.3,495.8 306.1,530.4 320.6,499.6 323.2,523.1 330,499.6 
	339.7,525.9 339.7,498 349.8,510.9 347,490.6 358.5,496.8 357.2,520.1 335.2,542.1 310.7,544.3 281.9,507.3 "/>
<path class="st0" d="M295.2,548.5l-11.3-6.9l1.1,19.9l-12.4-19.8l-0.9,36.8l-11.5-34.7v19.4l-9-20.1c0,0-6.8,1.6-7.6,3
	s13.4,25,13.4,25l11.9,16.1l20-5.5c0,0,9.3-23.4,9.1-23.7S295.2,548.5,295.2,548.5z"/>
<polygon class="st0" points="193,580.1 207.7,570.1 198.2,589 215.8,570.1 209.5,596.3 221.9,572.5 225.5,599.7 228.3,581.1 
	236.6,599.7 232.8,577.9 254.4,598.6 251.8,608.8 211.7,617.8 191.3,591.9 "/>
<polygon class="st0" points="245.6,453 256.2,447.7 253.3,466.7 263.4,450.2 260.5,479.7 268.8,453.4 275.7,478.4 278.7,453.4 
	281.9,469.4 278,489.8 250.7,486.7 "/>
<polygon class="st0" points="400.1,453 389.4,447.7 392.4,466.7 382.3,450.2 385.2,479.7 376.8,453.4 370,478.4 367,453.4 
	363.8,469.4 367.7,489.8 395,486.7 "/>
<polygon class="st0" points="227.6,517.1 229.8,491.5 243.5,494 240.2,529.4 233.9,540.3 "/>
<polygon class="st0" points="280.8,426.7 274.6,435.9 292.6,426.7 312.3,400.5 "/>
<polygon class="st0" points="354.8,420.7 363.8,435.9 336.8,418.2 "/>
<polygon class="st0" points="191.3,617.8 179,604.1 180,620.4 173.6,609.7 171.9,623.8 185.1,623.8 "/>
<polygon class="st1" points="312.4,580.5 323.7,548.3 332.6,577.3 323.7,567.8 "/>
</svg>
