<svg id="Livello_1" data-name="Livello 1" xmlns="http://www.w3.org/2000/svg" viewBox="0 0 1108.57424 1032.44668"><defs><style>.cls-1{fill:#002d5c;}.cls-2{fill:#d60057;}.cls-3{fill:#f7a800;}.cls-4{fill:#00ae8d;}.cls-5{fill:#fff;}</style></defs><title>Rugbeat_Templates IG</title><path class="cls-1" d="M635.09076,352.90639q.30141-1.36473,3.33229-4.16675,3.02773-2.80063,7.34554-6.059,4.31711-3.25275,9.16379-6.285a90.83741,90.83741,0,0,1,8.63353-4.84772,24.77633,24.77633,0,0,1,4.54422-.53026q3.63475-.22606,8.17931-.22606,4.84563,0,9.4666.22606,4.61853.23025,6.73993.53026a22.67517,22.67517,0,0,1,.37886,4.24211q.07431,3.03087.22676,7.5716a4.27535,4.27535,0,0,1-1.21123,2.65132,4.5634,4.5634,0,0,0-1.21193,2.95552,4.01164,4.01164,0,0,0,1.28728,2.72388,4.84713,4.84713,0,0,1,1.43939,2.72667q.14861,9.99686.07535,22.11478-.07745,12.11931-.22676,24.08233-.1528,11.9686-.37886,22.419-.22711,10.449-.68167,16.81214c-.10187.30141-.65795.60562-1.66614.907a20.77784,20.77784,0,0,1-3.86255.68376q-2.34956.22606-5.14984.37677-2.80377.15071-5.8315.1535-3.03087,0-5.90686-.1535-2.87912-.15071-5.22589-.37677a19.06541,19.06541,0,0,1-3.7865-.68376,3.494,3.494,0,0,1-1.7415-.907q-.3056-6.66457-.30351-14.01012,0-7.34694.1521-15.07065a1.67919,1.67919,0,0,1,.98448-1.36473,21.37718,21.37718,0,0,1,2.12036-1.13588,20.63182,20.63182,0,0,0,2.12036-1.13588,1.67627,1.67627,0,0,0,.98448-1.36194c0-.3042-.32862-.65585-.98448-1.06053a21.18789,21.18789,0,0,0-2.12036-1.13588,20.81121,20.81121,0,0,1-2.12036-1.13588c-.65795-.40467-.98448-.75911-.98448-1.06053q.14861-8.48142.22676-17.1917.07431-8.70748.07605-17.4959-.75981.607-2.34781,1.895-1.59079,1.28938-3.48369,2.65132a40.33106,40.33106,0,0,1-3.6351,2.34711,6.33054,6.33054,0,0,1-2.95343.98517q-1.66928,0-3.7872-2.88017a41.26671,41.26671,0,0,1-3.9379-6.66457,59.17021,59.17021,0,0,1-2.95343-7.27019A13.83909,13.83909,0,0,1,635.09076,352.90639Z"/><path class="cls-1" d="M745.05415,324.73265a53.336,53.336,0,0,1,15.60091,2.0457,26.274,26.274,0,0,1,11.3595,6.89063,33.1268,33.1268,0,0,1,7.34624,12.87424,85.519,85.519,0,0,1,3.55974,19.99372q0,.45631-1.36334,1.28659-1.36368.83726-3.02948,1.895c-1.11216.70609-2.14687,1.33961-3.10483,1.8922q-1.44113.83307-1.43939,1.28938c0,.30141.50445.5805,1.51474.83168q1.5123.381,3.33229.681,1.8179.3056,3.25693.60562,1.43694.3056,1.43869.90982.14861,2.42386.1514,4.84772v4.99843q0,6.05756-.53026,12.79889a89.71919,89.71919,0,0,1-2.045,13.251,67.84357,67.84357,0,0,1-4.16466,12.42212A35.96388,35.96388,0,0,1,769.96955,434.62a31.91982,31.91982,0,0,1-10.45107,7.11948,36.27726,36.27726,0,0,1-14.46433,2.65132,42.61983,42.61983,0,0,1-11.96581-1.51544,31.4153,31.4153,0,0,1-9.08844-4.23932c-.30281-.20373-.43049-.70609-.37816-1.51544a25.15273,25.15273,0,0,1,.30281-2.576,25.71666,25.71666,0,0,0,.30281-2.57317c.04954-.80935-.02582-1.3117-.22746-1.51544-.30281-.3042-.80935-.35165-1.51474-.15071a12.51055,12.51055,0,0,0-2.12036.83168,13.26807,13.26807,0,0,1-2.045.83447,1.19266,1.19266,0,0,1-1.43869-.3042q-6.36107-8.63213-9.16379-21.65987a136.159,136.159,0,0,1-2.802-28.62585,92.21828,92.21828,0,0,1,2.045-18.55643,66.15,66.15,0,0,1,6.66457-18.40293,42.00217,42.00217,0,0,1,12.344-14.08547Q733.6936,324.73544,745.05415,324.73265Zm-9.39125,61.0417q0,14.23757,1.81755,22.03663,1.8179,7.80325,7.5737,7.80045,4.54317,0,6.36107-7.27019,1.8179-7.27159,1.81755-23.17251,0-7.87441-.1514-13.78406a63.77524,63.77524,0,0,0-.90842-9.92151,13.00733,13.00733,0,0,0-2.42386-5.9836,5.81765,5.81765,0,0,0-4.69492-1.96756q-4.84982,0-7.11948,7.4209Q735.6636,368.35519,735.6629,385.77435Z"/><path class="cls-1" d="M793.36952,422.11582q2.11931-.15489,6.36177-.37956,4.23862-.22606,9.69405-.30141,5.45264-.07954,11.5109-.07535H832.6753q5.67975,0,10.52643.07535,4.84563.07117,7.7251.07535c.20094,0,.37886.20094.53026.60562a9.50013,9.50013,0,0,1,.37816,1.28659,9.45949,9.45949,0,0,0,.37886,1.28938c.1514.40188.32653.60562.53026.60562.20094,0,.47793-.17861.83307-.53026a8.15844,8.15844,0,0,0,.98448-1.214,12.14937,12.14937,0,0,1,.98448-1.28659c.35235-.40467.62934-.60562.83307-.60562q2.11931.15071,3.86255.22885,1.7394.07117,2.95343.22606a54.09663,54.09663,0,0,1,.90912,6.36037,60.88485,60.88485,0,0,1,.22676,6.66457,54.29872,54.29872,0,0,1-.37886,5.52869,7.55848,7.55848,0,0,1-.757,2.95552,25.06369,25.06369,0,0,1-4.24071.60562q-3.33438.30141-8.17931.45212-4.84982.15071-10.52713.3042-5.67975.15071-11.3595.15071-5.6808,0-10.67853-.07535-4.99843-.07954-8.33072-.22606a1.16124,1.16124,0,0,1-.98448-.53026,8.45564,8.45564,0,0,1-.68167-1.13588,8.61811,8.61811,0,0,0-.68167-1.13588,1.15332,1.15332,0,0,0-.98448-.53026c-.30281,0-.83307.50235-1.59009,1.51265q-1.13658,1.51544-1.59079,1.51544-5.60544-.45212-9.99686-.907a12.35036,12.35036,0,0,1-1.21123-4.99843,57.76475,57.76475,0,0,1,.45421-13.40729A9.79528,9.79528,0,0,1,793.36952,422.11582Z"/><path class="cls-1" d="M871.97968,352.90639q.30141-1.36473,3.33229-4.16675,3.02773-2.80063,7.34554-6.059,4.31711-3.25275,9.16379-6.285a90.83741,90.83741,0,0,1,8.63353-4.84772,24.77633,24.77633,0,0,1,4.54422-.53026q3.63475-.22606,8.17931-.22606,4.84563,0,9.4666.22606,4.61852.23025,6.73993.53026a22.67517,22.67517,0,0,1,.37886,4.24211q.07431,3.03087.22676,7.5716a4.27535,4.27535,0,0,1-1.21123,2.65132,4.5634,4.5634,0,0,0-1.21193,2.95552,4.01164,4.01164,0,0,0,1.28728,2.72388A4.84713,4.84713,0,0,1,930.294,354.419q.14861,9.99686.07535,22.11478-.07745,12.11931-.22676,24.08233-.1528,11.9686-.37886,22.419-.22711,10.449-.68167,16.81214c-.10187.30141-.65795.60562-1.66614.907a20.77785,20.77785,0,0,1-3.86255.68376q-2.34956.22606-5.14983.37677-2.80377.15071-5.8315.1535-3.03087,0-5.90686-.1535-2.87912-.15071-5.22589-.37677a19.06541,19.06541,0,0,1-3.7865-.68376,3.494,3.494,0,0,1-1.7415-.907q-.3056-6.66457-.30351-14.01012,0-7.34694.1521-15.07065a1.67919,1.67919,0,0,1,.98448-1.36473,21.37718,21.37718,0,0,1,2.12036-1.13588A20.63181,20.63181,0,0,0,900.9851,407.13a1.67627,1.67627,0,0,0,.98448-1.36194c0-.3042-.32862-.65585-.98448-1.06053a21.18788,21.18788,0,0,0-2.12036-1.13588,20.81121,20.81121,0,0,1-2.12036-1.13588c-.65795-.40467-.98448-.75911-.98448-1.06053q.14861-8.48142.22676-17.1917.07431-8.70748.07605-17.4959-.75981.607-2.34781,1.895-1.59079,1.28938-3.48369,2.65132a40.33107,40.33107,0,0,1-3.6351,2.34711,6.33054,6.33054,0,0,1-2.95343.98517q-1.66928,0-3.7872-2.88017a41.26671,41.26671,0,0,1-3.9379-6.66457,59.1702,59.1702,0,0,1-2.95343-7.27019A13.83909,13.83909,0,0,1,871.97968,352.90639Z"/><path class="cls-1" d="M941.0472,352.90639q.30141-1.36473,3.33229-4.16675,3.02773-2.80063,7.34554-6.059,4.31711-3.25275,9.16379-6.285a90.83741,90.83741,0,0,1,8.63353-4.84772,24.77633,24.77633,0,0,1,4.54422-.53026q3.63475-.22606,8.17931-.22606,4.84563,0,9.4666.22606,4.61852.23025,6.73993.53026a22.67517,22.67517,0,0,1,.37886,4.24211q.07431,3.03087.22676,7.5716a4.27535,4.27535,0,0,1-1.21123,2.65132,4.5634,4.5634,0,0,0-1.21193,2.95552,4.01164,4.01164,0,0,0,1.28728,2.72388,4.84713,4.84713,0,0,1,1.43939,2.72667q.14861,9.99686.07535,22.11478-.07745,12.11931-.22676,24.08233-.1528,11.9686-.37886,22.419-.22711,10.449-.68167,16.81214c-.10187.30141-.65795.60562-1.66614.907a20.77785,20.77785,0,0,1-3.86255.68376q-2.34956.22606-5.14984.37677-2.80377.15071-5.8315.1535-3.03087,0-5.90686-.1535-2.87912-.15071-5.22589-.37677a19.06541,19.06541,0,0,1-3.7865-.68376,3.494,3.494,0,0,1-1.7415-.907q-.3056-6.66457-.30351-14.01012,0-7.34694.1521-15.07065a1.67919,1.67919,0,0,1,.98448-1.36473,21.37718,21.37718,0,0,1,2.12036-1.13588,20.63181,20.63181,0,0,0,2.12036-1.13588,1.67627,1.67627,0,0,0,.98448-1.36194c0-.3042-.32862-.65585-.98448-1.06053a21.18788,21.18788,0,0,0-2.12036-1.13588,20.81121,20.81121,0,0,1-2.12036-1.13588c-.65795-.40467-.98448-.75911-.98448-1.06053q.14861-8.48142.22676-17.1917.07431-8.70748.07605-17.4959-.75981.607-2.34781,1.895-1.59079,1.28938-3.48369,2.65132a40.33107,40.33107,0,0,1-3.6351,2.34711,6.33054,6.33054,0,0,1-2.95343.98517q-1.66928,0-3.7872-2.88017a41.26671,41.26671,0,0,1-3.9379-6.66457,59.1702,59.1702,0,0,1-2.95343-7.27019A13.83909,13.83909,0,0,1,941.0472,352.90639Z"/><path class="cls-1" d="M640.94725,494.44362q0-9.94171,2.3123-16.35886a27.86036,27.86036,0,0,1,7.05185-10.9261c.2313-.2313.67393-.26709,1.32928-.11565.654.157,1.38779.33043,2.19665.52042q1.21432.28912,2.19665.52042a1.83535,1.83535,0,0,0,1.32928,0,3.24,3.24,0,0,0-.05782-1.33q-.17347-.97889-.40408-2.02111c-.15558-.6939-.28912-1.33-.40477-1.90821s-.09775-.90592.05782-.983a23.88434,23.88434,0,0,1,6.87838-3.062,28.7225,28.7225,0,0,1,7.10968-.86737A35.56254,35.56254,0,0,1,682.623,459.702a25.56166,25.56166,0,0,1,8.15052,4.626,21.52333,21.52333,0,0,1,5.0865,6.4736,32.459,32.459,0,0,1,2.71638,7.3988,41.26419,41.26419,0,0,1,1.04084,7.1675q.17347,3.41165.17347,5.95318,0,.4626-.92519.80954a12.56628,12.56628,0,0,1-2.36943.57825q-1.44768.2313-3.23749.34695-1.7936.11565-3.64157.11565a37.88912,37.88912,0,0,1-5.89536-.40477q-2.54428-.40477-2.5436-1.21432,0-6.81918-2.3123-10.34785a7.746,7.746,0,0,0-6.9362-3.52455,7.0487,7.0487,0,0,0-5.37563,2.13951,14.65737,14.65737,0,0,0-3.12115,5.20146,27.29952,27.29952,0,0,0-1.44493,6.53143q-.34695,3.46948-.34695,6.24231a73.522,73.522,0,0,0,.80886,12.022,25.70356,25.70356,0,0,0,2.19665,7.3988,8.63637,8.63637,0,0,0,3.2368,3.70078,7.89069,7.89069,0,0,0,3.9307,1.04084q5.20215,0,7.80357-2.02386a6.46568,6.46568,0,0,0,2.60142-5.37494q-.92726,0-3.9307.11565a22.50556,22.50556,0,0,1-5.66475-.4626V501.49547q0-.2313.98233-.4626a17.31383,17.31383,0,0,1,2.65924-.34695q1.67382-.11565,3.815-.17347,2.13745-.05782,4.45043-.05782,3.00482,0,5.95387.11565,2.948.11565,5.3178.28912a26.334,26.334,0,0,1,3.87287.52042q1.50138.34695,1.50275.6939a63.0595,63.0595,0,0,1-1.8497,15.66221,43.5326,43.5326,0,0,1-4.50826,11.62,1.09991,1.09991,0,0,1-.92519.4626,6.8189,6.8189,0,0,1-2.77421-.75172q-1.62115-.75172-2.42795-.05782a2.32957,2.32957,0,0,0,.2313,1.33c.2313.57825.4805,1.15374.751,1.732a12.99427,12.99427,0,0,1,.63607,1.61909.85256.85256,0,0,1-.34695,1.09867,26.38173,26.38173,0,0,1-7.97636,3.81367,31.66,31.66,0,0,1-9.13285,1.38779,36.683,36.683,0,0,1-12.77442-1.96328,25.68821,25.68821,0,0,1-8.84373-5.37769,24.83482,24.83482,0,0,1-5.60692-7.91922,45.89212,45.89212,0,0,1-3.06333-9.53556,69.59062,69.59062,0,0,1-1.33-10.40568Q640.94621,499.41516,640.94725,494.44362Z"/><path class="cls-1" d="M709.848,461.84154q1.617-.2313,5.3178-.34695,3.69871-.11152,7.8614-.11565,3.581,0,6.9362.11565,3.35176.11565,5.77971.34695v9.94308a1.41506,1.41506,0,0,1-.751,1.09867q-.75379.52042-1.6184,1.15374a19.50518,19.50518,0,0,0-1.56058,1.27214,1.82,1.82,0,0,0-.6939,1.33,1.70489,1.70489,0,0,0,.57825,1.33,13.0835,13.0835,0,0,0,1.32928,1.04084,13.45057,13.45057,0,0,1,1.3871,1.09867,1.94023,1.94023,0,0,1,.63607,1.50069q-.23336,7.40155-.52042,15.43367-.29016,8.03762-.57825,15.43367-.28912,7.40155-.46191,13.46763-.17347,6.07159-.17347,9.53831a59.614,59.614,0,0,1-8.84373,1.21432,81.14807,81.14807,0,0,1-10.80907-.17347q0-.57825-.17347-3.18035t-.34695-5.77971q-.17347-3.17622-.34695-6.12666c-.11565-1.966-.17347-3.3318-.17347-4.10555,0-.15145.15351-.32492.4626-.52042q.46053-.285,1.098-.749a6.94832,6.94832,0,0,0,1.09867-.983,1.64174,1.64174,0,0,0,.4626-1.09867,1.94205,1.94205,0,0,0-.63607-1.50344,8.09072,8.09072,0,0,0-1.32928-.983c-.4626-.26985-.9073-.49839-1.33-.6939-.424-.19-.63538-.40477-.63538-.63607q0-.22717-.17347-3.46672-.17347-3.234-.34695-8.15052-.17347-4.911-.4626-10.6948-.29016-5.77833-.46191-11.09682-.17347-5.31574-.34695-9.36484Q709.848,463.34636,709.848,461.84154Z"/><path class="cls-1" d="M746.14676,491.668l.2313-6.358q.57721-.34695,1.33-.75172a11.56344,11.56344,0,0,0,1.44493-.92519,5.77175,5.77175,0,0,0,1.098-1.04084,1.63157,1.63157,0,0,0,.40477-.983,2.43152,2.43152,0,0,0-1.67623-1.96328,10.55249,10.55249,0,0,1-2.83272-1.85039l.57825-13.29416a1.8395,1.8395,0,0,1,.983-1.56126,7.77069,7.77069,0,0,1,2.54291-.983,27.46368,27.46368,0,0,1,3.52593-.52042q1.965-.17347,4.04635-.17347c1.3871,0,2.735.0413,4.04635.11565a29.3492,29.3492,0,0,1,3.52593.40477,15.24644,15.24644,0,0,1,2.48508.63607q.92416.34695.92519.80954V470.339q0,4.79944-.2313,13.93023-.11668,8.43827.2313,14.39282.34695,5.95594.34695,8.84441a22.38625,22.38625,0,0,0,.69321,5.66406,14.84939,14.84939,0,0,0,2.02317,4.62322,10.19906,10.19906,0,0,0,3.12115,3.06471,7.27579,7.27579,0,0,0,3.87287,1.09867,6.71778,6.71778,0,0,0,4.04635-1.09867,7.60561,7.60561,0,0,0,2.37012-2.89123,13.33449,13.33449,0,0,0,1.1558-4.27627,45.90038,45.90038,0,0,0,.28912-5.25929l.2313-25.55022-.2313-18.84257q0-1.61909,3.06333-2.13951a43.71141,43.71141,0,0,1,7.22532-.52042,60.22049,60.22049,0,0,1,7.10968.34695q2.83134.34695,2.83272,2.313l.4626,25.20052-.4626,23.93113v5.66406a.89061.89061,0,0,1-.6939.983,8.79245,8.79245,0,0,1-1.50275.2313q-.81058.05782-1.56058.17347a1.16142,1.16142,0,0,0-.983.92519,2.37669,2.37669,0,0,0,.28912,1.38779q.40374.92519.92519,1.90546c.34695.6581.654,1.29142.92451,1.90821a1.72468,1.72468,0,0,1,.17347,1.38779q-2.4276,4.85727-8.7859,8.55529-6.35968,3.69665-16.8786,3.698a42.15777,42.15777,0,0,1-15.20168-2.36806,28.5844,28.5844,0,0,1-9.82674-6.07159,21.69167,21.69167,0,0,1-5.37563-8.26341A28.96036,28.96036,0,0,1,746.725,514.327Z"/><path class="cls-1" d="M814.92984,494.44362q0-9.94171,2.3123-16.35886a27.86036,27.86036,0,0,1,7.05185-10.9261c.2313-.2313.67393-.26709,1.32928-.11565.654.157,1.38779.33043,2.19665.52042q1.21432.28912,2.19665.52042a1.83535,1.83535,0,0,0,1.32928,0,3.24,3.24,0,0,0-.05782-1.33q-.17347-.97889-.40408-2.02111c-.15558-.6939-.28912-1.33-.40477-1.90821s-.09775-.90592.05782-.983a23.88434,23.88434,0,0,1,6.87838-3.062,28.7225,28.7225,0,0,1,7.10968-.86737,35.56254,35.56254,0,0,1,12.08053,1.78981,25.56165,25.56165,0,0,1,8.15052,4.626,21.52333,21.52333,0,0,1,5.0865,6.4736,32.459,32.459,0,0,1,2.71638,7.3988,41.26419,41.26419,0,0,1,1.04084,7.1675q.17347,3.41165.17347,5.95318,0,.4626-.92519.80954a12.56628,12.56628,0,0,1-2.36943.57825q-1.44768.2313-3.23749.34695-1.7936.11565-3.64157.11565a37.88912,37.88912,0,0,1-5.89536-.40477q-2.54428-.40477-2.5436-1.21432,0-6.81918-2.3123-10.34785a7.746,7.746,0,0,0-6.9362-3.52455,7.0487,7.0487,0,0,0-5.37562,2.13951,14.65737,14.65737,0,0,0-3.12115,5.20146,27.29952,27.29952,0,0,0-1.44493,6.53143q-.34695,3.46948-.34695,6.24231a73.522,73.522,0,0,0,.80886,12.022,25.70356,25.70356,0,0,0,2.19665,7.3988,8.63637,8.63637,0,0,0,3.2368,3.70078,7.89069,7.89069,0,0,0,3.9307,1.04084q5.20215,0,7.80357-2.02386a6.46568,6.46568,0,0,0,2.60142-5.37494q-.92726,0-3.9307.11565a22.50556,22.50556,0,0,1-5.66475-.4626V501.49547q0-.2313.98233-.4626a17.31383,17.31383,0,0,1,2.65924-.34695q1.67382-.11565,3.815-.17347,2.13745-.05782,4.45043-.05782,3.00482,0,5.95387.11565,2.948.11565,5.3178.28912a26.334,26.334,0,0,1,3.87287.52042q1.50138.34695,1.50275.6939a63.0595,63.0595,0,0,1-1.8497,15.66221,43.5326,43.5326,0,0,1-4.50826,11.62,1.09991,1.09991,0,0,1-.92519.4626,6.8189,6.8189,0,0,1-2.77421-.75172q-1.62115-.75172-2.42795-.05782a2.32957,2.32957,0,0,0,.2313,1.33c.2313.57825.4805,1.15374.751,1.732a12.99426,12.99426,0,0,1,.63607,1.61909.85256.85256,0,0,1-.34695,1.09867,26.38173,26.38173,0,0,1-7.97636,3.81367,31.66,31.66,0,0,1-9.13285,1.38779,36.683,36.683,0,0,1-12.77442-1.96328,25.68821,25.68821,0,0,1-8.84373-5.37769,24.83482,24.83482,0,0,1-5.60692-7.91922,45.89213,45.89213,0,0,1-3.06333-9.53556,69.59062,69.59062,0,0,1-1.33-10.40568Q814.92881,499.41516,814.92984,494.44362Z"/><path class="cls-1" d="M904.40863,462.18849l15.95409,27.05091q-.11668-4.15924.05782-8.84166.17244-4.68379.40408-8.78659.23027-4.10142.40477-6.82055.17347-2.71776.17347-2.83341,1.50138-.2313,4.73955-.40477,3.23508-.17347,6.93689-.17347,2.88813,0,5.49059.11565a29.27517,29.27517,0,0,1,4.33547.4626q0,.11565-.05782,1.966-.05989,1.85039-.17347,4.50757-.11668,2.65993-.17347,5.72188-.05886,3.06471-.17347,5.72464-.11565,2.65993-.17279,4.50757c-.03993,1.23359-.05782,1.92749-.05782,2.08169s-.2134.3855-.63607.6939c-.42474.3084-.90661.63332-1.44493.98027a15.45664,15.45664,0,0,0-1.44562,1.04084,1.39518,1.39518,0,0,0-.63538.983c0,.2313.19137.5039.57825.80954q.57618.4626,1.27145.983.6939.52042,1.27145.983.57721.4626.57825.6939,0,.11565-.17347,3.23543-.17347,3.12253-.40477,7.74575-.23336,4.626-.52042,10.05873-.28912,5.43551-.51973,10.056-.23336,4.626-.40477,7.8614-.17347,3.23818-.17347,3.46948t-2.77421.34695q-2.77455.11565-6.0117.11565-3.00791,0-5.3178-.11565-2.314-.11565-2.3123-.34695l-15.83775-26.81961q-.23336,4.04772-.52042,8.14777-.29016,4.10555-.57825,7.6301-.28912,3.5273-.46191,6.12666-.17347,2.60211-.17347,3.87425a61.06747,61.06747,0,0,1-8.09269,1.09867,80.25864,80.25864,0,0,1-10.05735-.05782q0-.57825-.11565-3.18035-.11668-2.60211-.28912-5.77971-.17347-3.17622-.34695-6.06883-.17347-2.8871-.17347-4.04772c0-.15145.15351-.32492.4626-.51767a7.53377,7.53377,0,0,0,.983-.75172,12.03324,12.03324,0,0,0,.98233-.983,1.64174,1.64174,0,0,0,.4626-1.09867,2.04084,2.04084,0,0,0-.57825-1.50344,6.35368,6.35368,0,0,0-1.27145-.983q-.6939-.40064-1.27145-.6939c-.38687-.19-.57825-.40477-.57825-.63607q0-.22717-.11565-3.46672-.11668-3.234-.34695-8.09269-.23336-4.85727-.40477-10.5764-.17347-5.72464-.40408-10.9261-.23336-5.20009-.34695-9.19136-.11668-3.98577-.11565-5.37494a41.29217,41.29217,0,0,1,4.277-.34695q2.77455-.11152,6.12735-.11565,2.65787,0,5.3178.11565Q902.21129,461.95719,904.40863,462.18849Z"/><path class="cls-1" d="M951.57425,497.79469a72.2004,72.2004,0,0,1,1.21432-14.04588,41.668,41.668,0,0,1,3.41028-10.46075,1.54618,1.54618,0,0,1,.98233-.86737,11.88815,11.88815,0,0,1,1.44493-.28912q.80748-.11565,1.61909-.17347a3.09574,3.09574,0,0,0,1.3871-.40477,13.43958,13.43958,0,0,0-.05782-3.70078,3.414,3.414,0,0,1,.63607-3.00413,24.064,24.064,0,0,1,9.19-5.37769,34.40916,34.40916,0,0,1,10.23152-1.55851q14.103,0,22.13857,10.63422,8.03349,10.63973,8.03418,31.56123a85.94909,85.94909,0,0,1-.4626,9.07571,58.49266,58.49266,0,0,1-1.50275,8.37906,3.43054,3.43054,0,0,1-1.32928,2.48646,13.55261,13.55261,0,0,1-2.60142,1.90821q0,.6939.05782,1.73474a12.65157,12.65157,0,0,1-.05782,2.07893q-.11668,1.04084-.2313,1.79256a1.38627,1.38627,0,0,1-.46191.983,25.78789,25.78789,0,0,1-9.2485,8.38182q-5.66578,3.06057-14.335,3.062-15.60645,0-22.83247-10.692Q951.57356,518.60467,951.57425,497.79469Zm31.2136,24.16243a8.16167,8.16167,0,0,0,3.2368-.6939,6.17384,6.17384,0,0,0,2.83272-3.06471,24.50362,24.50362,0,0,0,1.96535-6.87838,78.32187,78.32187,0,0,0,.751-12.25331q0-3.92794-.28912-7.80357a29.24822,29.24822,0,0,0-1.27145-6.87838,11.80946,11.80946,0,0,0-2.94768-4.91234,7.47353,7.47353,0,0,0-5.43345-1.90821q-4.39467,0-6.18517,5.14364-1.7936,5.14639-1.79188,16.47451,0,4.16337.11565,8.26617a31.83509,31.83509,0,0,0,.983,7.341,11.9283,11.9283,0,0,0,2.71638,5.20146A6.94785,6.94785,0,0,0,982.78785,521.95712Z"/><path class="cls-1" d="M646.95051,683.62418a24.36566,24.36566,0,0,1-1.08381-4.33524,38.91426,38.91426,0,0,1-.49992-5.24982q-.08526-2.74763,0-5.50043a28.35994,28.35994,0,0,1,.58324-5.08189q0-2.333,3.58342-6.24967,3.58277-3.91412,9.00053-9.00118,5.41388-5.0806,11.66678-11.00086,6.251-5.9138,11.66742-12.08338a78.893,78.893,0,0,0,8.99988-12.334,23.59074,23.59074,0,0,0,3.58342-11.83277q0-7.5027-2.16633-9.91834-2.16827-2.41435-6.50027-2.41564-2.8358,0-5.50043,2.99953-2.66819,2.99953-2.66625,8.66789,0,.66656-2.33361.66656a57.80654,57.80654,0,0,1-7.91672-.75182q-5.08641-.74795-10.00037-1.83175-4.9188-1.08123-8.58393-2.25029-3.668-1.16261-3.66674-1.99969a32.65866,32.65866,0,0,1,2.91686-13.16848,38.956,38.956,0,0,1,8.25-12.00071,42.20717,42.20717,0,0,1,12.83391-8.66531,40.59769,40.59769,0,0,1,16.66729-3.33281q12.00006,0,20.00075,3.66609a32.52992,32.52992,0,0,1,12.83326,10.16637,2.36452,2.36452,0,0,1,.08332,2.08494A28.912,28.912,0,0,1,717.619,575.871q-.66753,1.585-1.16648,3.0822a3.04439,3.04439,0,0,0-.16664,2.16762q.33134.49992,1.49977.33328a15.68633,15.68633,0,0,0,2.50025-.58389,17.17961,17.17961,0,0,1,2.41693-.58389c.72082-.10851,1.13806.05684,1.2498.50121q2.99953,8.49867,2.6669,20.16739a61.8813,61.8813,0,0,1-2.83354,17.83442,79.00956,79.00956,0,0,1-6.75024,15.41619,72.83154,72.83154,0,0,1-9.25049,12.74994,107.86184,107.86184,0,0,1-10.33365,10.001q9.66419,0,18.08373-.25061a104.892,104.892,0,0,1,15.41748.58389,55.4619,55.4619,0,0,1,.74988,6.4176q.25,3.74748.25,7.50012,0,3.74748-.25,7.08158a33.04518,33.04518,0,0,1-.74988,5.33508q-4.168.32941-11.7501.58389-7.587.248-15.75076.33328-8.1683.08138-15.75076.248-7.586.16664-11.91674.16793h0q.66366-.33716.33328-1.75166a11.56013,11.56013,0,0,0-1.16648-2.91427,26.4063,26.4063,0,0,0-1.75037-2.75151c-.61166-.83191-1.08316-1.25045-1.41645-1.25045-.44567,0-1.05733.447-1.83369,1.33312q-1.16745,1.337-2.41629,2.83418-1.25077,1.49977-2.33361,2.83418c-.724.88617-1.30729,1.33312-1.75037,1.33312q-1.66737,0-4.3333-.16793-2.66819-.16664-5.33314-.248-2.66819-.08913-4.66723-.25061A7.37692,7.37692,0,0,1,646.95051,683.62418Z"/><path class="cls-1" d="M784.45418,556.95408a58.71157,58.71157,0,0,1,17.16721,2.25029,28.89184,28.89184,0,0,1,12.5,7.58279,36.44379,36.44379,0,0,1,8.084,14.16574,94.06891,94.06891,0,0,1,3.9167,22.00172q0,.49992-1.50041,1.4158-1.49977.91846-3.33281,2.08495-1.83692,1.16648-3.41678,2.08236c-1.05733.61231-1.58373,1.08252-1.58373,1.4158s.55482.64073,1.66705.91717q1.6635.41854,3.66674.75182,1.99969.33328,3.58342.66656,1.58212.33328,1.58309.99984.16373,2.66625.16664,5.3325v5.50043q0,6.6695-.58324,14.08307a98.75189,98.75189,0,0,1-2.25029,14.58428,74.62912,74.62912,0,0,1-4.58326,13.66711,39.62142,39.62142,0,0,1-7.66676,11.41682,35.17731,35.17731,0,0,1-11.50014,7.8334,39.94494,39.94494,0,0,1-15.91741,2.91686A46.91543,46.91543,0,0,1,771.287,686.957a34.543,34.543,0,0,1-10.00037-4.66594c-.33328-.22219-.47409-.77766-.4166-1.66641a27.68869,27.68869,0,0,1,.33328-2.83418,28.15559,28.15559,0,0,0,.33328-2.83418c.0549-.88875-.02842-1.44163-.25-1.66641-.33328-.33328-.89069-.38754-1.66641-.16793a13.77284,13.77284,0,0,0-2.33361.91717,14.432,14.432,0,0,1-2.25029.91717,1.31256,1.31256,0,0,1-1.58309-.33328q-6.99987-9.49851-10.08369-23.83348A149.82727,149.82727,0,0,1,740.286,619.288a101.466,101.466,0,0,1,2.25029-20.418,72.76834,72.76834,0,0,1,7.33348-20.25006,46.17949,46.17949,0,0,1,13.58379-15.49887Q771.9542,556.95538,784.45418,556.95408Zm-10.33365,67.16778q0,15.66809,2.00033,24.24943,1.99969,8.5878,8.33332,8.58522,5.00019,0,7.0002-8.00133,1.99969-7.99875,2.00033-25.49988,0-8.66531-.16729-15.16817a70.05135,70.05135,0,0,0-.99984-10.9156,14.295,14.295,0,0,0-2.6669-6.58295,6.40143,6.40143,0,0,0-5.1665-2.16762q-5.33637,0-7.8334,8.16668Q774.1202,604.95691,774.12052,624.12187Z"/><path class="cls-1" d="M837.12165,683.62418a24.36566,24.36566,0,0,1-1.08381-4.33524,38.91424,38.91424,0,0,1-.49992-5.24982q-.08526-2.74763,0-5.50043a28.35993,28.35993,0,0,1,.58324-5.08189q0-2.333,3.58342-6.24967,3.58277-3.91412,9.00053-9.00118,5.41388-5.0806,11.66678-11.00086,6.251-5.9138,11.66742-12.08338a78.893,78.893,0,0,0,8.99988-12.334,23.59074,23.59074,0,0,0,3.58342-11.83277q0-7.5027-2.16633-9.91834-2.16827-2.41435-6.50027-2.41564-2.8358,0-5.50043,2.99953-2.66819,2.99953-2.66625,8.66789,0,.66656-2.33361.66656a57.80654,57.80654,0,0,1-7.91672-.75182q-5.08641-.74795-10.00037-1.83175-4.9188-1.08123-8.58393-2.25029-3.668-1.16261-3.66674-1.99969a32.65866,32.65866,0,0,1,2.91686-13.16848,38.956,38.956,0,0,1,8.25-12.00071,42.20717,42.20717,0,0,1,12.83391-8.66531,40.59769,40.59769,0,0,1,16.66729-3.33281q12.00006,0,20.00075,3.66609A32.52992,32.52992,0,0,1,908.79,570.78654a2.36452,2.36452,0,0,1,.08332,2.08494,28.912,28.912,0,0,1-1.08316,2.99953q-.66753,1.585-1.16648,3.0822a3.04439,3.04439,0,0,0-.16664,2.16762q.33134.49992,1.49977.33328a15.68634,15.68634,0,0,0,2.50025-.58389,17.17961,17.17961,0,0,1,2.41693-.58389c.72082-.10851,1.13806.05684,1.2498.50121q2.99953,8.49867,2.6669,20.16739a61.88129,61.88129,0,0,1-2.83354,17.83442,79.00957,79.00957,0,0,1-6.75024,15.41619,72.83154,72.83154,0,0,1-9.25049,12.74994,107.86183,107.86183,0,0,1-10.33365,10.001q9.66419,0,18.08373-.25061a104.892,104.892,0,0,1,15.41748.58389,55.46187,55.46187,0,0,1,.74988,6.4176q.25,3.74748.25,7.50012,0,3.74748-.25,7.08158a33.04517,33.04517,0,0,1-.74988,5.33508q-4.168.32941-11.7501.58389-7.587.248-15.75076.33328-8.1683.08138-15.75076.248-7.586.16664-11.91674.16793h0q.66366-.33716.33328-1.75166a11.56013,11.56013,0,0,0-1.16648-2.91427,26.4063,26.4063,0,0,0-1.75037-2.75151c-.61166-.83191-1.08316-1.25045-1.41645-1.25045-.44567,0-1.05733.447-1.83369,1.33312q-1.16745,1.337-2.41629,2.83418-1.25077,1.49977-2.33361,2.83418c-.724.88617-1.30729,1.33312-1.75037,1.33312q-1.66737,0-4.3333-.16793-2.66819-.16664-5.33314-.248-2.66819-.08913-4.66723-.25061A7.37692,7.37692,0,0,1,837.12165,683.62418Z"/><path class="cls-1" d="M930.45717,649.955q0-.82933,2.41693-1.917a44.75918,44.75918,0,0,1,5.917-2.08236q3.49945-.99984,7.16684-1.74908a31.62935,31.62935,0,0,1,6.16635-.75182q2.83289,0,3.00018.99984a15.851,15.851,0,0,0,2.83354,5.919,13.10121,13.10121,0,0,0,3.83338,3.33281,12.72048,12.72048,0,0,0,4,1.4158,21.36393,21.36393,0,0,0,3.5001.33328,10.28275,10.28275,0,0,0,7.33348-2.8316q3.0005-2.83289,3.00018-8.83583,0-5.162-2.66625-7.16684a12.88792,12.88792,0,0,0-6.83356-2.333q-2.83677-.16277-6.75024,0-3.918.17052-8.084.16793-1.336,0-1.99969-3.66868a40.6922,40.6922,0,0,1-.58324-8.08142,39.71405,39.71405,0,0,1,.91652-8.084q.83223-3.66609,2.33361-3.66609,5.66384,0,9.0832.248,3.41419.2519,6.58359.25061,5.16392,0,6.58359-2.83418a17.31992,17.31992,0,0,0,1.41644-7.66547q0-7.5027-3.0835-9.91834a11.67069,11.67069,0,0,0-7.4168-2.41564,8.32471,8.32471,0,0,0-3.25014.74924,12.52528,12.52528,0,0,0-3.41678,2.25029,12.2213,12.2213,0,0,0-2.74957,3.66609,11.03006,11.03006,0,0,0-1.08381,5.0018q0,.66656-1.99969.66656a43.92908,43.92908,0,0,1-6.91688-.75182q-4.41791-.74795-8.66725-1.83175a75.40124,75.40124,0,0,1-7.4168-2.25029q-3.16811-1.16261-3.16682-1.99969a32.04479,32.04479,0,0,1,1.75037-10.3343,37.59031,37.59031,0,0,1,5.08318-9.83309c.33328-.44437.85968-.527,1.58373-.25061q1.08123.41854,2.41629.99984,1.33216.58518,2.50025.99984,1.16455.41854,1.66705-.08267a2.83772,2.83772,0,0,0,.33328-1.74908,15.94437,15.94437,0,0,0-.33328-3.08479q-.33619-1.833-.83385-4.16731a37.61428,37.61428,0,0,1,26.33438-9.66515q11.33253,0,19.1669,3.25014a32.83211,32.83211,0,0,1,12.66727,8.91592,35.10027,35.10027,0,0,1,7.0002,13.08322,52.27363,52.27363,0,0,1,2.00033,15.75206,37.93689,37.93689,0,0,1-1.66705,11.08354,30.50627,30.50627,0,0,1-3.41678,7.24951,23.08066,23.08066,0,0,1-3.83338,4.50059q-1.91831,1.66641-3.25014,2.66625,1.66447,1.337,3.75006,2.74892a15.87783,15.87783,0,0,1,3.9167,4.002,24.803,24.803,0,0,1,3.16682,6.7483,37.82116,37.82116,0,0,1,1.33377,11.16879,45.97838,45.97838,0,0,1-2.167,15.49887,33.14181,33.14181,0,0,1-7.33348,12.334q-.49992.49992-2.00033.16793a32.67188,32.67188,0,0,1-3.25014-.91717q-1.74973-.5813-3.25014-.99984a2.9737,2.9737,0,0,0-2.333.08267q-.6685.49992-.4166,1.83434.25,1.33312.49992,2.91686c.16664,1.05668.2758,2.02811.33328,2.91686q.08235,1.33312-.74988,1.66641a44.1186,44.1186,0,0,1-9.08385,2.58357,62.70466,62.70466,0,0,1-11.08354.91717,40.01233,40.01233,0,0,1-16.584-3.3354,42.33486,42.33486,0,0,1-12.75059-8.66531,38.8951,38.8951,0,0,1-8.25-12.00071A32.64941,32.64941,0,0,1,930.45717,649.955Z"/><path class="cls-2" d="M635.58495,792.73867a26.74881,26.74881,0,0,1,.61512-3.078q.61751-2.66752,1.69338-6.825,1.07886-4.15566,2.41142-9.49249,1.33376-5.335,2.77163-10.98123,1.43608-5.642,2.77044-11.34025,1.33376-5.69406,2.46407-10.51809a1.7244,1.7244,0,0,1,.718-.71924q.61392-.40749,1.2829-.7695.66419-.35722,1.2829-.718a1.529,1.529,0,0,0,.718-.66658,1.71283,1.71283,0,0,0-.20584-1.07826q-.30876-.666-.66658-1.38462-.36082-.718-.66658-1.33436a1.524,1.524,0,0,1-.20584-1.0268q.82036-2.87216,1.33316-4.51528.5134-1.64072.71924-1.64192H675.198q.307,0,1.23144,4.05334.92268,4.05513,2.15412,10.41637,1.23144,6.36543,2.72018,14.2136,1.48634,7.85177,2.92482,15.445a3.36046,3.36046,0,0,1-.20464,1.59046q-.30876.87421-.718,1.74484a18.45476,18.45476,0,0,0-.71924,1.74484,3.04353,3.04353,0,0,0-.20464,1.48754,2.67291,2.67291,0,0,0,.7683,1.12972,9.73808,9.73808,0,0,0,1.18118.92268q.61572.41287,1.18.821a1.57154,1.57154,0,0,1,.66658,1.0268q.92448,4.92576,1.48874,8.10787.56366,3.18092.56486,3.38556,0,.41287-2.61726.5134-2.61726.10412-6.004.10292-1.94948,0-3.95161-.05146-1.99974-.05026-3.5902-.10292a21.34249,21.34249,0,0,1-2.5658-.20464c-.651-.10292-.97534-.18789-.97534-.2573q0-.40749-.30756-3.12946-.30876-2.71778-.821-7.02961H657.5462q-.61572,4.51647-1.0256,7.23425-.41287,2.72137-.41168,2.92482c0,.06941-.292.13882-.87122.20584q-.87242.10412-2.3097.15438-1.43788.05206-3.28384.10172-1.84716.05385-3.79724.05146-1.95127,0-3.79724-.05146-1.84716-.05026-3.28384-.10172-1.43788-.05206-2.3097-.15438C635.87456,792.8775,635.58495,792.80809,635.58495,792.73867Zm29.96621-27.50333q-.718-4.51468-1.59166-9.03055-.87242-4.51468-1.69218-8.82591-.71984,4.31-1.48874,8.82591-.7683,4.51647-1.59046,9.03055Z"/><path class="cls-2" d="M693.87544,727.05955q1.43608-.20464,4.71992-.30756,3.285-.10232,6.97935-.10292,3.17912,0,6.15719.10292,2.97448.10232,5.1304.30756,0,.307-.10172,2.92482-.10412,2.61726-.2573,6.72205-.15438,4.10539-.359,9.33811-.20644,5.23451-.40928,10.92977-.20823,5.69585-.41168,11.39171-.20644,5.69585-.30756,10.621h6.97815a3.32318,3.32318,0,0,1,1.69338.61632q.97474.61572,1.89922,1.2829.92268.66778,1.69218,1.2829a2.36929,2.36929,0,0,0,1.07826.61512,1.13719,1.13719,0,0,0,.821-.46194,9.94132,9.94132,0,0,0,.821-1.07706q.40928-.61572.7695-1.12852a.98122.98122,0,0,1,.7707-.5134q2.15412.20644,4.00188.2561,1.84716.05385,2.87336.15438.82036,0,1.12852,1.94948a41.32016,41.32016,0,0,1,.359,8.77445,7.60056,7.60056,0,0,1-.46194,2.61726,12.024,12.024,0,0,1-3.28384.30756q-3.0786.10232-7.69619.10292-4.61879,0-9.903-.05146-5.28837-.05206-9.90417-.15318-5.43915-.10412-10.67247-.20584v-.20584h-.718q0-.5116-.15438-2.8219-.15438-2.3085-.30756-5.1304-.15438-2.8219-.30876-5.43915t-.15318-3.54113q0-.20464.41048-.5134.40749-.307.97534-.66658a4.64621,4.64621,0,0,0,.97414-.821,1.57622,1.57622,0,0,0,.41048-1.07826,1.61625,1.61625,0,0,0-.56366-1.23144,7.23437,7.23437,0,0,0-1.18-.87122c-.41168-.23935-.8066-.44518-1.18118-.61632-.377-.16994-.56366-.359-.56366-.56486q0-.20464-.15438-3.078-.15438-2.87216-.30756-7.184-.15438-4.31-.41168-9.441-.2567-5.1304-.40928-9.85271-.15438-4.71932-.30876-8.364Q693.87424,728.29338,693.87544,727.05955Z"/><path class="cls-2" d="M787.5701,726.752h20.42226a15.80263,15.80263,0,0,1,5.286.92268,13.91577,13.91577,0,0,1,4.71992,2.82309,14.30093,14.30093,0,0,1,3.43822,4.92575,17.88539,17.88539,0,0,1,1.33436,7.23545,21.1006,21.1006,0,0,1-2.20678,9.74859,11.57731,11.57731,0,0,1-5.59353,5.74671,14.64569,14.64569,0,0,1,3.54113,2.00214,13.77187,13.77187,0,0,1,3.02654,3.23238,16.03347,16.03347,0,0,1,2.10386,4.56673,22.097,22.097,0,0,1,.7707,6.20865.64282.64282,0,0,1-.56486.718,6.81414,6.81414,0,0,1-1.23144.10292,5.24628,5.24628,0,0,0-1.2829.15438.88618.88618,0,0,0-.718.7695,1.01669,1.01669,0,0,0,.41048,1.0256,7.70577,7.70577,0,0,0,1.18.7707,8.01064,8.01064,0,0,1,1.18.7695.75078.75078,0,0,1,.30876.92268,23.72633,23.72633,0,0,1-2.5658,5.59353,18.60472,18.60472,0,0,1-3.95161,4.51528,18.01006,18.01006,0,0,1-5.49061,3.02774,21.35494,21.35494,0,0,1-7.18279,1.12852H779.46343q-1.43967-.10232-2.97747-.15318-1.5384-.05385-3.078-.15438V745.9428q0-.20464.41048-.46194.40928-.2549.97534-.66778a6.032,6.032,0,0,0,.97414-.87242,1.45141,1.45141,0,0,0,.41168-.97414,1.72849,1.72849,0,0,0-.56486-1.33436,7.19187,7.19187,0,0,0-1.18-.87242q-.61751-.359-1.18-.61512c-.37817-.16994-.56486-.36022-.56486-.56486q0-.30876-.05146-1.539-.05206-1.23144-.15438-3.02774-.10412-1.7951-.15318-3.90015-.05385-2.10206-.05266-4.05334,2.05359-.20464,6.41449-.359Q783.05482,726.54615,787.5701,726.752Zm14.05923,23.809a5.26708,5.26708,0,0,0,3.54113-1.18118,3.49909,3.49909,0,0,0,1.38462-2.719,6.16636,6.16636,0,0,0-.20464-1.59046,3.06335,3.06335,0,0,0-.821-1.38582,4.256,4.256,0,0,0-1.74484-.97534,9.69352,9.69352,0,0,0-2.87336-.359h-8.20959V750.561Zm-8.723,16.82966q.10232,2.36235.10292,4.66965V776.73h9.23639a6.028,6.028,0,0,0,1.7963-.30756,7.6376,7.6376,0,0,0,1.84656-.87242,5.37542,5.37542,0,0,0,1.48754-1.43728,3.36972,3.36972,0,0,0,.61632-2.00094,4.31852,4.31852,0,0,0-1.43728-3.54113q-1.43608-1.17759-4.71992-1.18Z"/><path class="cls-2" d="M832.10773,753.53608l.20584-5.6438c.34107-.20584.73479-.426,1.18-.66658a10.34154,10.34154,0,0,0,1.2829-.821,5.137,5.137,0,0,0,.97414-.92388,1.44873,1.44873,0,0,0,.359-.87242,2.1548,2.1548,0,0,0-1.48754-1.74484,9.366,9.366,0,0,1-2.51434-1.64192l.5134-11.80219a1.63228,1.63228,0,0,1,.87242-1.38462,6.89528,6.89528,0,0,1,2.257-.87242,24.33622,24.33622,0,0,1,3.13065-.46194q1.74484-.15438,3.59259-.15438,1.84536,0,3.5902.10292a25.98238,25.98238,0,0,1,3.13065.359,13.47809,13.47809,0,0,1,2.20678.56486c.54691.20464.821.44518.821.718v6.31157q0,4.25977-.20584,12.36585-.10232,7.49275.20584,12.77752.30876,5.28657.30756,7.85057a19.80044,19.80044,0,0,0,.61632,5.02867,13.17183,13.17183,0,0,0,1.7951,4.1048,9.05413,9.05413,0,0,0,2.77163,2.719,6.45116,6.45116,0,0,0,3.437.97534,5.959,5.959,0,0,0,3.59259-.97534,6.74714,6.74714,0,0,0,2.10386-2.5658,11.86688,11.86688,0,0,0,1.0268-3.796,40.72292,40.72292,0,0,0,.2561-4.66965l.20584-22.68049-.20584-16.72794q0-1.43608,2.719-1.898a38.85482,38.85482,0,0,1,6.41449-.46194,53.64234,53.64234,0,0,1,6.31157.30756q2.51314.30876,2.51314,2.0524l.41168,22.37293-.41168,21.24322v5.02867a.79033.79033,0,0,1-.61512.87242,7.84083,7.84083,0,0,1-1.33316.20464c-.47989.0359-.94183.08616-1.38582.15438a1.02914,1.02914,0,0,0-.87242.821,2.09486,2.09486,0,0,0,.2561,1.23144q.359.82216.821,1.69338.46134.87242.82216,1.69338a1.53122,1.53122,0,0,1,.15318,1.23144q-2.15412,4.31-7.80031,7.59327-5.6438,3.28324-14.9831,3.285a37.40739,37.40739,0,0,1-13.49437-2.10386,25.37556,25.37556,0,0,1-8.723-5.38769,19.26237,19.26237,0,0,1-4.77257-7.33837,25.69357,25.69357,0,0,1-1.539-7.95349Z"/><path class="cls-2" d="M895.73327,727.05955q1.43608-.20464,4.72231-.30756,3.28144-.10232,6.977-.10292,3.18092,0,6.15839.10292,2.97628.10232,5.13159.30756,0,.307-.10292,2.92482-.10412,2.61726-.2561,6.72205-.15438,4.10539-.359,9.33811-.20823,5.23451-.41168,10.92977-.20644,5.69585-.40928,11.39171-.20823,5.69585-.30876,10.621h6.97935a3.327,3.327,0,0,1,1.69218.61632q.97474.61572,1.898,1.2829.92448.66778,1.69457,1.2829a2.35028,2.35028,0,0,0,1.07706.61512,1.13719,1.13719,0,0,0,.821-.46194,9.94132,9.94132,0,0,0,.821-1.07706q.40928-.61572.7695-1.12852a.98292.98292,0,0,1,.7695-.5134q2.15592.20644,4.00307.2561,1.84716.05385,2.87336.15438.82036,0,1.12852,1.94948a41.42429,41.42429,0,0,1,.36022,8.77445,7.6312,7.6312,0,0,1-.46194,2.61726,12.0504,12.0504,0,0,1-3.28384.30756q-3.08039.10232-7.69739.10292-4.61879,0-9.90417-.05146-5.28478-.05206-9.90177-.15318-5.44274-.10412-10.67367-.20584v-.20584H899.12q0-.5116-.15318-2.8219-.15438-2.3085-.30876-5.1304-.15258-2.8219-.30636-5.43915-.15438-2.61726-.15438-3.54113c0-.13643.13523-.30756.41048-.5134q.40928-.307.97414-.66658a4.62336,4.62336,0,0,0,.97534-.821,1.57622,1.57622,0,0,0,.41048-1.07826,1.61345,1.61345,0,0,0-.56486-1.23144,7.0346,7.0346,0,0,0-1.18-.87122,13.13483,13.13483,0,0,0-1.18-.61632c-.37577-.16994-.56486-.359-.56486-.56486q0-.20464-.15318-3.078-.15438-2.87216-.30876-7.184-.15258-4.31-.40928-9.441-.25849-5.1304-.41168-9.85271-.15258-4.71932-.30636-8.364Q895.73446,728.29338,895.73327,727.05955Z"/><path class="cls-2" d="M964.08111,726.752q3.69432,0,8.05641-.05146,4.36209-.05026,8.20959-.05146h9.49249q.718,0,1.43728,2.0524a20.09534,20.09534,0,0,1,.97534,4.56673,14.2145,14.2145,0,0,1-.20584,4.56673q-.46134,2.05359-2.20678,2.0524c-.20464,0-1.01.05146-2.41022.15438q-2.10565.15438-5.49061.359a1.73948,1.73948,0,0,1-1.43728-.92388,1.495,1.495,0,0,0-1.43728-.821c-.06821,0-.18908.12087-.359.359q-.2567.36082-.61512.821a3.99767,3.99767,0,0,1-.87242.821,1.77961,1.77961,0,0,1-1.0256.359h-6.26131q-.20644,2.97807-.30756,6.41449-.10232,3.43941-.20464,7.02961,2.46288-.20464,5.6438-.30756,3.18092-.10053,6.05547-.20584,2.87216-.10053,4.976-.05026a8.87014,8.87014,0,0,1,2.51553.2561q.61392.30876.718,2.36a39.02065,39.02065,0,0,1-.05146,4.41355,37.28961,37.28961,0,0,1-.5134,4.30944q-.36082,1.95127-.87122,1.95068-.30876,0-2.46407-.05146-2.15592-.05026-5.02867-.10292-2.874-.05026-6.004-.20464-3.13065-.15438-5.48942-.2573-.10412,3.28683-.15438,6.41449-.05385,3.13065-.15318,6.00282h6.97815a3.32682,3.32682,0,0,1,1.69338.61632q.97294.61572,1.898,1.2829.92268.66778,1.69338,1.2829a2.35778,2.35778,0,0,0,1.07826.61512,1.13925,1.13925,0,0,0,.821-.46194,10.097,10.097,0,0,0,.821-1.07706q.40928-.61572.7683-1.12852a.98293.98293,0,0,1,.7707-.5134q3.38556.20644,5.49061.359c1.40137.10292,2.20678.15438,2.41142.15438q1.743,0,2.20558,2.0524a14.21989,14.21989,0,0,1,.20584,4.56673,20.00437,20.00437,0,0,1-.97414,4.56674q-.71984,2.05359-1.43728,2.0524H951.56088v-.20584h-.718q0-.5116-.15318-2.8219-.15438-2.3085-.30876-5.1304t-.30756-5.43915q-.15438-2.61726-.15438-3.54113c0-.13643.13643-.30756.41168-.5134q.40749-.307.97414-.66658a4.58611,4.58611,0,0,0,.97414-.821,1.57735,1.57735,0,0,0,.41168-1.07826,1.61345,1.61345,0,0,0-.56486-1.23144,7.13308,7.13308,0,0,0-1.18-.87122c-.41048-.23935-.8054-.44518-1.18-.61632-.377-.16994-.56486-.359-.56486-.56486q0-.20464-.15318-3.078-.15438-2.87216-.30876-7.184-.15438-4.31-.41048-9.441-.2567-5.1304-.41048-9.85271-.15438-4.71932-.30756-8.364-.15438-3.64046-.15438-4.8743.92268-.10053,2.77163-.20584,1.84536-.10053,4.1048-.15318,2.25465-.05026,4.77257-.05146Q961.61823,726.64907,964.08111,726.752Z"/><path class="cls-2" d="M1000.61619,718.23364q2.15592-.20464,4.00307-.41048a32.57513,32.57513,0,0,1,3.5902-.20464,28.55947,28.55947,0,0,1,5.54327.61512,40.37317,40.37317,0,0,1,.56366,6.87643,47.51423,47.51423,0,0,1-.66658,8.46569,35.30146,35.30146,0,0,1-2.20678,7.80031,9.20453,9.20453,0,0,1-4.05453,4.8743,5.01349,5.01349,0,0,1-2.36.41048,8.71868,8.71868,0,0,1-2.46288-.359,2.86577,2.86577,0,0,1-1.64192-.97534q.20464-.61572.7707-2.00094.56187-1.38582,1.23024-3.0792.66778-1.69278,1.23264-3.437a20.259,20.259,0,0,0,.7683-3.0792q-1.0268-.10053-2.36-.20584a8.734,8.734,0,0,1-1.94948-.30756,33.8741,33.8741,0,0,1-.46194-3.84869q-.15438-2.20438-.10292-4.3609.05206-2.15592.20464-4.00307A22.29475,22.29475,0,0,1,1000.61619,718.23364Z"/><path class="cls-2" d="M645.32875,821.75467h10.256a7.93853,7.93853,0,0,1,2.65435.46314,7.01282,7.01282,0,0,1,2.37193,1.41813,7.17969,7.17969,0,0,1,1.72569,2.47365,8.97256,8.97256,0,0,1,.67017,3.63328,10.59722,10.59722,0,0,1-1.10818,4.897,5.81947,5.81947,0,0,1-2.80873,2.88652,7.3627,7.3627,0,0,1,1.77715,1.00406,6.9288,6.9288,0,0,1,1.521,1.624,8.05271,8.05271,0,0,1,1.05672,2.29414,11.09344,11.09344,0,0,1,.38654,3.11749.32408.32408,0,0,1-.28363.36141,3.42748,3.42748,0,0,1-.61751.05146,2.65239,2.65239,0,0,0-.645.07659.44565.44565,0,0,0-.36022.38654.50928.50928,0,0,0,.20584.51579,3.81015,3.81015,0,0,0,.59238.38654,4.05518,4.05518,0,0,1,.59238.38654.378.378,0,0,1,.15558.46433,11.883,11.883,0,0,1-1.28888,2.80873,9.32165,9.32165,0,0,1-1.98418,2.26781,9.03634,9.03634,0,0,1-2.75847,1.51985,10.70193,10.70193,0,0,1-3.607.56725H641.25627q-.72163-.05206-1.49472-.07659-.77189-.02693-1.54618-.07779V831.392c0-.06821.06941-.1448.20584-.231q.20644-.12925.49066-.33509a3.06811,3.06811,0,0,0,.48827-.438.73224.73224,0,0,0,.207-.49066.863.863,0,0,0-.28363-.669,3.541,3.541,0,0,0-.59238-.4392q-.31055-.17951-.59238-.30876c-.18908-.085-.28482-.18071-.28482-.28363s-.00718-.36022-.02513-.77309q-.02693-.61751-.07779-1.51985-.05026-.90114-.07659-1.95905-.02693-1.05552-.02633-2.03564,1.03039-.10232,3.22161-.18071Q643.05974,821.65116,645.32875,821.75467Zm7.06073,11.95656a2.64223,2.64223,0,0,0,1.77835-.59238,1.75556,1.75556,0,0,0,.6965-1.36547,3.11632,3.11632,0,0,0-.10412-.79942,1.52309,1.52309,0,0,0-.41287-.6953,2.13727,2.13727,0,0,0-.876-.48946,4.82831,4.82831,0,0,0-1.44326-.18071h-4.12275v4.12275Zm-4.38124,8.45373q.05206,1.18656.05146,2.3444v2.3456h4.63854a3.01942,3.01942,0,0,0,.90234-.15438,3.84875,3.84875,0,0,0,.92867-.438,2.72646,2.72646,0,0,0,.74676-.72163,1.70123,1.70123,0,0,0,.30876-1.00526,2.17063,2.17063,0,0,0-.72043-1.77835,3.75724,3.75724,0,0,0-2.37193-.59238Z"/><path class="cls-2" d="M676.5611,821.75467q1.85613,0,4.04735-.02633,2.19-.02513,4.12275-.02513h4.76659q.36082,0,.72283,1.03039a10.0998,10.0998,0,0,1,.48946,2.29294,7.138,7.138,0,0,1-.10412,2.29414c-.15318.68812-.52417,1.03039-1.10818,1.03039-.10292,0-.50742.02633-1.21109.07779s-1.62277.11249-2.75727.18071a.87069.87069,0,0,1-.72043-.46433.75082.75082,0,0,0-.72283-.41168c-.03351,0-.09454.05984-.17951.17951q-.12925.18131-.30876.41287a2.08447,2.08447,0,0,1-.438.41168.89794.89794,0,0,1-.517.18071h-3.14262q-.10412,1.49532-.15558,3.22161-.05026,1.72689-.10292,3.53036,1.23682-.10232,2.83506-.15438,1.59584-.05026,3.0409-.10292,1.44326-.05206,2.49878-.02633a4.47474,4.47474,0,0,1,1.26375.12925q.30876.15438.36141,1.18477a19.54509,19.54509,0,0,1-.02633,2.21635,19.06744,19.06744,0,0,1-.25849,2.16489q-.17951.98012-.438.98012c-.10292,0-.5146-.00838-1.23742-.02633q-1.08065-.02513-2.52511-.05146-1.44326-.02513-3.01457-.10292-1.5743-.07719-2.75847-.12925-.05026,1.6497-.07659,3.22161-.02513,1.57251-.07659,3.01457h3.504a1.6768,1.6768,0,0,1,.85088.31q.49006.30876.9538.64384.46314.33568.84968.645a1.19082,1.19082,0,0,0,.54092.30876.57374.57374,0,0,0,.41287-.23217,5.09407,5.09407,0,0,0,.41287-.54092c.13643-.20584.26567-.39492.38535-.56725a.495.495,0,0,1,.38774-.2573q1.7.10412,2.75727.18071c.70368.05146,1.10818.07659,1.21109.07659q.876,0,1.10818,1.03158a7.16826,7.16826,0,0,1,.10292,2.29294,9.95458,9.95458,0,0,1-.49066,2.29414c-.23935.68692-.48109,1.03039-.72043,1.03039H670.27346v-.10292H669.912q0-.2567-.07659-1.41813-.07719-1.15963-.15438-2.57657-.07719-1.41633-.15438-2.73214-.079-1.314-.07779-1.77715c0-.06941.06821-.15558.207-.25849q.20464-.15438.48827-.33509a2.33207,2.33207,0,0,0,.49066-.41168.7931.7931,0,0,0,.20584-.54092.81222.81222,0,0,0-.28363-.61871,3.53268,3.53268,0,0,0-.59238-.438,6.49277,6.49277,0,0,0-.59358-.31c-.18908-.085-.28243-.18071-.28243-.28363q0-.10232-.07779-1.54618-.07719-1.44147-.15438-3.60815-.079-2.1631-.20584-4.74146-.12925-2.576-.207-4.9473-.07719-2.37133-.15438-4.20053t-.07659-2.44852q.46314-.05026,1.3906-.10292.92807-.05206,2.062-.07779,1.13271-.02513,2.39706-.02513Q675.32428,821.70322,676.5611,821.75467Z"/><path class="cls-2" d="M696.1995,821.90905q.71984-.10232,2.36953-.15438t3.50523-.05146q1.59764,0,3.09356.05146,1.49352.05206,2.57537.15438,0,.15438-.05026,1.46839-.05385,1.314-.12925,3.376-.07719,2.06257-.17951,4.69-.10412,2.62982-.207,5.48942-.10412,2.86139-.207,5.72158-.10232,2.85959-.15318,5.33384h3.504a1.6768,1.6768,0,0,1,.85088.31q.49006.30876.9538.64384.46314.33568.84968.645a1.19082,1.19082,0,0,0,.54092.30876.57374.57374,0,0,0,.41287-.23217,5.09405,5.09405,0,0,0,.41287-.54092c.13643-.20584.26567-.39492.38535-.56725a.495.495,0,0,1,.38774-.2573c.72043.06941,1.3906.1113,2.00932.12925q.92807.02513,1.44326.07659.41108,0,.56725.97893a20.84678,20.84678,0,0,1,.18071,4.40757,3.84875,3.84875,0,0,1-.23217,1.314,6.08508,6.08508,0,0,1-1.6491.15438q-1.54738.05026-3.86545.05146-2.31927,0-4.97362-.02513-2.65675-.02693-4.97362-.07779-2.73394-.05206-5.36137-.10292v-.10292h-.36141q0-.2567-.07659-1.41813-.07719-1.15963-.15438-2.57657-.07719-1.41633-.15438-2.73214-.079-1.314-.07779-1.77715c0-.06941.06821-.15558.207-.25849q.20464-.15438.48827-.33509a2.33207,2.33207,0,0,0,.49066-.41168.7931.7931,0,0,0,.20584-.54092.81222.81222,0,0,0-.28363-.61871,3.53268,3.53268,0,0,0-.59238-.438,6.49279,6.49279,0,0,0-.59358-.31c-.18908-.085-.28243-.18071-.28243-.28363q0-.10232-.07779-1.54618-.07719-1.44147-.15438-3.60815-.079-2.1631-.20584-4.74146-.12925-2.576-.207-4.9473-.07719-2.37133-.15438-4.20053T696.1995,821.90905Z"/><path class="cls-2" d="M722.17579,821.90905q.72163-.10232,2.37073-.15438,1.6497-.05206,3.50523-.05146,1.59764,0,3.09236.05146,1.49352.05206,2.57657.15438,0,.15438-.05146,1.46839-.05206,1.314-.12925,3.376-.07539,2.06257-.17951,4.69-.10412,2.62982-.20584,5.48942-.10412,2.86139-.207,5.72158-.10232,2.85959-.15438,5.33384h3.504a1.6803,1.6803,0,0,1,.85207.31q.48827.30876.9526.64384c.30876.22379.59358.438.84968.645a1.1926,1.1926,0,0,0,.54212.30876.57582.57582,0,0,0,.41287-.23217,5.093,5.093,0,0,0,.41168-.54092q.20464-.30876.38654-.56725a.495.495,0,0,1,.38654-.2573c.72163.06941,1.3918.1113,2.01051.12925q.92627.02513,1.44326.07659.41108,0,.56725.97893a19.77189,19.77189,0,0,1,.20584,2.16489,19.49995,19.49995,0,0,1-.02633,2.24268,3.818,3.818,0,0,1-.23217,1.314,6.07619,6.07619,0,0,1-1.6491.15438q-1.54738.05026-3.86545.05146-2.31927,0-4.97362-.02513-2.65675-.02693-4.97362-.07779-2.73214-.05206-5.36137-.10292v-.10292h-.36022q0-.2567-.07779-1.41813c-.05026-.77309-.10292-1.63115-.15318-2.57657q-.079-1.41633-.15558-2.73214-.07719-1.314-.07659-1.77715c0-.06941.06821-.15558.20584-.25849.13643-.10292.30038-.21422.48946-.33509a2.32468,2.32468,0,0,0,.48946-.41168.7931.7931,0,0,0,.20584-.54092.811.811,0,0,0-.28243-.61871,3.54077,3.54077,0,0,0-.59358-.438,6.63892,6.63892,0,0,0-.59238-.31c-.18908-.085-.28363-.18071-.28363-.28363q0-.10232-.07659-1.54618-.079-1.44147-.15558-3.60815-.07719-2.1631-.20584-4.74146-.12925-2.576-.20584-4.9473-.079-2.37133-.15558-4.20053Q722.177,822.52836,722.17579,821.90905Z"/><path class="cls-2" d="M748.15209,821.90905q.72163-.10232,2.37193-.15438,1.6479-.05206,3.504-.05146,1.59764,0,3.09236.05146,1.49532.05206,2.57776.15438v4.4327a.631.631,0,0,1-.33509.48946c-.225.15438-.46433.32671-.72163.51579a8.48624,8.48624,0,0,0-.6953.56605.80946.80946,0,0,0-.31.59358.75867.75867,0,0,0,.2573.59238,5.82924,5.82924,0,0,0,.59358.46314,6.11034,6.11034,0,0,1,.61751.49066.86471.86471,0,0,1,.28482.67017q-.10412,3.2976-.23217,6.88-.12925,3.583-.25849,6.88122-.12925,3.29939-.20584,6.004-.07719,2.707-.07659,4.252a26.46644,26.46644,0,0,1-3.94443.54212,36.1008,36.1008,0,0,1-4.818-.07779q0-.2567-.07779-1.41693-.07719-1.15963-.15438-2.57776-.07719-1.41633-.15558-2.73095-.07539-1.31581-.07659-1.82981c0-.06941.06941-.146.20584-.23217.13643-.085.30158-.19746.49066-.33509a3.06811,3.06811,0,0,0,.48827-.438.72721.72721,0,0,0,.207-.48946.86376.86376,0,0,0-.28363-.67017,3.49283,3.49283,0,0,0-.59358-.438,6.62572,6.62572,0,0,0-.59119-.31c-.18908-.085-.28482-.17951-.28482-.28363q0-.10232-.07659-1.54618-.07719-1.44147-.15438-3.63328-.07719-2.19-.207-4.76779-.12925-2.576-.20584-4.9473-.07719-2.37133-.15438-4.1754T748.15209,821.90905Z"/><path class="cls-2" d="M774.02547,822.06343l7.11338,12.06068q-.05385-1.85613.02513-3.94324.07719-2.0877.18071-3.91691.10232-1.82921.17951-3.0409c.05266-.8066.07779-1.22785.07779-1.26255q.66957-.10232,2.11343-.18071,1.44147-.07719,3.09236-.07659,1.28709,0,2.44852.05146a13.14071,13.14071,0,0,1,1.93272.20584c0,.03471-.00957.32671-.02633.876q-.02513.82575-.07659,2.01051-.05206,1.18656-.07779,2.55144-.02693,1.36607-.07779,2.55024-.05026,1.18656-.07659,2.01051-.02693.82575-.02633.92747c0,.06941-.09454.17233-.28243.31q-.28363.20644-.645.438a6.81372,6.81372,0,0,0-.64384.46314.61924.61924,0,0,0-.28363.4392c0,.10292.08616.22379.25849.36022q.2549.20644.56605.438c.207.15438.39492.30158.56725.438.17113.13762.2573.24054.2573.31,0,.03471-.02633.5146-.07659,1.44326q-.079,1.3912-.18071,3.45258-.10412,2.06257-.23217,4.48416-.12925,2.42339-.23217,4.48416-.10232,2.06257-.18071,3.50523-.07539,1.44326-.07659,1.54618c0,.06941-.41168.12087-1.23742.15438q-1.23682.05206-2.68068.05146-1.33914,0-2.36953-.05146-1.03218-.05026-1.03158-.15438L775.26289,843.041q-.10412,1.80408-.23217,3.63328-.12925,1.831-.25849,3.40231-.12925,1.57251-.20584,2.73095c-.05146.77309-.07659,1.34992-.07659,1.72689a27.086,27.086,0,0,1-3.60815.48946,35.766,35.766,0,0,1-4.48416-.02513q0-.25849-.05146-1.41813-.05206-1.15963-.12925-2.57657-.07719-1.41633-.15438-2.70581-.07719-1.28888-.07659-1.80467c0-.06821.067-.1448.20584-.231a3.45915,3.45915,0,0,0,.438-.33509,5.40235,5.40235,0,0,0,.438-.438.73635.73635,0,0,0,.20584-.49066.90842.90842,0,0,0-.2573-.669,2.78149,2.78149,0,0,0-.56725-.4392c-.20584-.11967-.39612-.22259-.56605-.30876-.17233-.085-.25849-.18071-.25849-.28363q0-.10232-.05146-1.54618-.05206-1.44147-.15438-3.60815-.10412-2.16489-.18071-4.71513-.07719-2.55263-.18071-4.87071-.10412-2.31927-.15438-4.09762-.05206-1.77894-.05146-2.39706a18.6455,18.6455,0,0,1,1.90759-.15438q1.235-.05026,2.73095-.05146,1.18477,0,2.37073.05146Q773.04714,821.96111,774.02547,822.06343Z"/><path class="cls-2" d="M795.05447,849.01985a20.33558,20.33558,0,0,1,.97893-2.0871q.56725-1.05731,1.23742-2.24268c.10292-.13643.29918-.07779.59238.18071.29081.2573.60914.55887.9538.90114q.5134.517,1.00526.9538c.32551.2932.54092.4045.64384.33509.10292-.06821.085-.36859-.05146-.90234q-.20644-.797-.54212-1.77715c-.22259-.65222-.42125-1.26375-.59119-1.82981-.17233-.56725-.225-.90234-.15558-1.00526q1.03039-1.6497,2.24268-3.29939,1.2099-1.6479,2.39586-3.14382,1.18477-1.49352,2.21635-2.83386,1.03039-1.34094,1.70176-2.42339-2.01051-.05026-4.07248-.10292-2.06257-.05026-3.76253-.10292-1.7-.05026-2.80873-.10292a5.66271,5.66271,0,0,1-1.15963-.10292q-.15617-.10232-.207-1.314-.05026-1.21169-.02513-2.62922.02513-1.41633.12805-2.57657.10412-1.15963.25849-1.21109a5.46425,5.46425,0,0,1,.97893-.07779q.82575-.02513,2.062-.05146,1.23682-.02513,2.80873-.02633h7.98939q2.39646,0,4.35491.02633,1.95845.02693,3.24674.05146a7.35557,7.35557,0,0,1,1.34034.07779c.13643.06821.17233.75514.10292,2.06078a2.9081,2.9081,0,0,1-.876.12925q-.876.07719-1.93272.15438-1.05731.07719-1.93272.15438a2.95784,2.95784,0,0,0-.876.12925q0,.10412.84968.30876c.56725.13882,1.20391.28363,1.90759.4392q1.05552.23157,1.90759.438c.56725.13762.84968.24054.84968.30876-.03351.61871-.06941,1.09142-.10292,1.41693a2.35242,2.35242,0,0,1-.20584.79942,51.7642,51.7642,0,0,1-2.65435,4.74146q-1.52224,2.42339-3.09236,4.81925-1.57251,2.39646-3.06723,4.66487-1.49532,2.269-2.62922,4.38124,2.16489.05206,4.32978.10292,2.16489.05206,3.91811.10292,1.752.05206,2.88652.10292a6.16163,6.16163,0,0,1,1.18477.10292q.10232.05206.15438.6965c.03471.42963.06821.9526.10412,1.57131q.05026.92807.05026,1.95905,0,1.03039-.02513,1.93272c-.018.602-.05146,1.10818-.10412,1.51985-.05026.41287-.1113.63547-.17951.67017-.03471,0-.21541.00838-.54092.02633-.3279.01675-.73.02513-1.21109.02513h-1.59884q-.876,0-1.752.05146c-.17233,0-.30876-.12087-.41168-.36022a6.46239,6.46239,0,0,1-.28363-.82455,4.63723,4.63723,0,0,0-.31-.82455.54551.54551,0,0,0-.48946-.36141.91135.91135,0,0,0-.64384.38654c-.22379.25849-.456.54092-.6953.85088q-.36261.46314-.6965.85088a.94221.94221,0,0,1-.6965.38654h-5.33384q-2.70522,0-4.94849-.02633-2.24029-.02693-3.65961-.05146a4.4359,4.4359,0,0,1-1.46839-.12925v-.10292a10.35767,10.35767,0,0,1-.10292-2.062c.03471-.68692.085-1.32239.15438-1.9064s.13643-1.083.20584-1.49472C794.96831,849.43153,795.01977,849.15748,795.05447,849.01985Z"/><path class="cls-2" d="M821.23661,854.89582a13.29862,13.29862,0,0,1,.30876-1.54618q.30876-1.34094.85088-3.42864.54033-2.08591,1.21109-4.76659.66957-2.68008,1.3918-5.51574.72163-2.83267,1.3906-5.69525.67137-2.85959,1.23742-5.28238a.8735.8735,0,0,1,.36141-.36141q.30876-.20464.64384-.38654c.22259-.11967.438-.23935.64384-.36022a.7595.7595,0,0,0,.36141-.33509.86088.86088,0,0,0-.10292-.54092c-.10292-.22379-.21541-.456-.33509-.6965q-.18131-.359-.33509-.67017a.76511.76511,0,0,1-.10292-.5146q.41287-1.44326.67017-2.26781c.17113-.5493.292-.82455.36022-.82455h11.339a5.9742,5.9742,0,0,1,.61871,2.03564q.46493,2.03564,1.083,5.23092.61751,3.19707,1.36547,7.13852.745,3.94384,1.46839,7.75723a1.69961,1.69961,0,0,1-.10292.79942,9.33533,9.33533,0,0,1-.36141.876q-.20464.438-.36022.876a1.52806,1.52806,0,0,0-.10292.74676,1.32806,1.32806,0,0,0,.38655.56725,4.93757,4.93757,0,0,0,.59358.46433c.20584.13762.4021.27525.59119.41168a.783.783,0,0,1,.33509.51579q.46493,2.47365.748,4.07129c.18789,1.06629.28363,1.63234.28363,1.70176q0,.20644-1.314.2573-1.314.05206-3.01577.05146-.98012,0-1.98418-.02633-1.00526-.02513-1.80467-.05146a10.74524,10.74524,0,0,1-1.28769-.10292c-.3279-.05146-.48946-.09335-.48946-.12805q0-.20644-.15438-1.57251-.15438-1.36428-.41287-3.53036H832.2657q-.30876,2.269-.5146,3.63328c-.13882.91071-.20584,1.40018-.20584,1.46959,0,.03471-.1472.06821-.438.10292q-.4398.05206-1.16083.07659-.72163.02693-1.6491.05146-.92627.02693-1.90759.02633-.97833,0-1.9064-.02633-.92807-.02513-1.6491-.05146c-.48228-.01675-.86763-.04189-1.15963-.07659S821.23661,854.93052,821.23661,854.89582Zm15.05012-13.81389q-.36261-2.26721-.79942-4.53562-.438-2.26721-.84968-4.4327-.36261,2.16489-.748,4.4327-.38595,2.269-.79822,4.53562Z"/><path class="cls-2" d="M849.22342,836.44338a21.79587,21.79587,0,0,1,1.03039-7.29289,12.41419,12.41419,0,0,1,3.14382-4.87071c.10292-.10292.30158-.11967.59358-.05146.29081.06941.61751.146.97893.23217s.68692.16276.97893.23217a.8403.8403,0,0,0,.59358,0,1.46329,1.46329,0,0,0-.02633-.59358c-.05146-.29081-.11249-.59238-.18071-.90114q-.10232-.46493-.18071-.85088c-.05026-.2573-.04308-.4033.02633-.438a10.68781,10.68781,0,0,1,3.066-1.36547,12.78027,12.78027,0,0,1,3.17015-.38774,15.83209,15.83209,0,0,1,5.3865.79942,11.40336,11.40336,0,0,1,3.63328,2.062,9.57783,9.57783,0,0,1,2.26781,2.88652,14.496,14.496,0,0,1,1.21229,3.2982,18.5409,18.5409,0,0,1,.46314,3.19528q.07719,1.52045.07779,2.65435c0,.13762-.13882.25849-.41287.36141a5.57294,5.57294,0,0,1-1.05672.2573c-.43082.06941-.91071.12087-1.44326.15438q-.80061.05206-1.62277.05146a16.832,16.832,0,0,1-2.62922-.17951c-.75634-.12087-1.13331-.30038-1.13331-.54212a8.45861,8.45861,0,0,0-1.03158-4.61221,3.45136,3.45136,0,0,0-3.09236-1.57251,3.142,3.142,0,0,0-2.39586.9538,6.53023,6.53023,0,0,0-1.393,2.31927,12.23078,12.23078,0,0,0-.64384,2.91165q-.15438,1.54738-.15438,2.7836a32.79606,32.79606,0,0,0,.36022,5.36017,11.51239,11.51239,0,0,0,.97893,3.29939,3.878,3.878,0,0,0,1.44326,1.6491,3.52844,3.52844,0,0,0,1.75321.46314,5.61521,5.61521,0,0,0,3.4789-.90114,2.88437,2.88437,0,0,0,1.15963-2.39706q-.41287,0-1.752.05146a10.00331,10.00331,0,0,1-2.5263-.20584V839.5872c0-.06821.146-.13643.438-.20584a7.83787,7.83787,0,0,1,1.186-.15438q.74676-.05026,1.70056-.07779.955-.02513,1.98418-.02513,1.34094,0,2.65435.05146,1.314.05206,2.37193.12805a11.72811,11.72811,0,0,1,1.72569.23217c.44758.10292.67017.20584.67017.31a28.11588,28.11588,0,0,1-.82455,6.98294,19.38693,19.38693,0,0,1-2.00932,5.18066.49067.49067,0,0,1-.41287.20584,3.02993,3.02993,0,0,1-1.23623-.33509c-.48228-.22259-.8425-.23217-1.083-.02513a1.03846,1.03846,0,0,0,.10292.59238c.10292.2573.21422.51579.33509.77309a5.617,5.617,0,0,1,.28363.72163.37965.37965,0,0,1-.15558.48946,11.75874,11.75874,0,0,1-3.5555,1.70056,14.10679,14.10679,0,0,1-4.07248.61871,16.32848,16.32848,0,0,1-5.69406-.876,11.43408,11.43408,0,0,1-3.94324-2.39706,11.06143,11.06143,0,0,1-2.5-3.53036,20.57457,20.57457,0,0,1-1.36667-4.252,30.89837,30.89837,0,0,1-.59119-4.63854Q849.22341,838.66033,849.22342,836.44338Z"/><path class="cls-2" d="M878.65349,837.9381a32.1658,32.1658,0,0,1,.54092-6.26251,18.58729,18.58729,0,0,1,1.51985-4.66367.68616.68616,0,0,1,.438-.38654,5.42531,5.42531,0,0,1,.645-.12925c.24054-.03351.47989-.05984.72163-.07779a1.37493,1.37493,0,0,0,.61751-.17951,5.96817,5.96817,0,0,0-.02513-1.6503,1.52425,1.52425,0,0,1,.28363-1.33914,10.734,10.734,0,0,1,4.09762-2.39706,15.29545,15.29545,0,0,1,4.56195-.6965,11.68647,11.68647,0,0,1,9.86946,4.74265q3.58122,4.74265,3.58182,14.07a38.41667,38.41667,0,0,1-.20584,4.04616,26.19882,26.19882,0,0,1-.67017,3.7374,1.53459,1.53459,0,0,1-.59238,1.10818,6.05041,6.05041,0,0,1-1.15963.84968c0,.207.00718.46433.02633.77309a5.73571,5.73571,0,0,1-.02633.92867c-.03471.30876-.06941.57563-.10292.79822a.61748.61748,0,0,1-.20584.438,11.51118,11.51118,0,0,1-4.12394,3.7374,13.35224,13.35224,0,0,1-6.39056,1.36547q-6.95781,0-10.17942-4.76779Q878.65109,847.217,878.65349,837.9381Zm13.91562,10.7718a3.64345,3.64345,0,0,0,1.44326-.30876,2.7551,2.7551,0,0,0,1.26375-1.36547,11.022,11.022,0,0,0,.876-3.06723,34.98336,34.98336,0,0,0,.33509-5.46309q0-1.752-.12925-3.4789a13.0267,13.0267,0,0,0-.56725-3.06723,5.27442,5.27442,0,0,0-1.314-2.19,3.33229,3.33229,0,0,0-2.42219-.85088q-1.96025,0-2.75727,2.29414a24.27922,24.27922,0,0,0-.79942,7.34435q0,1.85613.05146,3.68474a14.1951,14.1951,0,0,0,.438,3.27307,5.32388,5.32388,0,0,0,1.21109,2.31927A3.09459,3.09459,0,0,0,892.5691,848.7099Z"/><path class="cls-2" d="M921.48338,836.59776a24.78,24.78,0,0,1,1.083-7.26657,22.46446,22.46446,0,0,1,3.0397-6.36543,18.291,18.291,0,0,1,4.71752-4.6912,13.177,13.177,0,0,1,6.10693-2.24148,2.68071,2.68071,0,0,1,.72163.876,5.68771,5.68771,0,0,1,.48946,1.23742,9.19151,9.19151,0,0,1,.2573,1.28888,2.84886,2.84886,0,0,1-.02513,1.03039,11.58512,11.58512,0,0,0-2.21635,2.19,13.51246,13.51246,0,0,0-1.9064,3.45377,25.95449,25.95449,0,0,0-1.34034,5,39.19021,39.19021,0,0,0-.51579,6.7771,31.46645,31.46645,0,0,0,.645,6.80343,24.19944,24.19944,0,0,0,1.54618,4.84438,12.56643,12.56643,0,0,0,1.88127,3.06723,6.68237,6.68237,0,0,0,1.6491,1.46839c.10292.06941.13643.30158.10292.6965a8.548,8.548,0,0,1-.20584,1.23742,8.28833,8.28833,0,0,1-.38774,1.21109c-.15318.377-.28243.56605-.38535.56605a16.49341,16.49341,0,0,1-6.57246-2.42219,16.95823,16.95823,0,0,1-4.79292-4.66367,20.80461,20.80461,0,0,1-2.91165-6.41688A29.18768,29.18768,0,0,1,921.48338,836.59776Z"/><path class="cls-2" d="M950.19182,822.06343l7.11219,12.06068q-.05206-1.85613.02513-3.94324.079-2.0877.1819-3.91691.10053-1.82921.17951-3.0409.07719-1.2099.07659-1.26255.67137-.10232,2.11343-.18071,1.44326-.07719,3.09236-.07659,1.28888,0,2.44852.05146a13.17784,13.17784,0,0,1,1.93392.20584c0,.03471-.00957.32671-.02633.876q-.02693.82575-.07779,2.01051-.05206,1.18656-.07779,2.55144-.02513,1.36607-.07659,2.55024-.05206,1.18656-.07659,2.01051c-.01915.5505-.02633.85925-.02633.92747,0,.06941-.09574.17233-.28363.31q-.28363.20644-.645.438a7.13868,7.13868,0,0,0-.64384.46314.6209.6209,0,0,0-.28243.4392c0,.10292.085.22379.2573.36022q.2567.20644.56605.438c.207.15438.39492.30158.56725.438.17233.13762.25849.24054.25849.31,0,.03471-.02633.5146-.07779,1.44326q-.07719,1.3912-.18071,3.45258-.10412,2.06257-.23217,4.48416-.12925,2.42339-.23217,4.48416-.10232,2.06257-.17951,3.50523-.07719,1.44326-.07659,1.54618,0,.10412-1.23742.15438-1.23862.05206-2.68068.05146-1.34094,0-2.37073-.05146c-.68812-.03351-1.03039-.085-1.03039-.15438L951.428,843.041q-.10232,1.80408-.231,3.63328-.12925,1.831-.25849,3.40231-.12925,1.57251-.20584,2.73095c-.05266.77309-.07779,1.34992-.07779,1.72689a27.05931,27.05931,0,0,1-3.60815.48946,35.747,35.747,0,0,1-4.483-.02513c0-.17233-.01915-.645-.05266-1.41813s-.07659-1.63115-.12925-2.57657c-.05026-.94422-.10292-1.84656-.15318-2.70581q-.079-1.28888-.07779-1.80467c0-.06821.06821-.1448.20584-.231a3.381,3.381,0,0,0,.4392-.33509,5.81726,5.81726,0,0,0,.438-.438.73635.73635,0,0,0,.20584-.49066.90456.90456,0,0,0-.25849-.669,2.78149,2.78149,0,0,0-.56725-.4392q-.30876-.17951-.56606-.30876c-.17233-.085-.2573-.18071-.2573-.28363,0-.06821-.01915-.584-.05266-1.54618q-.05026-1.44147-.15438-3.60815-.10232-2.16489-.18071-4.71513-.07539-2.55263-.17951-4.87071-.10412-2.31927-.15558-4.09762-.05026-1.77894-.05026-2.39706a18.64693,18.64693,0,0,1,1.9064-.15438q1.23682-.05026,2.73214-.05146,1.18477,0,2.36953.05146Q949.21229,821.96111,950.19182,822.06343Z"/><path class="cls-2" d="M971.21962,837.9381a32.159,32.159,0,0,1,.54212-6.26251,18.539,18.539,0,0,1,1.51985-4.66367.68616.68616,0,0,1,.438-.38654,5.40251,5.40251,0,0,1,.64384-.12925q.36082-.05026.72283-.07779a1.37493,1.37493,0,0,0,.61751-.17951,5.92606,5.92606,0,0,0-.02633-1.6503,1.52414,1.52414,0,0,1,.28482-1.33914,10.71624,10.71624,0,0,1,4.09762-2.39706,15.28184,15.28184,0,0,1,4.56075-.6965,11.685,11.685,0,0,1,9.86946,4.74265q3.583,4.74265,3.583,14.07a38.41667,38.41667,0,0,1-.20584,4.04616,26.36747,26.36747,0,0,1-.67017,3.7374,1.53219,1.53219,0,0,1-.59358,1.10818,6.045,6.045,0,0,1-1.15844.84968c0,.207.00718.46433.02513.77309a5.7351,5.7351,0,0,1-.02513.92867c-.0359.30876-.06941.57563-.10412.79822a.61748.61748,0,0,1-.20584.438,11.50756,11.50756,0,0,1-4.12275,3.7374,13.36056,13.36056,0,0,1-6.39175,1.36547q-6.95781,0-10.17942-4.76779Q971.219,847.217,971.21962,837.9381Zm13.91681,10.7718a3.6478,3.6478,0,0,0,1.44326-.30876,2.74837,2.74837,0,0,0,1.26255-1.36547,10.94045,10.94045,0,0,0,.876-3.06723,34.83587,34.83587,0,0,0,.33509-5.46309q0-1.752-.12925-3.4789a13.09041,13.09041,0,0,0-.56605-3.06723,5.28884,5.28884,0,0,0-1.31521-2.19,3.33229,3.33229,0,0,0-2.42219-.85088q-1.95845,0-2.75727,2.29414a24.32671,24.32671,0,0,0-.79822,7.34435q0,1.85613.05026,3.68474a14.1951,14.1951,0,0,0,.438,3.27307,5.33643,5.33643,0,0,0,1.21109,2.31927A3.09738,3.09738,0,0,0,985.13644,848.7099Z"/><path class="cls-2" d="M1001.37132,816.03309a13.19121,13.19121,0,0,1,6.10813,2.24148,18.28205,18.28205,0,0,1,4.71513,4.6912,22.50147,22.50147,0,0,1,3.0421,6.36543,24.85851,24.85851,0,0,1,1.08185,7.26657,29.238,29.238,0,0,1-.97893,7.68064,20.86251,20.86251,0,0,1-2.91285,6.41688,16.95823,16.95823,0,0,1-4.79292,4.66367,16.488,16.488,0,0,1-6.57126,2.42219q-.15438,0-.38774-.56605a8.58585,8.58585,0,0,1-.38535-1.21109,8.38717,8.38717,0,0,1-.20584-1.23742c-.0359-.39492,0-.62709.10292-.6965a6.76885,6.76885,0,0,0,1.6491-1.46839,12.64042,12.64042,0,0,0,1.88126-3.06723,24.5119,24.5119,0,0,0,1.54618-4.84438,31.62415,31.62415,0,0,0,.64384-6.80343,39.439,39.439,0,0,0-.51459-6.7771,26.30633,26.30633,0,0,0-1.34034-5,13.5862,13.5862,0,0,0-1.90759-3.45377,11.58512,11.58512,0,0,0-2.21635-2.19,2.87277,2.87277,0,0,1-.02633-1.03039,9.55826,9.55826,0,0,1,.25849-1.28888,4.96054,4.96054,0,0,1,.5146-1.23742A3.48913,3.48913,0,0,1,1001.37132,816.03309Z"/><path class="cls-1" d="M480.31689,642.365l4.28084-52.4531L473.53963,539.908l-5.9649,24.13146-1.24992-45.13122-11.75591-40.53284-9.6301,23.99554L433.90514,460.0584l-13.55732-29.31173-7.96475,18.72184-24.45493-40.5839L358.648,404.76189l-7.85513-8.78133H291.19973l-7.85513,8.78133-29.28014,4.12272-24.45493,40.5839-7.96475-18.72184L208.08745,460.0584l-11.03367,42.31252-9.6301-23.99554-11.75591,40.53284-1.24992,45.13122L168.453,539.908l-11.0581,50.00389,4.28084,52.4531-16.06982-8.73463,7.07339,44.55631,17.71092,45.82148,5.867,37.97559,34.60947,26.74685q4.612,3.94349,9.56941,7.39545l.06936.05361.00133-.00532c27.23,18.96339,61.92587,27.04615,99.75871,27.24891v.00964c.24425,0,.48681-.00417.7308-.00482.244.00065.48655.00482.7308.00482v-.00964c37.83284-.20277,72.52872-8.28553,99.75871-27.24891l.00133.00532.06936-.05361q4.95362-3.45477,9.56941-7.39545l34.60947-26.74685,5.867-37.97559,17.71092-45.82148,7.07339-44.55631Z"/><polygon class="cls-3" points="172.096 581.08 206.733 650.724 172.675 646.221 169.868 602.614 172.096 581.08"/><polygon class="cls-3" points="248.79 549.989 266.063 499.609 295.283 550.276 271.101 581.08 248.79 549.989"/><polygon class="cls-3" points="453.216 514.863 455.935 530.282 455.935 553.754 446.814 533.864 453.216 514.863"/><polygon class="cls-3" points="394.508 548.025 377.909 499.609 349.828 548.301 373.067 577.904 394.508 548.025"/><polygon class="cls-3" points="398.191 631.514 384.341 604.138 365.675 628.414 382.376 621.537 398.191 631.514"/><polygon class="cls-3" points="323.226 523.141 311.28 539.117 287.921 500.1 323.598 447.699 358.532 496.755 333.96 536.715 323.226 523.141"/><polygon class="cls-3" points="290.648 420.699 264.297 436.902 267.502 420.788 245.602 453.016 260.476 479.653 268.125 469.454 275.656 478.439 298.47 445.436 290.648 420.699"/><polygon class="cls-3" points="354.847 420.699 381.198 436.902 377.993 420.788 399.893 453.016 385.018 479.653 377.37 469.454 369.839 478.439 347.025 445.436 354.847 420.699"/><polygon class="cls-3" points="407.414 525.867 421.973 507.219 431.746 521.84 424.242 478.603 417.107 467.883 400.834 496.875 407.414 525.867"/><polygon class="cls-3" points="193.017 580.054 218.099 537.926 254.409 598.607 230.76 607.045 217.67 588.814 204.899 600.456 193.017 580.054"/><polygon class="cls-3" points="235.432 529.432 220.23 505.36 209.482 521.439 217.734 473.89 225.582 462.101 243.477 493.984 235.432 529.432"/><polygon class="cls-3" points="191.112 513.536 188.3 529.481 188.3 553.754 197.733 533.185 191.112 513.536"/><polygon class="cls-1" points="245.541 394.709 209.482 340.449 172.723 331.139 74.354 417.612 111.111 258.901 121.17 258.901 119.912 248.177 140.031 256.386 140.031 248.177 239.614 252.066 262.105 253.871 226.289 203.576 224.933 139.449 301.601 187.665 327.099 123.103 391.874 73.529 392.093 211.491 385.776 271.889 473.658 268.501 467.476 278.449 479.527 277.016 473.658 287.846 488.925 283.342 531.714 348.083 537.632 417.612 473.658 362.839 430.381 346.122 375.064 394.709 245.541 394.709"/><polygon class="cls-4" points="271.523 312.314 267.288 271.218 152.583 261.993 162.774 278.831 133.831 265.18 142.237 278.831 121.545 267.692 93.094 384.753 158.691 300.134 148.703 281.954 166.162 290.51 231.67 292.436 271.523 312.314"/><polygon class="cls-4" points="301.756 368.334 287.079 265.407 299.365 256.174 282.553 258.935 237.567 200.3 237.567 180.52 246.367 180.52 234.057 170.82 234.057 159.828 296.132 200.3 293.816 219.317 299.365 208.37 299.365 225.783 305.993 208.37 342.688 263.231 353.868 302.026 353.868 368.334 338.69 312.04 333.77 347.778 320.996 284.84 320.996 351.425 305.92 315.215 301.756 368.334"/><polygon class="cls-4" points="315.53 187.632 333.851 135.903 342.041 141.076 333.851 130.73 347.861 135.903 340.102 124.911 380.838 95.166 380.838 177.933 367.259 159.828 380.838 192.159 367.906 174.053 374.803 200.3 362.086 188.279 374.803 213.497 363.508 291.31 348.184 238.031 315.53 187.632"/><polygon class="cls-4" points="370.507 340.449 374.803 311.136 381.933 284.84 453.259 284.84 444.638 293.462 462.743 286.996 454.121 296.91 475.783 296.91 517.921 346.484 507.575 355.106 522.444 354.016 526.542 396.058 502.894 358.04 445.372 316.966 452.304 306.334 437.631 316.74 400.668 311.136 370.507 340.449"/><path class="cls-1" d="M575.57255,730.189l-28.96089,2.3578-5.88219-63.91832,16.43577-2.17944-11.02645-37.0746,3.29957-26.95155-58.02254-8.24771-5.73194-5.11212-37.19571-.98994-3.2181-12.8029-50.85283,13.98724-55.68-3.3337L300.73573,563.957l-29.90883,42.53489-19.91372,5.05038,2.80631-8.59238L86.16092,642.53541l21.30362,139.96838,8.23993,11.04734,20.81307,146.95652,33.0901-37.142-1.31477,15.6406,3.12008,8.0267-9.42433,82.11428,82.24244-44.78489,3.99512,2.97093,42.94311-26.92977L508.658,874.94616l17.06985,6.81137,9.79776-57.03541,3.61947-6.12416,2.89911-18.08079,24.6049-3.94761-2.53672-22.71672Z"/><path class="cls-5" d="M274.252,631.27759,233.92028,749.82093l64.08036,38.88755-19.4503,9.36993,2.15772,24.11841-52.22342-14.99576-9.54115,3.13627-32.23234-8.85263-1.38493,64.51768-12.76083-9.93193L155.463,875.2652,141.8033,778.81712l-8.01665-10.74855-16.294-107.06027,98.34-23.23235-2.96212,9.06882Zm-54.49316,56.95287-45.69979,14.66583,3.80288,45.16253,3.08489,3.63275,14.85445-9.79083,16.23225-44.66687,5.77307-2.07725Z"/><path class="cls-5" d="M424.18442,607.96136l-9.35488,42.10416-3.6191,7.58916L384.24944,757.7,347.597,761.02647l-5.11329-3.64371-67.54656,5.111-.577-14.63441-12.99753-4.958,27.1416-73.35766-.77718-9.32374,29.76554-68.28757,20.10487,13.39037,17.02492.412L303.21249,718.6352l37.63865,7.35766,22.51366-.77742L366.6239,700.231l-2.17174-10.82234,18.75848-76.56272,14.46224,5.53572Z"/><path class="cls-5" d="M534.94747,643.10221,469.24786,651.815l-25.559,60.7551,13.51816,9.05137,20.75045-2.164,16.79085-3.74992,1.20387-19.946-25.252,2.7417,6.85377-13.494-9.659-10.73152,55.38355-8.02067,9.621,31.5402-5.65249,4.14387,2.8202,28.65541-14.78642,3.77207-15.24817,6.89337L434.27242,769.793,415.72645,755.2l-.19542-8.65168-6.51442-10.57906,21.40528-65.60838-.95028-8.97283,13.18682-50.06185,42.87831,1.14162,5.32233,4.74577,40.03558,1.963-6.12978,13.433Z"/><path class="cls-5" d="M293.46938,836.52168l-23.90881,37.11615,25.33221-1.90588-2.96972,40.61462-38.79636,24.32913-3.064-2.27867-53.29446,29.02172,4.58978-39.98681-3.21494-8.27026,3.789-45.05933-2.45668-8.36727,3.3578-29.14488,45.83554-3.026-2.13939,4.94884Zm-29.04851,61.981-7.59106-1.5332-3.67135-2.20183-26.16687,5.01768-1.68623,21.75155,6.70066-3.02718,27.0913-14.6517Zm-7.34526-42.96791-2.01314-.076-6.35506,3.31647-19.22179.28911-3.29674,18.78625,19.09967-2.44344Z"/><path class="cls-5" d="M398.98272,798.43241l-63.32,14.65537-2.13473,8.38086,43.46031-4.00693-3.57629,5.4602,24.6217,1.5073-10.19845,13.38041,1.3842,7.24056-29.935,4.69248-4.09427,3.80162-24.93579,4.39754L328.602,872.47114l30.17306-4.03282.97172,4.01639,30.339-7.50375-5.47538,13.29266,7.14113,9.26454-53.68194,14.80349-3.10879,3.15729-28.968,6.29363,4.95148-63.94346-2.99328-6.6901,3.64171-63.43129,38.48506.07925-1.41039,4.49389,60.79062-1.22808-23.68734,9.59186Z"/><path class="cls-5" d="M477.598,796.98434l-.52977,26.05533-3.09672,5.0786-5.244,44.10048-8.75893-.75207-6.88429,10.24559.1889-29.64092-21.7459,5.70842-1.79061,3.39-8.62321,1.2204q-1.71132,5.83767-7.30343,24.34652l-8.07829-4.58558-7.25265,7.36626,10.64364-44.90849-.86936-6.79551,6.16866-43.28217,44.17-.6172-2.52257,4.06854ZM454.047,816.035l-18.89146,1.48019-5.657,20.74114,18.12061-3.84033-1.38624,3.80655,5.54077-1.52822Z"/><path class="cls-5" d="M549.43836,756.71618l-6.42812,10.43472.85524,7.65491-18.95969,3.04133-5.004,31.20379-3.54625,5.99971-5.36765,31.25031-5.84516-2.33314-9.0039,11.50409,4.36364-48.74538-1.70785-8.53124,1.36285-16.31879-51.18276,3.10078,26.4198-12.3976L457.71665,771.133,518.946,756.30331l1.34251,2.78639Z"/><polygon class="cls-1" points="245.541 394.709 243.477 417.612 236.645 437.793 267.288 413.446 330.867 416.251 380.838 416.251 400.834 430.303 391.823 396.058 395.787 376.507 245.541 394.709"/><polygon class="cls-3" points="298.47 581.08 323.226 548.869 342.774 577.904 323.226 562.816 298.47 581.08"/><polygon class="cls-3" points="450.465 586.515 426.988 539.117 397.697 582.072 425.386 560.201 450.465 586.515"/><polygon class="cls-3" points="441.314 586.515 427.141 539.117 409.458 582.072 425.386 562.816 441.314 586.515"/><path class="cls-1" d="M349.82772,548.30148l11.13319-6.73612-1.069,19.556,12.27613-19.5207.89915,36.3035,11.33932-34.26195v19.17347l8.34493-19.91526s7.271,1.64915,8.08292,3.01019S387.58227,570.636,387.58227,570.636l-11.79562,15.87871-19.735-5.43484s-9.20755-23.14684-9.02713-23.37368S349.82772,548.30148,349.82772,548.30148Z"/><polygon class="cls-1" points="287.921 500.1 302.051 489.814 295.965 513.536 309.323 495.766 306.062 530.401 320.622 499.609 323.226 523.141 329.965 499.609 339.719 525.867 339.719 498.048 349.828 510.911 347.025 490.562 358.532 496.755 357.186 520.051 335.183 542.054 310.684 544.323 281.875 507.348 287.921 500.1"/><path class="cls-1" d="M295.15952,548.4572l-11.2772-6.89184,1.08631,19.87309L272.538,541.672l-.91046,36.76044-11.482-34.69319v19.4148L251.157,543.08463s-6.82406,1.57343-7.64618,2.95159,13.41891,25.03665,13.41891,25.03665l11.94409,16.07857,19.98338-5.50325s9.32345-23.43819,9.14076-23.66788S295.15952,548.4572,295.15952,548.4572Z"/><polygon class="cls-1" points="193.017 580.054 207.747 570.069 198.2 588.955 215.752 570.069 209.482 596.278 221.877 572.485 225.518 599.744 228.341 581.08 236.645 599.744 232.765 577.904 254.409 598.607 251.819 608.768 211.669 617.826 191.253 591.932 193.017 580.054"/><polygon class="cls-1" points="245.602 453.016 256.243 447.699 253.263 466.735 263.388 450.176 260.476 479.653 268.832 453.36 275.656 478.439 278.7 453.36 281.875 469.442 278.019 489.814 250.695 486.683 245.602 453.016"/><polygon class="cls-1" points="400.069 453.016 389.429 447.699 392.409 466.735 382.284 450.176 385.195 479.653 376.84 453.36 370.016 478.439 366.972 453.36 363.797 469.442 367.653 489.814 394.977 486.683 400.069 453.016"/><polygon class="cls-1" points="227.624 517.068 229.836 491.55 243.477 493.984 240.206 529.432 233.915 540.345 227.624 517.068"/><polygon class="cls-1" points="280.841 426.729 274.617 435.894 292.555 426.729 312.272 400.507 280.841 426.729"/><polygon class="cls-1" points="354.847 420.699 363.797 435.894 336.77 418.2 354.847 420.699"/><polygon class="cls-1" points="191.253 617.826 179.004 604.138 180.025 620.427 173.56 609.707 171.859 623.83 185.129 623.83 191.253 617.826"/><polygon class="cls-3" points="312.377 580.464 323.703 548.253 332.646 577.288 323.703 567.761 312.377 580.464"/></svg>