<svg id="Livello_1" data-name="Livello 1" xmlns="http://www.w3.org/2000/svg" viewBox="0 0 1803.18032 589.47159"><defs><style>.cls-1{fill:#fff;}.cls-2{fill:#002d5c;}.cls-3{font-size:104.54321px;fill:#d60057;font-family:ManEaterBB-Bold, ManEater BB;font-weight:700;}</style></defs><title>Rugbeat_Logo</title><polygon class="cls-1" points="292.849 121.787 273.733 125.353 276.904 117.407 116.238 144.664 127.896 278.162 135.011 289.095 145.783 429.164 179.285 396.082 177.097 410.776 179.558 418.547 165.69 495.539 246.083 458.211 249.677 461.259 291.868 438.419 501.259 389.744 516.972 397.211 529.676 343.929 533.464 338.363 537.297 321.46 560.777 319.22 559.754 297.609 573.22 257.059 545.721 257.534 544.032 196.803 559.687 195.739 551.515 160.052 556.262 134.794 501.954 123.494 496.85 118.319 461.775 115.134 459.51 102.847 410.631 112.983 358.239 106.466 323.672 83.419 292.849 121.787"/><path class="cls-2" d="M239.66733,195.90569l-44.05269,11.089.85952,42.889,2.69422,3.618,14.62323-8.3497,18.034-41.20932,5.57946-1.61288Zm54.91747-50.49991L249.3193,254.9386l58.176,40.60762L288.557,303.22046l.57844,22.91186-48.42025-17.323-9.20294,2.38526-29.91011-10.31128-5.20993,60.85743-11.45355-10.15321-17.31558,17.09638-7.06782-91.92779-6.9226-10.63758-8.91576-102.1112,94.29318-15.9966-3.34654,8.38693Z"/><polygon class="cls-2" points="437.616 132.45 426.233 171.655 422.356 178.604 390.838 271.473 356.016 272.398 351.407 268.647 287.296 269.39 287.636 255.532 275.659 250.062 305.733 182.413 305.563 173.559 337.808 110.857 355.989 124.721 372.045 126.14 316.656 229.672 351.764 238.899 373.077 239.526 377.666 216.124 376.269 205.77 398.618 134.586 411.944 140.689 437.616 132.45"/><polygon class="cls-2" points="540.114 172.342 477.53 176.598 449.713 232.44 461.934 241.807 481.665 241.018 497.752 238.491 500.095 219.724 476.077 220.786 483.367 208.455 474.893 197.734 527.691 193.508 534.871 223.881 529.282 227.454 530.213 254.691 516.018 257.36 501.198 262.949 437.357 285.921 420.721 271.015 421.061 262.831 415.547 252.445 439.733 191.768 439.379 183.235 454.863 136.746 495.296 140.417 500.036 145.222 537.733 149.498 531.13 161.815 540.114 172.342"/><path class="cls-2" d="M264.79733,356.193l-1.89814-.19355-6.20158,2.74841-18.17484-.88951-4.25034,17.54521,18.189-1.15269Zm4.33938,41.03013-7.0772-1.907-3.33457-2.30193-25.0204,3.15683-2.90837,20.444,6.51252-2.454,26.47609-12.20112Zm31.18742-56.78827-24.8282,33.61264,24.0428-.268-5.26158,38.18341-38.11749,20.63444-2.75641-2.33764-52.09559,24.18953,6.7535-37.49269-2.537-8.00629,6.3051-42.33253-1.81417-8.05183,4.93457-27.32635,43.47764-.086-2.32077,4.545Z"/><polygon class="cls-2" points="402.292 310.839 341.595 320.852 339.072 328.639 380.365 327.483 376.658 332.424 399.823 335.337 389.38 347.359 390.25 354.282 361.691 356.904 357.593 360.247 333.774 362.893 331.334 376.516 360.079 374.532 360.754 378.385 389.866 373.132 383.889 385.356 390.074 394.539 338.472 405.275 335.345 408.07 307.602 412.263 316.146 352.163 313.723 345.663 320.999 285.968 357.347 288.37 355.743 292.53 413.238 295.046 390.283 302.674 402.292 310.839"/><path class="cls-2" d="M453.23884,330.79585l-17.93412.25546-6.59785,19.24917,17.34872-2.53137-1.54019,3.51164,5.32729-1.10824Zm23.39787-16.57029L474.56,338.8045l-3.23134,4.61L463.70775,384.753l-8.22755-1.24-7.1227,9.26135,1.97083-27.98637-20.88578,4.07662-1.89519,3.09379-8.21978.63116q-1.96857,5.41058-8.37167,22.55506l-7.35282-4.81981-7.29552,6.51922,12.76932-41.77531-.41069-6.47135,8.44538-40.50983L458.87,310.1759l-2.62921,3.69038Z"/><polygon class="cls-2" points="546.931 280.535 540.228 290.002 540.572 297.284 522.479 299.01 515.866 328.182 512.153 333.635 505.193 362.828 499.813 360.271 490.613 370.593 497.683 324.813 496.584 316.651 498.859 301.32 450.326 301.153 476.031 291.041 459.42 288.605 518.153 278.3 519.252 281.013 546.931 280.535"/><text class="cls-3" transform="translate(268.35877 496.0174)">2023</text><path class="cls-1" d="M670.64009,215.18639q.272-1.23244,3.017-3.77166,2.74421-2.53594,6.65144-5.48515,3.9105-2.95,8.298-5.6926a82.47926,82.47926,0,0,1,7.81937-4.3891,22.13029,22.13029,0,0,1,4.11468-.48024q3.29305-.20582,7.4061-.20582,4.38829,0,8.57239.20582,4.18247.20582,6.1026.48024a20.28944,20.28944,0,0,1,.343,3.84026q.06861,2.74421.20582,6.85726a3.88124,3.88124,0,0,1-1.09605,2.40118,4.122,4.122,0,0,0-1.09768,2.674,3.63425,3.63425,0,0,0,1.16629,2.46979,4.36619,4.36619,0,0,1,1.30187,2.46816q.13721,9.05344.06861,20.02457-.06861,10.97684-.20582,21.8083-.13721,10.83718-.343,20.30062-.20582,9.46262-.61581,15.22383-.13966.41163-1.50932.82326a18.7667,18.7667,0,0,1-3.49723.61745q-2.12676.20582-4.66352.343-2.54084.13476-5.281.13721-2.74421,0-5.34794-.13721-2.607-.13966-4.73376-.343a17.20242,17.20242,0,0,1-3.427-.61745,3.16808,3.16808,0,0,1-1.57792-.82326q-.27687-6.03481-.27442-12.68707,0-6.65226.13721-13.64755a1.52265,1.52265,0,0,1,.89187-1.23489,19.26049,19.26049,0,0,1,1.91931-1.02745,18.93362,18.93362,0,0,0,1.91931-1.02908,1.51756,1.51756,0,0,0,.89187-1.23489c0-.27442-.29729-.59295-.89187-.96047a19.2605,19.2605,0,0,0-1.91931-1.02745,18.93361,18.93361,0,0,1-1.91931-1.02908c-.59621-.36426-.89187-.68605-.89187-.96047q.13476-7.67889.20582-15.56686.06861-7.88715.06861-15.84291-.6885.55129-2.12676,1.71513-1.44071,1.16629-3.15421,2.39955a36.23709,36.23709,0,0,1-3.29142,2.12676,5.7019,5.7019,0,0,1-2.6756.89187q-1.50932,0-3.42863-2.607a37.25317,37.25317,0,0,1-3.56584-6.034,53.67157,53.67157,0,0,1-2.6756-6.58447A12.54081,12.54081,0,0,1,670.64009,215.18639Z"/><path class="cls-1" d="M770.21571,189.675a48.32366,48.32366,0,0,1,14.12778,1.85234,23.81967,23.81967,0,0,1,10.28752,6.23981,30.01171,30.01171,0,0,1,6.65144,11.65963,77.3896,77.3896,0,0,1,3.22281,18.10362c0,.27442-.41.66482-1.23326,1.16629q-1.23489.75711-2.74421,1.71513-1.50932.96047-2.81118,1.7135c-.87063.50474-1.3035.89187-1.3035,1.16629s.45573.52761,1.37211.75466q1.36965.343,3.017.61745c1.09768.18458,2.07776.36589,2.95.54884.86737.18458,1.30187.45737,1.30187.82326q.13476,2.19537.13721,4.38747v4.52631q0,5.48842-.48024,11.591a81.49312,81.49312,0,0,1-1.85071,12.001,61.434,61.434,0,0,1-3.77329,11.24636,32.56892,32.56892,0,0,1-6.30842,9.39565,28.93676,28.93676,0,0,1-9.46426,6.44726,32.89157,32.89157,0,0,1-13.0987,2.39955,38.55968,38.55968,0,0,1-10.83473-1.3721,28.383,28.383,0,0,1-8.22936-3.84026c-.27442-.18131-.3904-.63868-.343-1.37047a22.92957,22.92957,0,0,1,.27442-2.33258,23.37281,23.37281,0,0,0,.27442-2.33095c.0441-.73179-.0245-1.18752-.20582-1.3721-.27442-.27442-.73342-.32016-1.37211-.13721a11.27183,11.27183,0,0,0-1.92095.75466,12.03566,12.03566,0,0,1-1.85071.75466,1.08341,1.08341,0,0,1-1.3035-.27442q-5.76039-7.81855-8.298-19.61457a123.21449,123.21449,0,0,1-2.53676-25.923,83.474,83.474,0,0,1,1.85234-16.80175,59.88469,59.88469,0,0,1,6.034-16.66454,38.01328,38.01328,0,0,1,11.17939-12.75568Q759.92819,189.67831,770.21571,189.675Zm-8.50378,55.2746q0,12.89534,1.64653,19.95759,1.64408,7.06634,6.85726,7.06307,4.11386,0,5.76121-6.58284,1.64653-6.58365,1.64653-20.985,0-7.13-.13721-12.48289a57.86026,57.86026,0,0,0-.82326-8.98239,11.75833,11.75833,0,0,0-2.19537-5.41818,5.27,5.27,0,0,0-4.25189-1.78374q-4.39074,0-6.44726,6.72168Q761.71274,229.17778,761.71193,244.94964Z"/><path class="cls-1" d="M813.9679,298.0305q1.92095-.13721,5.76121-.343,3.83944-.20582,8.77821-.27442,4.93713-.07106,10.4231-.06861H849.561q5.14294,0,9.53286.06861,4.38584.06861,6.99447.06861.27442,0,.48024.54884a8.613,8.613,0,0,1,.343,1.16629,8.42714,8.42714,0,0,0,.343,1.16466c.13721.36589.29566.54884.48024.54884.18131,0,.43123-.16008.75466-.48024a7.25255,7.25255,0,0,0,.89187-1.09605,10.8198,10.8198,0,0,1,.89023-1.16629q.47779-.54884.75466-.54884,1.9185.13476,3.49723.20582,1.57547.06861,2.6756.20582a49.71189,49.71189,0,0,1,.82326,5.76121,55.47914,55.47914,0,0,1,.20582,6.034q-.07351,2.88142-.343,5.00655a6.87088,6.87088,0,0,1-.68605,2.674,22.42854,22.42854,0,0,1-3.84189.54884q-3.01863.27442-7.4061.41163-4.39074.13476-9.53286.27442-5.14294.13476-10.28752.13721-5.14049,0-9.66844-.06861-4.5255-.07106-7.54331-.20582a1.0464,1.0464,0,0,1-.89187-.48024,7.41218,7.41218,0,0,1-.61745-1.02745,7.97292,7.97292,0,0,0-.61581-1.02908,1.0526,1.0526,0,0,0-.89187-.48024c-.27442,0-.75466.45573-1.44071,1.3721q-1.02908,1.36965-1.44071,1.37047-5.07679-.41163-9.05263-.82326a11.15943,11.15943,0,0,1-1.09768-4.52468,52.25671,52.25671,0,0,1,.41163-12.13986A8.90157,8.90157,0,0,1,813.9679,298.0305Z"/><path class="cls-1" d="M885.154,215.18639q.272-1.23244,3.01536-3.77166,2.74421-2.53594,6.65308-5.48515,3.908-2.95,8.298-5.6926a82.2776,82.2776,0,0,1,7.81937-4.3891,22.12625,22.12625,0,0,1,4.113-.48024q3.29305-.20582,7.4061-.20582,4.39074,0,8.57239.20582,4.18492.20582,6.10423.48024a20.43057,20.43057,0,0,1,.343,3.84026q.06616,2.74421.20582,6.85726a3.88124,3.88124,0,0,1-1.09605,2.40118,4.11353,4.11353,0,0,0-1.09768,2.674,3.63425,3.63425,0,0,0,1.16629,2.46979,4.38629,4.38629,0,0,1,1.30187,2.46816q.13476,9.05344.06861,20.02457-.07106,10.97684-.20582,21.8083-.13966,10.83718-.343,20.30062-.20582,9.46262-.61581,15.22383c-.09311.27442-.59785.54884-1.50932.82326a18.76185,18.76185,0,0,1-3.49887.61745q-2.12676.20582-4.66189.343-2.54084.13476-5.281.13721-2.74666,0-5.34958-.13721-2.607-.13966-4.73213-.343a17.22161,17.22161,0,0,1-3.42863-.61745,3.1763,3.1763,0,0,1-1.57792-.82326q-.27442-6.03481-.27442-12.68707t.13721-13.64755a1.52607,1.52607,0,0,1,.89187-1.23489,19.291,19.291,0,0,1,1.92095-1.02745,19.11028,19.11028,0,0,0,1.91931-1.02908,1.521,1.521,0,0,0,.89187-1.23489c0-.27442-.29892-.59295-.89187-.96047a19.44327,19.44327,0,0,0-1.91931-1.02745,18.96338,18.96338,0,0,1-1.92095-1.02908c-.59458-.36426-.89187-.68605-.89187-.96047q.13721-7.67889.20582-15.56686.06861-7.88715.06861-15.84291-.68605.55129-2.12513,1.71513-1.44071,1.16629-3.15421,2.39955a36.02553,36.02553,0,0,1-3.29305,2.12676,5.70222,5.70222,0,0,1-2.674.89187q-1.51177,0-3.42863-2.607a37.25557,37.25557,0,0,1-3.56747-6.034,53.91029,53.91029,0,0,1-2.674-6.58447A12.54081,12.54081,0,0,1,885.154,215.18639Z"/><path class="cls-1" d="M947.69587,215.18639q.27442-1.23244,3.017-3.77166,2.74176-2.53594,6.65308-5.48515,3.908-2.95,8.298-5.6926a82.07122,82.07122,0,0,1,7.81773-4.3891,22.174,22.174,0,0,1,4.11468-.48024q3.2906-.20582,7.4061-.20582,4.38829,0,8.57239.20582,4.18247.20582,6.10423.48024a20.43055,20.43055,0,0,1,.343,3.84026q.06616,2.74421.20582,6.85726a3.87549,3.87549,0,0,1-1.09768,2.40118,4.122,4.122,0,0,0-1.09768,2.674,3.64144,3.64144,0,0,0,1.16629,2.46979,4.37963,4.37963,0,0,1,1.3035,2.46816q.13231,9.05344.06861,20.02457-.07351,10.97684-.20582,21.8083-.13966,10.83718-.343,20.30062-.20582,9.46262-.61745,15.22383c-.09147.27442-.59621.54884-1.50932.82326a18.7667,18.7667,0,0,1-3.49723.61745q-2.12921.20582-4.66352.343-2.53839.13476-5.27934.13721-2.74666,0-5.35121-.13721-2.607-.13966-4.7305-.343a17.24082,17.24082,0,0,1-3.43026-.61745,3.16033,3.16033,0,0,1-1.57629-.82326q-.27687-6.03481-.27442-12.68707,0-6.65226.13721-13.64755a1.52374,1.52374,0,0,1,.89023-1.23489,19.291,19.291,0,0,1,1.92095-1.02745,19.14025,19.14025,0,0,0,1.92095-1.02908,1.521,1.521,0,0,0,.89187-1.23489c0-.27442-.29892-.59295-.89187-.96047a19.47393,19.47393,0,0,0-1.92095-1.02745,18.96338,18.96338,0,0,1-1.92095-1.02908c-.59458-.36426-.89023-.68605-.89023-.96047q.13476-7.67889.20582-15.56686.06615-7.88715.06861-15.84291-.6885.55129-2.12513,1.71513-1.44071,1.16629-3.15584,2.39955a35.78966,35.78966,0,0,1-3.29142,2.12676,5.70778,5.70778,0,0,1-2.674.89187q-1.51177,0-3.43026-2.607a37.37187,37.37187,0,0,1-3.56584-6.034,53.91033,53.91033,0,0,1-2.674-6.58447A12.55477,12.55477,0,0,1,947.69587,215.18639Z"/><path class="cls-1" d="M1046.58544,243.9908q0-11.7952,2.74421-19.40875a33.03049,33.03049,0,0,1,8.36657-12.96149c.27442-.27442.79876-.31852,1.57629-.13721.77589.18458,1.64653.3904,2.60537.61745q1.44071.343,2.607.61745a2.19774,2.19774,0,0,0,1.57792,0,3.85928,3.85928,0,0,0-.06861-1.57792q-.20582-1.16384-.48024-2.39955c-.18458-.82326-.343-1.57792-.48024-2.264-.13721-.68442-.116-1.07318.0686-1.16466a28.34375,28.34375,0,0,1,8.16076-3.63444,34.07265,34.07265,0,0,1,8.43518-1.02908,42.14448,42.14448,0,0,1,14.332,2.12513,30.30711,30.30711,0,0,1,9.67007,5.48679,25.54614,25.54614,0,0,1,6.03563,7.68052,38.54914,38.54914,0,0,1,3.22281,8.77821,48.95736,48.95736,0,0,1,1.2349,8.50378q.20582,4.04771.20582,7.06471,0,.54884-1.09768.95884a14.768,14.768,0,0,1-2.81118.68605q-1.71758.27687-3.84026.41163-2.12921.13721-4.32213.13721a44.76043,44.76043,0,0,1-6.99447-.48024q-3.01863-.47779-3.017-1.44071,0-8.09052-2.74258-12.27544a9.18888,9.18888,0,0,0-8.22936-4.18329,8.37053,8.37053,0,0,0-6.37865,2.53839,17.4019,17.4019,0,0,0-3.70305,6.17121,32.44677,32.44677,0,0,0-1.71513,7.74913q-.41163,4.11632-.41163,7.40773a87.2173,87.2173,0,0,0,.96047,14.26336,30.48366,30.48366,0,0,0,2.607,8.77821,10.23867,10.23867,0,0,0,3.83863,4.3891,9.37,9.37,0,0,0,4.66516,1.23489q6.16957,0,9.25844-2.39955a7.6777,7.6777,0,0,0,3.0856-6.37866q-1.10013,0-4.66352.13721a26.61625,26.61625,0,0,1-6.72-.54884V252.35737c0-.18295.38713-.36426,1.16466-.54884a20.52892,20.52892,0,0,1,3.15421-.41163q1.9871-.13476,4.52795-.20582,2.53349-.06861,5.27934-.06861,3.565,0,7.06307.13721,3.49887.13721,6.31.343a31.22784,31.22784,0,0,1,4.59492.61745c1.18752.27442,1.78374.54884,1.78374.82326a74.82859,74.82859,0,0,1-2.19537,18.58386,51.69184,51.69184,0,0,1-5.34794,13.78476,1.306,1.306,0,0,1-1.09768.54884,8.07692,8.07692,0,0,1-3.29305-.89187q-1.92095-.88942-2.87979-.06861a2.75689,2.75689,0,0,0,.27442,1.57792q.41163,1.02908.89023,2.05652a15.04416,15.04416,0,0,1,.75466,1.92095,1.00785,1.00785,0,0,1-.41163,1.30187,31.33612,31.33612,0,0,1-9.46262,4.52631,37.56134,37.56134,0,0,1-10.83473,1.64653,43.48629,43.48629,0,0,1-15.15686-2.33095,30.438,30.438,0,0,1-10.4917-6.37866,29.4981,29.4981,0,0,1-6.65308-9.39565,54.51125,54.51125,0,0,1-3.63445-11.315,82.54287,82.54287,0,0,1-1.57792-12.344Q1046.58544,249.8884,1046.58544,243.9908Z"/><path class="cls-1" d="M1128.33187,205.31214q1.9185-.27442,6.31-.41163,4.38584-.13476,9.327-.13721,4.24863,0,8.22936.13721,3.97421.13721,6.85726.41163v11.7952a1.67575,1.67575,0,0,1-.89187,1.3035q-.89432.61745-1.92095,1.37047a22.29747,22.29747,0,0,0-1.85071,1.50932,2.15937,2.15937,0,0,0-.82326,1.57792,2.01936,2.01936,0,0,0,.68605,1.57629,15.59917,15.59917,0,0,0,1.57629,1.23489,15.8826,15.8826,0,0,1,1.64653,1.3035,2.303,2.303,0,0,1,.75466,1.7821q-.27687,8.779-.61745,18.31107-.343,9.53368-.68605,18.31107-.343,8.779-.54884,15.97849-.20582,7.2011-.20582,11.315a70.25929,70.25929,0,0,1-10.4917,1.44071,95.725,95.725,0,0,1-12.82428-.20582q0-.6836-.20582-3.77166-.20582-3.08724-.41163-6.85889-.20582-3.76839-.41163-7.26889-.20582-3.49642-.20582-4.86934,0-.272.54884-.61745c.36426-.22705.80039-.52434,1.3035-.89023a8.272,8.272,0,0,0,1.3035-1.16629,1.95252,1.95252,0,0,0,.54884-1.3035,2.30857,2.30857,0,0,0-.75466-1.7821,9.51185,9.51185,0,0,0-1.57792-1.16629c-.54884-.32016-1.07645-.59295-1.57792-.82326-.50311-.22705-.75466-.48024-.75466-.75466q0-.272-.20582-4.11468-.20582-3.837-.41163-9.66844-.20581-5.829-.54884-12.6887-.343-6.85563-.54721-13.16567-.20582-6.30923-.41163-11.11078Q1128.33187,207.09506,1128.33187,205.31214Z"/><path class="cls-1" d="M1171.398,240.69775l.27442-7.54331c.45574-.27442.98007-.57008,1.57792-.89187a13.63047,13.63047,0,0,0,1.7135-1.09605,6.81662,6.81662,0,0,0,1.30187-1.23489,1.93451,1.93451,0,0,0,.48024-1.16629,2.88361,2.88361,0,0,0-1.98792-2.33095,12.5029,12.5029,0,0,1-3.36-2.19537l.68605-15.77267a2.18469,2.18469,0,0,1,1.16629-1.85234,9.24619,9.24619,0,0,1,3.01536-1.16466,32.59015,32.59015,0,0,1,4.18492-.61745q2.33013-.20582,4.7991-.20582,2.46979,0,4.80237.13721a34.50059,34.50059,0,0,1,4.18165.48024,18.11473,18.11473,0,0,1,2.95.75466c.73015.27279,1.09768.59458,1.09768.95884v8.43518q0,5.69424-.27442,16.52733-.13966,10.01392.27442,17.07617.41163,7.06634.41163,10.49334a26.58794,26.58794,0,0,0,.82163,6.72,17.62649,17.62649,0,0,0,2.39955,5.48679,12.10808,12.10808,0,0,0,3.70468,3.63445,8.61223,8.61223,0,0,0,4.59328,1.3035,7.96092,7.96092,0,0,0,4.80237-1.3035,9.03125,9.03125,0,0,0,2.81118-3.42863,15.8312,15.8312,0,0,0,1.37047-5.07516,54.04831,54.04831,0,0,0,.343-6.23981l.27442-30.31209-.27442-22.35715q0-1.9185,3.63608-2.53676a51.84,51.84,0,0,1,8.57239-.61745,71.45745,71.45745,0,0,1,8.43518.41163q3.35676.41163,3.36,2.74258l.54884,29.90046-.54884,28.39114v6.72168a1.05666,1.05666,0,0,1-.82326,1.16629,10.44713,10.44713,0,0,1-1.7821.27442c-.64195.04574-1.25776.11434-1.85234.20582a1.379,1.379,0,0,0-1.16629,1.09605,2.82446,2.82446,0,0,0,.343,1.64653q.48024,1.10013,1.09768,2.26234.61745,1.16874,1.09768,2.264a2.04923,2.04923,0,0,1,.20582,1.64489q-2.88142,5.76284-10.42473,10.15031-7.54658,4.38829-20.0262,4.3891-10.83473,0-18.035-2.81118a33.89937,33.89937,0,0,1-11.658-7.20192,25.73675,25.73675,0,0,1-6.37866-9.80565,34.27761,34.27761,0,0,1-2.05652-10.63055Z"/><path class="cls-1" d="M1253.00558,243.9908q0-11.7952,2.74258-19.40875a33.04858,33.04858,0,0,1,8.36657-12.96149c.27442-.27442.79876-.31852,1.57629-.13721q1.16629.27687,2.607.61745,1.44071.343,2.607.61745a2.19388,2.19388,0,0,0,1.57629,0,3.85928,3.85928,0,0,0-.06861-1.57792q-.20581-1.16384-.4786-2.39955c-.18621-.82326-.343-1.57792-.48024-2.264-.13721-.68442-.11761-1.07318.06861-1.16466a28.3243,28.3243,0,0,1,8.16076-3.63444,34.07264,34.07264,0,0,1,8.43518-1.02908,42.14448,42.14448,0,0,1,14.332,2.12513,30.325,30.325,0,0,1,9.67007,5.48679,25.56616,25.56616,0,0,1,6.034,7.68052,38.47807,38.47807,0,0,1,3.22445,8.77821,48.95736,48.95736,0,0,1,1.2349,8.50378q.20581,4.04771.20582,7.06471c0,.36589-.36753.68442-1.09768.95884a14.78824,14.78824,0,0,1-2.81282.68605q-1.71513.27687-3.84026.41163-2.12921.13721-4.3205.13721a44.74571,44.74571,0,0,1-6.99447-.48024q-3.01863-.47779-3.01863-1.44071,0-8.09052-2.74258-12.27544a9.18705,9.18705,0,0,0-8.22936-4.18329,8.373,8.373,0,0,0-6.37865,2.53839,17.375,17.375,0,0,0-3.70142,6.17121,32.36788,32.36788,0,0,0-1.71513,7.74913q-.41163,4.11632-.41163,7.40773a87.21742,87.21742,0,0,0,.96047,14.26336,30.48866,30.48866,0,0,0,2.60537,8.77821,10.24112,10.24112,0,0,0,3.84026,4.3891,9.364,9.364,0,0,0,4.66352,1.23489q6.172,0,9.25844-2.39955a7.6777,7.6777,0,0,0,3.0856-6.37866q-1.09768,0-4.66189.13721a26.62926,26.62926,0,0,1-6.72168-.54884V252.35737c0-.18295.38713-.36426,1.16466-.54884a20.5834,20.5834,0,0,1,3.15584-.41163q1.98465-.13476,4.52631-.20582,2.53595-.06861,5.281-.06861,3.56257,0,7.06308.13721,3.49887.13721,6.30842.343a31.25412,31.25412,0,0,1,4.59655.61745c1.18589.27442,1.7821.54884,1.7821.82326a74.90726,74.90726,0,0,1-2.19374,18.58386,51.63393,51.63393,0,0,1-5.34958,13.78476,1.306,1.306,0,0,1-1.09768.54884,8.06407,8.06407,0,0,1-3.29142-.89187q-1.9234-.88942-2.88142-.06861a2.7709,2.7709,0,0,0,.27442,1.57792q.41163,1.02908.89187,2.05652a15.29062,15.29062,0,0,1,.75466,1.92095,1.00785,1.00785,0,0,1-.41163,1.30187,31.34582,31.34582,0,0,1-9.46426,4.52631,37.553,37.553,0,0,1-10.83473,1.64653,43.49269,43.49269,0,0,1-15.15686-2.33095,30.45336,30.45336,0,0,1-10.4917-6.37866,29.4981,29.4981,0,0,1-6.65308-9.39565,54.41088,54.41088,0,0,1-3.63281-11.315,82.33066,82.33066,0,0,1-1.57792-12.344Q1253.00313,249.8884,1253.00558,243.9908Z"/><path class="cls-1" d="M1359.164,205.72377l18.92852,32.09419q-.13721-4.93713.0686-10.4917.20582-5.557.48024-10.42473.27442-4.86607.48024-8.09215.20582-3.222.20582-3.36,1.78129-.27442,5.62236-.48024,3.83945-.20582,8.231-.20582,3.42781,0,6.51423.13721a34.74571,34.74571,0,0,1,5.14376.54884q0,.13721-.0686,2.33095-.07106,2.19537-.20582,5.34958-.13721,3.15584-.20582,6.78865-.06861,3.63608-.20582,6.79029-.13721,3.15584-.20582,5.34794c-.04574,1.46521-.0686,2.28684-.0686,2.46979q0,.27687-.75466.82326-.75466.54884-1.7135,1.16466a18.12471,18.12471,0,0,0-1.71513,1.23489,1.65075,1.65075,0,0,0-.753,1.16629c0,.27442.22542.59621.68605.96047.4541.36589.95884.753,1.50768,1.16466s1.05031.802,1.50768,1.16629q.68605.54884.68605.82326,0,.13721-.20582,3.84026-.20581,3.70223-.48024,9.18984-.27442,5.486-.61745,11.93241-.343,6.44889-.61581,11.93241-.27687,5.48842-.48024,9.327-.20582,3.84189-.20582,4.11468,0,.27687-3.29142.41163-3.29305.13721-7.13168.13721-3.56992,0-6.31005-.13721c-1.83111-.08984-2.74258-.22705-2.74258-.41163l-18.7913-31.81977q-.27687,4.80237-.61745,9.66844-.343,4.871-.68605,9.05263-.343,4.18492-.54884,7.26889-.20581,3.08724-.20582,4.59492a71.89733,71.89733,0,0,1-9.60147,1.3035,95.19576,95.19576,0,0,1-11.93078-.06861c0-.45573-.049-1.7135-.13721-3.77166q-.13966-3.08724-.343-6.85726-.20582-3.77084-.41163-7.20192-.20582-3.42536-.20582-4.80073c0-.18131.18131-.38713.54884-.61581a9.04923,9.04923,0,0,0,1.16629-.89187,14.26709,14.26709,0,0,0,1.16466-1.16629,1.94472,1.94472,0,0,0,.54884-1.3035,2.42074,2.42074,0,0,0-.68605-1.7821,7.49671,7.49671,0,0,0-1.50768-1.16629c-.54884-.31852-1.05358-.59295-1.50932-.82326-.459-.22705-.68605-.48024-.68605-.75466q0-.272-.13721-4.11468-.13721-3.837-.41163-9.59984-.27687-5.76284-.48024-12.54986-.20582-6.78947-.48024-12.96149t-.41163-10.905q-.13721-4.73131-.13721-6.377a49.05113,49.05113,0,0,1,5.07515-.41163q3.2906-.13476,7.27052-.13721,3.15094,0,6.30842.13721Q1356.55786,205.44935,1359.164,205.72377Z"/><path class="cls-1" d="M1415.12469,247.96827a85.64933,85.64933,0,0,1,1.44071-16.66454,49.39478,49.39478,0,0,1,4.04608-12.41265,1.83571,1.83571,0,0,1,1.16629-1.02908,14.02608,14.02608,0,0,1,1.7135-.343q.958-.13476,1.92095-.20582a3.66311,3.66311,0,0,0,1.64489-.48024,15.83863,15.83863,0,0,0-.06861-4.3891q-.343-2.46979.75466-3.56584a28.57308,28.57308,0,0,1,10.905-6.37866,40.76425,40.76425,0,0,1,12.13823-1.85071q16.73233,0,26.266,12.61847,9.53123,12.62092,9.53123,37.44377a101.53814,101.53814,0,0,1-.54884,10.76776,69.42025,69.42025,0,0,1-1.7821,9.94286,4.07741,4.07741,0,0,1-1.57629,2.95,16.13963,16.13963,0,0,1-3.08724,2.26234q0,.82326.06861,2.05816a14.84692,14.84692,0,0,1-.06861,2.46816q-.13721,1.23489-.27442,2.12513a1.63789,1.63789,0,0,1-.54884,1.16629,30.57841,30.57841,0,0,1-10.97194,9.94449q-6.72086,3.63118-17.00757,3.63444-18.51607,0-27.08927-12.68707Q1415.12387,272.65881,1415.12469,247.96827Zm37.03214,28.66556a9.69093,9.69093,0,0,0,3.84189-.82326,7.32284,7.32284,0,0,0,3.36-3.63445,29.08168,29.08168,0,0,0,2.33094-8.16076,92.82984,92.82984,0,0,0,.89187-14.53941q0-4.66026-.343-9.25681a34.63073,34.63073,0,0,0-1.50932-8.16239,14.04654,14.04654,0,0,0-3.4956-5.82818,8.87022,8.87022,0,0,0-6.44726-2.264q-5.214,0-7.33913,6.10423-2.12676,6.10342-2.12513,19.54433,0,4.93958.13721,9.80728a37.75788,37.75788,0,0,0,1.16629,8.7096,14.15013,14.15013,0,0,0,3.22281,6.17284A8.24171,8.24171,0,0,0,1452.15683,276.63383Z"/><path class="cls-1" d="M668.29607,389.35226a20.6347,20.6347,0,0,1,.48024-2.39792q.48024-2.07776,1.3182-5.31527.84041-3.2367,1.87848-7.393,1.03643-4.15552,2.1578-8.55279,1.11974-4.39564,2.15943-8.83211,1.03643-4.43729,1.91768-8.19343a1.33288,1.33288,0,0,1,.55864-.55864c.32016-.21235.65338-.41326.99968-.59948s.67952-.37243.99968-.56028a1.16876,1.16876,0,0,0,.55864-.51944,1.33455,1.33455,0,0,0-.16008-.8396q-.24012-.51944-.51944-1.07808c-.18621-.37243-.35936-.72036-.51944-1.03888a1.20019,1.20019,0,0,1-.16008-.80039q.6395-2.237,1.03888-3.51684c.26789-.851.4541-1.279.56028-1.279h17.58418q.24012,0,.96047,3.15748.72036,3.15829,1.6792,8.11339.958,4.95673,2.117,11.06995,1.15649,6.11567,2.277,12.03042a2.61811,2.61811,0,0,1-.15845,1.23816c-.16008.4541-.34793.90657-.56028,1.359q-.31852.68115-.55864,1.359a2.36477,2.36477,0,0,0-.16008,1.15812,2.06865,2.06865,0,0,0,.59948.88043,7.6335,7.6335,0,0,0,.91964.71872c.32016.214.624.428.918.64032a1.21125,1.21125,0,0,1,.51944.79876q.72036,3.837,1.15976,6.315.43858,2.47714.4394,2.6364,0,.321-2.03692.4002-2.03856.08086-4.67822.08-1.51912,0-3.07744-.0392-1.55832-.04165-2.79648-.08a16.69493,16.69493,0,0,1-1.99935-.16008c-.50637-.08-.75792-.147-.75792-.20092q0-.31852-.24012-2.43712-.24012-2.117-.63868-5.47535h-7.674q-.48024,3.51847-.80039,5.63543-.31852,2.11941-.31852,2.277c0,.0539-.22705.10781-.67952.16008-.45247.0539-1.05358.09474-1.79844.12088-.74812.02614-1.59752.0539-2.558.08q-1.43826.0392-2.95656.0392-1.51912,0-2.95819-.0392-1.43826-.0392-2.558-.08-1.11974-.0392-1.79844-.12088C668.52149,389.46007,668.29607,389.40617,668.29607,389.35226Zm23.34049-21.42117q-.56109-3.516-1.2398-7.03367-.68115-3.516-1.3182-6.87359-.56109,3.35676-1.15812,6.87359-.60275,3.51847-1.23979,7.03367Z"/><path class="cls-1" d="M713.69642,338.19724q1.11729-.15926,3.67691-.24012,2.558-.07841,5.43452-.08,2.47959,0,4.79583.08,2.31788.08086,3.99871.24012c0,.16008-.0294.91964-.08167,2.27867q-.07841,2.03611-.19928,5.23523-.12006,3.19749-.27932,7.27379-.16171,4.07466-.32016,8.512-.15926,4.43729-.31852,8.87295-.16171,4.43484-.24175,8.27183h5.43615a2.59149,2.59149,0,0,1,1.31983.48024q.75711.48024,1.47665.99968.72036.51944,1.31983.998a1.83278,1.83278,0,0,0,.8396.48024.89766.89766,0,0,0,.64032-.35936,7.85814,7.85814,0,0,0,.63868-.8396q.31852-.48024.59948-.8788a.76466.76466,0,0,1,.59948-.4002q1.67838.16171,3.11664.19928,1.43826.04165,2.23947.12088.637,0,.8788,1.51748a30.50238,30.50238,0,0,1,.32016,3.35839,30.08907,30.08907,0,0,1-.04084,3.476,5.91972,5.91972,0,0,1-.361,2.03856,9.37083,9.37083,0,0,1-2.55636.24012q-2.39873.07841-5.99479.08-3.59688,0-7.71482-.04084-4.11632-.04165-7.71319-.11924-4.23637-.08086-8.311-.16008v-.16008h-.56028q0-.39938-.11924-2.19864-.12251-1.79844-.24012-3.99544-.12006-2.19782-.24012-4.23719-.12006-2.03856-.12088-2.75728c0-.10617.10781-.24012.32016-.4002.21235-.15845.46717-.33159.75956-.51944a3.55469,3.55469,0,0,0,.75956-.63868,1.22855,1.22855,0,0,0,.32016-.8396,1.25247,1.25247,0,0,0-.441-.95884,5.48022,5.48022,0,0,0-.918-.67952q-.48024-.27932-.91964-.48024c-.29239-.13231-.4394-.27932-.4394-.4394q0-.15926-.12088-2.39792-.11761-2.237-.23848-5.59459-.12006-3.35676-.32016-7.35383-.20092-3.99626-.32016-7.674-.11761-3.67528-.23848-6.51423C713.73562,340.10349,713.69642,338.83593,713.69642,338.19724Z"/><path class="cls-1" d="M786.67281,337.95713h15.90662a12.27748,12.27748,0,0,1,4.11632.72036,10.81219,10.81219,0,0,1,3.67691,2.197,11.11544,11.11544,0,0,1,2.67724,3.837,13.919,13.919,0,0,1,1.03888,5.63543,16.41751,16.41751,0,0,1-1.7184,7.59395,9.02347,9.02347,0,0,1-4.3548,4.47568,11.40332,11.40332,0,0,1,2.75728,1.55832,10.77168,10.77168,0,0,1,2.35871,2.51716,12.51754,12.51754,0,0,1,1.63673,3.55767,17.22791,17.22791,0,0,1,.60111,4.835.50242.50242,0,0,1-.441.56028,5.31817,5.31817,0,0,1-.95884.08,4.074,4.074,0,0,0-.998.11924.69312.69312,0,0,0-.56028.59948.79639.79639,0,0,0,.31852.80039,6.14689,6.14689,0,0,0,.92127.59948,6.27941,6.27941,0,0,1,.918.59948.58458.58458,0,0,1,.24012.71872,18.44626,18.44626,0,0,1-1.99772,4.35643,14.454,14.454,0,0,1-3.07744,3.51684,14.08632,14.08632,0,0,1-4.27639,2.35871,16.669,16.669,0,0,1-5.59623.8788H780.35785q-1.11729-.08086-2.31624-.12088-1.20059-.0392-2.39792-.11924V352.9049c0-.10617.10454-.22705.31852-.35936q.31852-.20092.75956-.52107a4.75419,4.75419,0,0,0,.75956-.67952,1.12694,1.12694,0,0,0,.31852-.75792,1.35054,1.35054,0,0,0-.43777-1.04051,5.616,5.616,0,0,0-.91964-.67789q-.48024-.27932-.91964-.48024c-.294-.13231-.4394-.27932-.4394-.4394s-.0147-.56028-.04084-1.199q-.0392-.96047-.11924-2.35871-.08086-1.39661-.11924-3.0366-.04165-1.63673-.04084-3.15748,1.6-.15926,4.99675-.27932Q783.156,337.79786,786.67281,337.95713Zm10.95071,18.54465a4.10337,4.10337,0,0,0,2.75728-.91964,2.72252,2.72252,0,0,0,1.07972-2.1186,4.80206,4.80206,0,0,0-.16008-1.23816,2.37308,2.37308,0,0,0-.63868-1.07972,3.3285,3.3285,0,0,0-1.359-.75956,7.53911,7.53911,0,0,0-2.23784-.27932h-6.395v6.395ZM790.83,369.61028q.07841,1.84009.08,3.63608v3.63771h7.19375a4.67293,4.67293,0,0,0,1.39824-.24012,5.88411,5.88411,0,0,0,1.43908-.67952,4.19,4.19,0,0,0,1.15812-1.11892,2.63023,2.63023,0,0,0,.48024-1.55832,3.359,3.359,0,0,0-1.11892-2.75728,5.81486,5.81486,0,0,0-3.67691-.91964Z"/><path class="cls-1" d="M821.36256,358.81966l.15845-4.39727c.26789-.15845.57334-.33159.92127-.51944a7.87783,7.87783,0,0,0,.998-.63868,4.00822,4.00822,0,0,0,.75956-.71872,1.133,1.133,0,0,0,.27932-.67952,1.67877,1.67877,0,0,0-1.15812-1.359,7.3383,7.3383,0,0,1-1.95852-1.279l.4002-9.1931a1.26972,1.26972,0,0,1,.67952-1.07808,5.38689,5.38689,0,0,1,1.7576-.67952,18.98917,18.98917,0,0,1,2.43712-.35936q1.35985-.12006,2.79811-.12088c.95884,0,1.88991.02777,2.79811.08a20.20086,20.20086,0,0,1,2.43712.27932,10.57764,10.57764,0,0,1,1.7184.441c.42633.15845.64032.34629.64032.55864v4.91671q0,3.31755-.16008,9.63087-.08086,5.83635.16008,9.951.24012,4.11877.23848,6.11567a15.43491,15.43491,0,0,0,.48024,3.9154,10.312,10.312,0,0,0,1.39824,3.19831,7.079,7.079,0,0,0,2.15943,2.1186,5.02587,5.02587,0,0,0,2.67724.75792,4.64677,4.64677,0,0,0,2.79811-.75792,5.26947,5.26947,0,0,0,1.63836-1.99935,9.20168,9.20168,0,0,0,.79876-2.95656,31.75427,31.75427,0,0,0,.19928-3.63771l.16008-17.66422-.16008-13.02846q0-1.11974,2.12023-1.47991a30.34956,30.34956,0,0,1,4.99512-.35936,41.58626,41.58626,0,0,1,4.91508.24012q1.9577.24012,1.95852,1.59916l.32016,17.4241-.32016,16.5453v3.917a.61515.61515,0,0,1-.48024.67952,6.02017,6.02017,0,0,1-1.03888.16008q-.55864.04165-1.07808.11924a.80288.80288,0,0,0-.67952.64032,1.6274,1.6274,0,0,0,.19928.95884q.27932.64195.64032,1.3182.35773.68115.63868,1.31983a1.18246,1.18246,0,0,1,.11924.95884,14.78452,14.78452,0,0,1-6.0732,5.91475q-4.39809,2.558-11.67106,2.558a29.1484,29.1484,0,0,1-10.5113-1.63836,19.76869,19.76869,0,0,1-6.79355-4.19635,14.99044,14.99044,0,0,1-3.71612-5.71547,19.96738,19.96738,0,0,1-1.199-6.19407Z"/><path class="cls-1" d="M870.91679,338.19724q1.11974-.15926,3.67855-.24012,2.558-.07841,5.43452-.08,2.47714,0,4.79583.08,2.31788.08086,3.99707.24012,0,.24012-.08,2.27867-.08086,2.03611-.20092,5.23523-.11761,3.19749-.27769,7.27379-.16171,4.07466-.32016,8.512-.16171,4.43729-.32016,8.87295-.16171,4.43484-.24012,8.27183h5.43452a2.58655,2.58655,0,0,1,1.31983.48024q.75956.48024,1.47828.99968c.4786.34629.91964.67952,1.3182.998a1.8406,1.8406,0,0,0,.8396.48024.89478.89478,0,0,0,.64032-.35936,8.08089,8.08089,0,0,0,.64032-.8396q.31852-.48024.59785-.8788a.76469.76469,0,0,1,.60111-.4002q1.67593.16171,3.11664.19928,1.43826.04165,2.23784.12088.637,0,.8788,1.51748a30.109,30.109,0,0,1,.32016,3.35839,30.47408,30.47408,0,0,1-.0392,3.476,5.96165,5.96165,0,0,1-.361,2.03856,9.38289,9.38289,0,0,1-2.55636.24012q-2.40118.07841-5.99479.08-3.59688,0-7.71482-.04084-4.11877-.04165-7.71319-.11924-4.23637-.08086-8.31267-.16008v-.16008h-.55864q0-.39938-.12088-2.19864-.12006-1.79844-.23848-3.99544-.12251-2.19782-.24175-4.23719-.11761-2.03856-.11924-2.75728c0-.10617.10617-.24012.32016-.4002q.31852-.23767.75956-.51944a3.58513,3.58513,0,0,0,.75792-.63868,1.22855,1.22855,0,0,0,.32016-.8396,1.25627,1.25627,0,0,0-.4394-.95884,5.49139,5.49139,0,0,0-.91964-.67952c-.32016-.18621-.62725-.34629-.918-.48024-.294-.13231-.441-.27932-.441-.4394q0-.15926-.11924-2.39792-.12006-2.237-.24012-5.59459-.11761-3.35676-.32016-7.35383-.19847-3.99626-.31852-7.674-.12006-3.67528-.24012-6.51423C870.95763,340.10349,870.91679,338.83593,870.91679,338.19724Z"/><path class="cls-1" d="M924.1512,337.95713q2.879,0,6.27575-.0392,3.396-.0392,6.39336-.04084h7.393q.55864,0,1.12055,1.59916a15.5173,15.5173,0,0,1,.75792,3.556,11.04373,11.04373,0,0,1-.15845,3.55767q-.36018,1.6-1.72,1.59916c-.15845,0-.78569.0392-1.87684.11924q-1.63918.12006-4.27639.27932a1.35742,1.35742,0,0,1-1.11892-.71872,1.16424,1.16424,0,0,0-1.12055-.64032c-.05227,0-.147.09474-.27769.281q-.20092.27932-.48024.63868a3.14112,3.14112,0,0,1-.67952.64032,1.39165,1.39165,0,0,1-.80039.27932h-4.87424q-.16171,2.31788-.24012,4.99512-.08086,2.68051-.16008,5.47535,1.9185-.15926,4.39564-.24012,2.47714-.07841,4.71743-.15845,2.23457-.08086,3.87456-.04084a6.949,6.949,0,0,1,1.96015.19928c.32016.16008.50474.77426.55864,1.83927a30.54479,30.54479,0,0,1-.0392,3.4368,29.41932,29.41932,0,0,1-.4002,3.35676q-.28177,1.51912-.67952,1.51912-.24012,0-1.91931-.04084-1.67593-.0392-3.9154-.07841-2.23947-.04165-4.67659-.16008-2.44039-.12006-4.27639-.20092-.07841,2.56045-.11924,4.99675-.04165,2.43794-.11924,4.675h5.43452a2.5818,2.5818,0,0,1,1.3182.48024q.75956.48024,1.47991.99968.7179.51944,1.3182.998a1.8406,1.8406,0,0,0,.8396.48024.889.889,0,0,0,.63868-.35936,7.85971,7.85971,0,0,0,.64032-.8396q.31852-.48024.59948-.8788a.76233.76233,0,0,1,.59948-.4002q2.6364.16171,4.27639.27932,1.63673.12006,1.87848.12088,1.3574,0,1.7184,1.59752a11.18675,11.18675,0,0,1,.16008,3.55767,15.56319,15.56319,0,0,1-.76119,3.556q-.55864,1.6-1.11729,1.59916H914.39945v-.16008h-.55864q0-.39938-.12088-2.19864-.11761-1.79844-.23848-3.99544-.12006-2.19782-.24012-4.23719-.12006-2.03856-.11924-2.75728c0-.10617.10454-.24012.32016-.4002.21235-.15845.4639-.33159.75792-.51944a3.59517,3.59517,0,0,0,.75956-.63868,1.22855,1.22855,0,0,0,.32016-.8396,1.26179,1.26179,0,0,0-.4394-.95884,5.62768,5.62768,0,0,0-.91964-.67952q-.48024-.27932-.91964-.48024c-.294-.13231-.4394-.27932-.4394-.4394q0-.15926-.11924-2.39792-.12251-2.237-.24012-5.59459-.12006-3.35676-.32016-7.35383-.19847-3.99626-.31852-7.674-.12251-3.67528-.24175-6.51423c-.07841-1.88991-.11924-3.15748-.11924-3.79616q.72036-.07841,2.1578-.16008,1.44071-.07841,3.19831-.11924,1.75678-.0392,3.71612-.04084Q922.2327,337.87709,924.1512,337.95713Z"/><path class="cls-1" d="M952.60768,331.32365q1.67838-.15926,3.11664-.32016a25.43014,25.43014,0,0,1,2.79811-.16008,22.18251,22.18251,0,0,1,4.3156.48024,31.58265,31.58265,0,0,1,.441,5.35448,37.11012,37.11012,0,0,1-.51944,6.59427,27.52925,27.52925,0,0,1-1.7184,6.07483,7.172,7.172,0,0,1-3.15911,3.79779,3.92068,3.92068,0,0,1-1.83764.31852,6.78809,6.78809,0,0,1-1.91931-.27932,2.22589,2.22589,0,0,1-1.27736-.75956c.10454-.32016.30546-.8396.59785-1.55832q.441-1.08053.96047-2.39792.51944-1.3182.95884-2.67724a15.94377,15.94377,0,0,0,.59948-2.39792q-.79876-.07841-1.83927-.16008a6.75059,6.75059,0,0,1-1.51748-.24012,26.77587,26.77587,0,0,1-.361-2.9974q-.11761-1.71758-.07841-3.39759.0392-1.67838.16008-3.11664A16.93436,16.93436,0,0,1,952.60768,331.32365Z"/><path class="cls-1" d="M968.03242,392.23042q1.11729-.08086,3.35676-.19928,2.237-.12006,5.116-.16008,2.879-.04165,6.07483-.04084h6.19407q2.999,0,5.55539.04084,2.55555.0392,4.07548.0392c.10781,0,.20092.10617.281.32016a4.855,4.855,0,0,1,.19928.67952,5.15791,5.15791,0,0,0,.19928.67952c.08167.21235.17315.32016.281.32016.10617,0,.25155-.09474.4394-.281a4.16934,4.16934,0,0,0,.51944-.63868,6.27177,6.27177,0,0,1,.51944-.67952c.18621-.214.33159-.32016.4394-.32016q1.11729.07841,2.03856.12088c.61091.02614,1.132.06534,1.55832.11924a28.56786,28.56786,0,0,1,.48024,3.35676,32.10612,32.10612,0,0,1,.12088,3.51684q-.0441,1.67838-.20092,2.91736a3.99465,3.99465,0,0,1-.4002,1.56,13.08887,13.08887,0,0,1-2.23784.31852q-1.75923.15926-4.3156.24012-2.558.07841-5.55539.16008-2.99658.07841-5.99479.08-2.99658,0-5.63543-.04084-2.63885-.0392-4.39564-.11924a.60784.60784,0,0,1-.51944-.27932,4.313,4.313,0,0,1-.35936-.59948,4.62811,4.62811,0,0,0-.361-.59948.60963.60963,0,0,0-.51944-.281c-.15845,0-.4394.26625-.838.80039-.40183.53251-.67952.79876-.8396.79876q-2.95983-.24012-5.27607-.4786a6.52827,6.52827,0,0,1-.64032-2.638,28.16536,28.16536,0,0,1-.07841-3.71775,28.85851,28.85851,0,0,1,.31852-3.35676A5.14274,5.14274,0,0,1,968.03242,392.23042Z"/><path class="cls-1" d="M1023.82483,337.95713h15.905a12.27042,12.27042,0,0,1,4.11631.72036,10.81219,10.81219,0,0,1,3.67692,2.197,11.16252,11.16252,0,0,1,2.67887,3.837,13.94657,13.94657,0,0,1,1.03888,5.63543,16.45829,16.45829,0,0,1-1.7184,7.59395,9.02207,9.02207,0,0,1-4.35807,4.47568,11.3423,11.3423,0,0,1,2.75728,1.55832,10.70393,10.70393,0,0,1,2.35871,2.51716,12.56662,12.56662,0,0,1,1.64,3.55767,17.29654,17.29654,0,0,1,.59785,4.835.50119.50119,0,0,1-.43777.56028,5.33679,5.33679,0,0,1-.96047.08,4.10657,4.10657,0,0,0-.99968.11924.6914.6914,0,0,0-.55864.59948.79446.79446,0,0,0,.32016.80039,6.02633,6.02633,0,0,0,.918.59948,6.1276,6.1276,0,0,1,.91964.59948.58458.58458,0,0,1,.24012.71872,18.4513,18.4513,0,0,1-1.99935,4.35643,14.454,14.454,0,0,1-3.07744,3.51684,14.04753,14.04753,0,0,1-4.27639,2.35871,16.64263,16.64263,0,0,1-5.593.8788h-19.50349c-.74812-.0539-1.51912-.09474-2.31951-.12088q-1.19814-.0392-2.39792-.11924V352.9049c0-.10617.10781-.22705.32016-.35936.21235-.13394.46717-.30709.75956-.52107a4.75419,4.75419,0,0,0,.75956-.67952,1.12911,1.12911,0,0,0,.32016-.75792,1.34207,1.34207,0,0,0-.441-1.04051,5.46906,5.46906,0,0,0-.918-.67789q-.48024-.27932-.91964-.48024c-.29239-.13231-.4394-.27932-.4394-.4394s-.01307-.56028-.0392-1.199q-.0441-.96047-.12088-2.35871-.08086-1.39661-.12088-3.0366-.0392-1.63673-.0392-3.15748,1.59752-.15926,4.99512-.27932Q1020.30473,337.79786,1023.82483,337.95713Zm10.94907,18.54465a4.11073,4.11073,0,0,0,2.75891-.91964,2.72558,2.72558,0,0,0,1.07808-2.1186,4.8021,4.8021,0,0,0-.16008-1.23816,2.39109,2.39109,0,0,0-.64032-1.07972,3.29974,3.29974,0,0,0-1.3574-.75956,7.53583,7.53583,0,0,0-2.23947-.27932h-6.39336v6.395Zm-6.79355,13.1085q.07841,1.84009.08,3.63608v3.63771h7.19375a4.67294,4.67294,0,0,0,1.39824-.24012,5.91243,5.91243,0,0,0,1.43908-.67952,4.2183,4.2183,0,0,0,1.15975-1.11892,2.64027,2.64027,0,0,0,.4786-1.55832,3.36384,3.36384,0,0,0-1.11892-2.75728,5.818,5.818,0,0,0-3.67692-.91964Z"/><path class="cls-1" d="M1072.26014,337.95713q2.879,0,6.27575-.0392,3.396-.0392,6.39336-.04084h7.393q.55864,0,1.12055,1.59916a15.51727,15.51727,0,0,1,.75792,3.556,11.04373,11.04373,0,0,1-.15845,3.55767q-.36018,1.6-1.72,1.59916c-.15845,0-.78569.0392-1.87684.11924q-1.63918.12006-4.27639.27932a1.35742,1.35742,0,0,1-1.11892-.71872,1.16424,1.16424,0,0,0-1.12055-.64032c-.05227,0-.147.09474-.27769.281q-.20092.27932-.48024.63868a3.14113,3.14113,0,0,1-.67952.64032,1.39165,1.39165,0,0,1-.80039.27932h-4.87424q-.16171,2.31788-.24012,4.99512-.08086,2.68051-.16008,5.47535,1.9185-.15926,4.39564-.24012,2.47714-.07841,4.71743-.15845,2.23457-.08086,3.87456-.04084a6.949,6.949,0,0,1,1.96015.19928c.32016.16008.50474.77426.55864,1.83927a30.54469,30.54469,0,0,1-.0392,3.4368,29.41939,29.41939,0,0,1-.4002,3.35676q-.28177,1.51912-.67952,1.51912-.24012,0-1.91931-.04084-1.67593-.0392-3.9154-.07841-2.23947-.04165-4.67659-.16008-2.44039-.12006-4.27639-.20092-.07841,2.56045-.11924,4.99675-.04165,2.43794-.11924,4.675h5.43452a2.58179,2.58179,0,0,1,1.3182.48024q.75956.48024,1.47991.99968.71791.51944,1.3182.998a1.84061,1.84061,0,0,0,.8396.48024.889.889,0,0,0,.63868-.35936,7.85964,7.85964,0,0,0,.64032-.8396q.31853-.48024.59948-.8788a.76233.76233,0,0,1,.59948-.4002q2.6364.16171,4.27639.27932,1.63673.12006,1.87848.12088,1.3574,0,1.7184,1.59752a11.18673,11.18673,0,0,1,.16008,3.55767,15.56319,15.56319,0,0,1-.76119,3.556q-.55864,1.6-1.11729,1.59916h-32.29347v-.16008h-.55864q0-.39938-.12088-2.19864-.11761-1.79844-.23848-3.99544-.12006-2.19782-.24012-4.23719-.12006-2.03856-.11924-2.75728c0-.10617.10454-.24012.32016-.4002.21235-.15845.4639-.33159.75792-.51944a3.59516,3.59516,0,0,0,.75956-.63868,1.22855,1.22855,0,0,0,.32016-.8396,1.26179,1.26179,0,0,0-.4394-.95884,5.62772,5.62772,0,0,0-.91964-.67952q-.48024-.27932-.91964-.48024c-.294-.13231-.4394-.27932-.4394-.4394q0-.15926-.11924-2.39792-.12251-2.237-.24012-5.59459-.12006-3.35676-.32016-7.35383-.19847-3.99626-.31852-7.674-.12251-3.67528-.24175-6.51423c-.07841-1.88991-.11924-3.15748-.11924-3.79616q.72036-.07841,2.1578-.16008,1.44071-.07841,3.19831-.11924,1.75678-.0392,3.71612-.04084Q1070.34164,337.87709,1072.26014,337.95713Z"/><path class="cls-1" d="M1102.71434,338.19724q1.11729-.15926,3.67692-.24012,2.558-.07841,5.43452-.08,2.47959,0,4.79583.08,2.31788.08086,3.99871.24012c0,.16008-.0294.91964-.08167,2.27867q-.07841,2.03611-.19928,5.23523-.12006,3.19749-.27932,7.27379-.16171,4.07466-.32016,8.512-.15926,4.43729-.31852,8.87295-.16171,4.43484-.24175,8.27183h5.43615a2.59149,2.59149,0,0,1,1.31984.48024q.75711.48024,1.47665.99968.72036.51944,1.31984.998a1.83278,1.83278,0,0,0,.8396.48024.89766.89766,0,0,0,.64032-.35936,7.85808,7.85808,0,0,0,.63868-.8396q.31852-.48024.59948-.8788a.76466.76466,0,0,1,.59948-.4002q1.67838.16171,3.11664.19928,1.43826.04165,2.23947.12088.637,0,.8788,1.51748a30.50224,30.50224,0,0,1,.32016,3.35839,30.08912,30.08912,0,0,1-.04084,3.476,5.91973,5.91973,0,0,1-.361,2.03856,9.37082,9.37082,0,0,1-2.55636.24012q-2.39873.07841-5.99479.08-3.59688,0-7.71482-.04084-4.11631-.04165-7.71319-.11924-4.23637-.08086-8.311-.16008v-.16008h-.56028q0-.39938-.11924-2.19864-.12251-1.79844-.24012-3.99544-.12006-2.19782-.24012-4.23719-.12006-2.03856-.12088-2.75728c0-.10617.10781-.24012.32016-.4002.21235-.15845.46717-.33159.75956-.51944a3.5547,3.5547,0,0,0,.75956-.63868,1.22856,1.22856,0,0,0,.32016-.8396,1.25247,1.25247,0,0,0-.441-.95884,5.48022,5.48022,0,0,0-.918-.67952q-.48024-.27932-.91964-.48024c-.29239-.13231-.4394-.27932-.4394-.4394q0-.15926-.12088-2.39792-.11761-2.237-.23849-5.59459-.12006-3.35676-.32016-7.35383-.20092-3.99626-.32016-7.674-.11761-3.67528-.23848-6.51423C1102.75354,340.10349,1102.71434,338.83593,1102.71434,338.19724Z"/><path class="cls-1" d="M1142.99869,338.19724q1.11974-.15926,3.67855-.24012,2.558-.07841,5.43452-.08,2.47714,0,4.79583.08,2.31788.08086,3.99707.24012,0,.24012-.08,2.27867-.08086,2.03611-.20092,5.23523-.11761,3.19749-.27769,7.27379-.16171,4.07466-.32016,8.512-.16171,4.43729-.32016,8.87295-.16171,4.43484-.24012,8.27183h5.43452a2.58655,2.58655,0,0,1,1.31983.48024q.75956.48024,1.47828.99968c.4786.34629.91964.67952,1.3182.998a1.84061,1.84061,0,0,0,.8396.48024.89478.89478,0,0,0,.64032-.35936,8.08091,8.08091,0,0,0,.64032-.8396q.31852-.48024.59785-.8788a.76469.76469,0,0,1,.60111-.4002q1.67593.16171,3.11664.19928,1.43826.04165,2.23784.12088.637,0,.8788,1.51748a30.10894,30.10894,0,0,1,.32016,3.35839,30.474,30.474,0,0,1-.0392,3.476,5.96162,5.96162,0,0,1-.361,2.03856,9.38289,9.38289,0,0,1-2.55636.24012q-2.40118.07841-5.99479.08-3.59688,0-7.71482-.04084-4.11876-.04165-7.71319-.11924-4.23637-.08086-8.31267-.16008v-.16008h-.55864q0-.39938-.12088-2.19864-.12006-1.79844-.23849-3.99544-.12251-2.19782-.24175-4.23719-.11761-2.03856-.11924-2.75728c0-.10617.10618-.24012.32016-.4002q.31852-.23767.75956-.51944a3.58513,3.58513,0,0,0,.75792-.63868,1.22856,1.22856,0,0,0,.32016-.8396,1.25627,1.25627,0,0,0-.4394-.95884,5.49138,5.49138,0,0,0-.91964-.67952c-.32016-.18621-.62725-.34629-.918-.48024-.294-.13231-.441-.27932-.441-.4394q0-.15926-.11924-2.39792-.12006-2.237-.24012-5.59459-.11761-3.35676-.32016-7.35383-.19846-3.99626-.31852-7.674-.12006-3.67528-.24012-6.51423C1143.03952,340.10349,1142.99869,338.83593,1142.99869,338.19724Z"/><path class="cls-1" d="M1183.283,338.19724q1.11973-.15926,3.67855-.24012,2.558-.07841,5.43452-.08,2.47714,0,4.79583.08,2.31788.08086,3.99707.24012v6.87359a.97626.97626,0,0,1-.51944.75956c-.34793.24012-.71872.508-1.12055.79876a13.3571,13.3571,0,0,0-1.07808.88043,1.256,1.256,0,0,0-.48024.918,1.18237,1.18237,0,0,0,.4002.91964,9.21056,9.21056,0,0,0,.91964.72036,9.24081,9.24081,0,0,1,.95884.75792,1.34628,1.34628,0,0,1,.4394,1.04051q-.16171,5.116-.35936,10.66975-.20092,5.557-.39856,10.67138-.20091,5.116-.32016,9.31235-.12251,4.19472-.12088,6.59427a41.10036,41.10036,0,0,1-6.114.838,55.75513,55.75513,0,0,1-7.47307-.11924q0-.39938-.12088-2.19864-.12006-1.79844-.23849-3.99544-.12251-2.19782-.24175-4.23719-.11761-2.03856-.11924-2.83732c0-.10617.10618-.22542.32016-.35936q.31852-.19847.75956-.51944a4.74013,4.74013,0,0,0,.75792-.67952,1.13291,1.13291,0,0,0,.32016-.75956,1.34041,1.34041,0,0,0-.4394-1.03888,5.49139,5.49139,0,0,0-.91964-.67952c-.32016-.18621-.62725-.34629-.918-.48024-.294-.13231-.441-.27932-.441-.4394q0-.15926-.11924-2.39792-.12006-2.237-.24012-5.63543-.11761-3.396-.32016-7.393-.19846-3.99626-.31852-7.674-.12006-3.67528-.24012-6.4734T1183.283,338.19724Z"/><path class="cls-1" d="M1223.40894,338.43736l11.03075,18.7031q-.08086-2.87652.0392-6.114.12006-3.2367.281-6.07483.15681-2.83732.27769-4.71579.12251-1.87684.12088-1.95852,1.03888-.15926,3.27672-.27932,2.23947-.12006,4.79583-.12088,1.99935,0,3.79616.08a20.34455,20.34455,0,0,1,2.999.32016q0,.08086-.04084,1.359-.04165,1.279-.11924,3.11664-.08086,1.84009-.12088,3.95624-.0392,2.11941-.11924,3.95787-.08086,1.83764-.11924,3.11664-.04165,1.279-.04084,1.43908c0,.10781-.147.26625-.4394.4786q-.441.321-.99968.67952a11.033,11.033,0,0,0-.99968.72036.96268.96268,0,0,0-.43777.67952c0,.16008.13068.34629.39856.55864.26625.214.56028.4394.8788.67952.32016.24012.61255.46717.88043.67952.26625.214.4002.37406.4002.48024q0,.08086-.12088,2.23784-.12006,2.15862-.27932,5.35448-.16171,3.19749-.361,6.95527-.19846,3.75614-.35936,6.95363-.16171,3.19749-.27932,5.43452-.12006,2.23947-.11924,2.39792,0,.16171-1.91768.24012-1.92095.08086-4.15715.08-2.08021,0-3.67691-.08-1.6-.07841-1.59916-.24012l-10.94907-18.543q-.16171,2.79811-.361,5.6338-.20092,2.83977-.4002,5.27607-.20091,2.44039-.32016,4.23719-.11761,1.79844-.11924,2.67724a42.17125,42.17125,0,0,1-5.5946.75956,55.37536,55.37536,0,0,1-6.95527-.04084q0-.39938-.07841-2.197-.08086-1.79844-.19928-3.99707-.12251-2.19782-.24175-4.19635-.11761-1.9969-.11924-2.79811c0-.10617.10618-.22542.32016-.35936a5.067,5.067,0,0,0,.67952-.51944,8.0832,8.0832,0,0,0,.67952-.67952,1.13073,1.13073,0,0,0,.31852-.75956,1.41378,1.41378,0,0,0-.39856-1.03888,4.39357,4.39357,0,0,0-.8788-.67952c-.32016-.18621-.61418-.34629-.8788-.48024-.26789-.13231-.40183-.27932-.40183-.4394q0-.15926-.07841-2.39792-.08086-2.237-.24012-5.5946-.16171-3.35676-.27932-7.313-.12251-3.95705-.281-7.55475-.16171-3.59688-.23849-6.35415-.08331-2.75646-.08167-3.71612a28.882,28.882,0,0,1,2.95819-.24012q1.9185-.07841,4.23556-.08,1.84009,0,3.67855.08Q1221.88983,338.2781,1223.40894,338.43736Z"/><path class="cls-1" d="M1256.02094,380.24083a31.6637,31.6637,0,0,1,1.51748-3.23751q.87962-1.63673,1.91931-3.476c.16008-.21235.4639-.12088.918.27932q.6787.59785,1.47991,1.39824.79631.80121,1.55832,1.47828.75956.68115.99968.52107.23767-.15926-.08167-1.39987-.31853-1.23734-.8396-2.75728-.51944-1.51667-.918-2.83732c-.26789-.8788-.34629-1.39987-.24012-1.55832q1.6-2.558,3.47763-5.116,1.87684-2.558,3.71612-4.87587,1.83764-2.31788,3.4368-4.39564a45.67444,45.67444,0,0,0,2.638-3.757q-3.11664-.07841-6.315-.16008-3.19749-.07841-5.83471-.16008-2.6364-.07841-4.3548-.16008a8.81227,8.81227,0,0,1-1.80007-.16008q-.24012-.15926-.32016-2.03856-.07841-1.87684-.0392-4.07548.0392-2.19782.19928-3.99707.16171-1.79844.4002-1.87848a8.71252,8.71252,0,0,1,1.51912-.11924q1.27655-.0392,3.19668-.08,1.9185-.0392,4.35643-.04084h12.38978q3.71448,0,6.75272.04084,3.03823.04165,5.03759.08a11.71658,11.71658,0,0,1,2.07776.11924q.31853.16171.16008,3.19831a4.62864,4.62864,0,0,1-1.359.19928q-1.3623.12006-2.999.24012t-2.99576.23848a4.5543,4.5543,0,0,0-1.359.20092c0,.10781.4394.26625,1.3182.4786.88043.214,1.86378.441,2.95819.67952q1.63672.36018,2.95656.67952c.8788.214,1.31983.37406,1.31983.48024q-.08086,1.43826-.16008,2.19863a3.64769,3.64769,0,0,1-.32016,1.23816,80.0038,80.0038,0,0,1-4.11631,7.35383q-2.35708,3.75859-4.79583,7.47307-2.44039,3.71693-4.75663,7.23459-2.31788,3.51847-4.07548,6.79355,3.35676.08086,6.71515.16008,3.35676.08086,6.0732.16008,2.71726.08086,4.47568.16008a9.3373,9.3373,0,0,1,1.83928.16008c.10617.05227.18621.41326.24012,1.07808q.07841.99968.15845,2.43875.08086,1.43826.08167,3.0366,0,1.6-.04084,2.9974-.04165,1.39906-.16008,2.35871-.12006.958-.27932,1.03888c-.0539,0-.33323.01143-.8396.0392-.50637.02614-1.13362.04084-1.87848.04084h-2.47632q-1.3623,0-2.71807.08c-.26789,0-.48024-.18785-.64032-.56028a9.932,9.932,0,0,1-.4394-1.279,7.2648,7.2648,0,0,0-.4786-1.279.85238.85238,0,0,0-.76119-.55864,1.40258,1.40258,0,0,0-.998.59948q-.52189.59785-1.07972,1.3182-.55864.72036-1.07808,1.3182a1.459,1.459,0,0,1-1.07972.59948h-8.27347q-4.19472,0-7.67235-.0392-3.47682-.04165-5.67627-.08a6.882,6.882,0,0,1-2.277-.19928v-.16008a16.01821,16.01821,0,0,1-.16008-3.19668q.0784-1.6.24012-2.95819c.10618-.90494.21235-1.6792.31852-2.31788C1255.887,380.87951,1255.9654,380.45481,1256.02094,380.24083Z"/><path class="cls-1" d="M1296.62382,389.35226a20.6347,20.6347,0,0,1,.48024-2.39792q.47779-2.07776,1.3182-5.31527.838-3.2367,1.87848-7.393,1.03888-4.15552,2.15943-8.55279,1.11729-4.39564,2.15617-8.83211,1.03888-4.43729,1.91931-8.19343a1.33951,1.33951,0,0,1,.56028-.55864c.31852-.21235.65012-.41326.998-.59948q.51944-.27932.99968-.56028a1.19932,1.19932,0,0,0,.56028-.51944,1.33455,1.33455,0,0,0-.16008-.8396q-.24012-.51944-.51944-1.07808c-.18948-.37243-.361-.72036-.51944-1.03888a1.18109,1.18109,0,0,1-.16008-.80039q.637-2.237,1.03888-3.51684c.26462-.851.45083-1.279.55864-1.279h17.58581q.24012,0,.95721,3.15748.72036,3.15829,1.6792,8.11339.96047,4.95673,2.11859,11.06995,1.15894,6.11567,2.27868,12.03042a2.62069,2.62069,0,0,1-.16008,1.23816c-.16008.4541-.34793.90657-.55864,1.359a14.22672,14.22672,0,0,0-.56191,1.359,2.38064,2.38064,0,0,0-.15845,1.15812,2.06864,2.06864,0,0,0,.59948.88043,7.74843,7.74843,0,0,0,.918.71872q.48024.321.92127.64032a1.22928,1.22928,0,0,1,.51944.79876q.7179,3.837,1.15812,6.315.43858,2.47714.4394,2.6364,0,.321-2.03856.4002-2.03856.08086-4.675.08-1.51912,0-3.07743-.0392c-1.03888-.02777-1.97322-.0539-2.79812-.08a16.66317,16.66317,0,0,1-1.99772-.16008q-.75956-.12006-.75956-.20092,0-.31852-.24012-2.43712-.24012-2.117-.64032-5.47535h-7.67235q-.48024,3.51847-.79876,5.63543-.321,2.11941-.32016,2.277c0,.0539-.22868.10781-.67952.16008-.4541.0539-1.05195.09474-1.79844.12088s-1.59916.0539-2.558.08-1.94545.0392-2.95819.0392-1.99772-.01307-2.95656-.0392-1.81314-.0539-2.558-.08q-1.11973-.0392-1.79844-.12088C1296.85087,389.46007,1296.62382,389.40617,1296.62382,389.35226Zm23.34049-21.42117q-.56109-3.516-1.23816-7.03367-.68115-3.516-1.31984-6.87359-.55864,3.35676-1.15975,6.87359-.59785,3.51847-1.23816,7.03367Z"/><path class="cls-1" d="M1340.02644,360.73734a33.86666,33.86666,0,0,1,1.59752-11.31007,19.26592,19.26592,0,0,1,4.87751-7.55311c.16008-.16008.4639-.18621.918-.08.45247.10781.96047.22705,1.51912.35936q.838.20092,1.51912.35936a1.27441,1.27441,0,0,0,.918,0,2.23713,2.23713,0,0,0-.0392-.918q-.12006-.6787-.281-1.39987-.15926-.71791-.27769-1.3182c-.08167-.4002-.0686-.62561.0392-.67952a16.56787,16.56787,0,0,1,4.75663-2.1186,19.90771,19.90771,0,0,1,4.91508-.59948,24.52116,24.52116,0,0,1,8.35187,1.2398,17.6686,17.6686,0,0,1,5.63543,3.19668,14.93428,14.93428,0,0,1,3.51847,4.47568,22.58887,22.58887,0,0,1,1.87684,5.116,28.66258,28.66258,0,0,1,.72035,4.95591q.11761,2.35953.11924,4.11632c0,.214-.214.4002-.63868.56028a8.80058,8.80058,0,0,1-1.64.39856q-.99968.16171-2.23784.24012-1.23979.08086-2.51716.08a26.25034,26.25034,0,0,1-4.07711-.27932c-1.17119-.18621-1.75923-.46717-1.75923-.8396q0-4.71661-1.59752-7.15455a5.35814,5.35814,0,0,0-4.79583-2.43712,4.88157,4.88157,0,0,0-3.71775,1.47828,10.14046,10.14046,0,0,0-2.15617,3.59688,18.83869,18.83869,0,0,0-.99968,4.51651q-.24012,2.39873-.24012,4.3156a50.72376,50.72376,0,0,0,.56028,8.31267,17.8125,17.8125,0,0,0,1.51748,5.116,5.96589,5.96589,0,0,0,2.23947,2.558,5.4432,5.4432,0,0,0,2.71644.71872,8.70165,8.70165,0,0,0,5.39531-1.39824,4.47087,4.47087,0,0,0,1.79844-3.71612q-.6395,0-2.71644.08a15.61673,15.61673,0,0,1-3.917-.32016v-8.79291c0-.10617.22542-.21235.67952-.32016a11.89071,11.89071,0,0,1,1.83764-.23848q1.15894-.08086,2.638-.12088,1.47746-.0392,3.07744-.0392,2.07776,0,4.11631.08,2.03856.08086,3.67692.19928a18.19333,18.19333,0,0,1,2.67724.35936q1.03888.24012,1.03888.48024a43.7263,43.7263,0,0,1-1.27737,10.82983,30.12735,30.12735,0,0,1-3.11827,8.03335.75909.75909,0,0,1-.63868.32016,4.72189,4.72189,0,0,1-1.91931-.51944q-1.11973-.51944-1.67756-.04084a1.59477,1.59477,0,0,0,.16008.91964c.15845.4002.33.79876.51944,1.199a9.00356,9.00356,0,0,1,.43777,1.11892.58892.58892,0,0,1-.23849.75956,18.31878,18.31878,0,0,1-5.51619,2.638,21.91583,21.91583,0,0,1-6.31332.95884,25.34782,25.34782,0,0,1-8.83374-1.359,17.76515,17.76515,0,0,1-6.114-3.71612,17.20213,17.20213,0,0,1-3.8762-5.47535,31.61147,31.61147,0,0,1-2.1186-6.59427,48.253,48.253,0,0,1-.91964-7.19375Q1340.02481,364.175,1340.02644,360.73734Z"/><path class="cls-1" d="M1385.6669,363.05521a50.01391,50.01391,0,0,1,.838-9.71091,28.87094,28.87094,0,0,1,2.35871-7.23459,1.07145,1.07145,0,0,1,.67952-.59948,8.30874,8.30874,0,0,1,.99968-.19928c.37243-.05227.74486-.09311,1.11892-.11924a2.13835,2.13835,0,0,0,.95884-.281,9.34791,9.34791,0,0,0-.0392-2.558,2.36678,2.36678,0,0,1,.43777-2.07776,16.65621,16.65621,0,0,1,6.35579-3.71612,23.70894,23.70894,0,0,1,7.07451-1.07972q9.7493,0,15.30551,7.35383,5.557,7.35546,5.55539,21.82137a59.38022,59.38022,0,0,1-.31852,6.27411,40.95435,40.95435,0,0,1-1.03888,5.79551,2.3706,2.3706,0,0,1-.92127,1.7184,9.279,9.279,0,0,1-1.79681,1.3182c0,.32016.01144.72036.0392,1.199a8.82375,8.82375,0,0,1-.0392,1.43908c-.05554.48024-.10781.8935-.16008,1.23979a.95946.95946,0,0,1-.32016.67952,17.83177,17.83177,0,0,1-6.39336,5.79388,20.70938,20.70938,0,0,1-9.91182,2.1186q-10.79063,0-15.78738-7.393Q1385.66609,377.44517,1385.6669,363.05521Zm21.58125,16.70538a5.63188,5.63188,0,0,0,2.23784-.4786,4.26149,4.26149,0,0,0,1.95852-2.1186,16.98364,16.98364,0,0,0,1.359-4.75663,54.11325,54.11325,0,0,0,.51944-8.47112q0-2.71726-.19928-5.39531a20.23976,20.23976,0,0,0-.88043-4.75663,8.18748,8.18748,0,0,0-2.03692-3.39759,5.17411,5.17411,0,0,0-3.757-1.3182q-3.03823,0-4.27639,3.556-1.2398,3.55767-1.23979,11.39011,0,2.879.08,5.71547a22.04243,22.04243,0,0,0,.67952,5.07516,8.25078,8.25078,0,0,0,1.87848,3.59851A4.80236,4.80236,0,0,0,1407.24816,379.76059Z"/><path class="cls-1" d="M1452.08822,360.97746a38.50644,38.50644,0,0,1,1.67919-11.27086,34.85688,34.85688,0,0,1,4.71579-9.871,28.32047,28.32047,0,0,1,7.313-7.27379,20.4352,20.4352,0,0,1,9.47242-3.476,4.13822,4.13822,0,0,1,1.11892,1.3574,8.82182,8.82182,0,0,1,.75956,1.91931,15.06,15.06,0,0,1,.4002,1.99772,4.48292,4.48292,0,0,1-.04084,1.59916,17.95206,17.95206,0,0,0-3.4368,3.396,21.064,21.064,0,0,0-2.95819,5.35611,40.4403,40.4403,0,0,0-2.07776,7.754,60.9845,60.9845,0,0,0-.79876,10.50967,48.91991,48.91991,0,0,0,.998,10.55214,37.9557,37.9557,0,0,0,2.39792,7.51228,19.55953,19.55953,0,0,0,2.91736,4.75663,10.443,10.443,0,0,0,2.558,2.277c.16008.10781.21235.46717.16008,1.07972a13.73111,13.73111,0,0,1-.918,3.79616q-.36018.87962-.60111.88043a25.61347,25.61347,0,0,1-10.18951-3.757,26.30706,26.30706,0,0,1-7.43387-7.23459,32.338,32.338,0,0,1-4.51651-9.951A45.2788,45.2788,0,0,1,1452.08822,360.97746Z"/><path class="cls-1" d="M1496.60976,338.43736l11.02911,18.7031q-.07841-2.87652.04084-6.114.12006-3.2367.27932-6.07483.16171-2.83732.281-4.71579.11761-1.87684.11924-1.95852,1.03643-.15926,3.27835-.27932,2.23457-.12006,4.79583-.12088c1.32964,0,2.5972.02777,3.79616.08a20.2438,20.2438,0,0,1,2.99576.32016q0,.08086-.0392,1.359-.0392,1.279-.11924,3.11664-.08086,1.84009-.11924,3.95624-.0441,2.11941-.12088,3.95787-.08086,1.83764-.12088,3.11664-.0392,1.279-.0392,1.43908c0,.10781-.147.26625-.4394.4786-.29239.214-.62725.441-.998.67952a10.38307,10.38307,0,0,0-.99968.72036.96352.96352,0,0,0-.441.67952c0,.16008.13394.34629.4002.55864.26625.214.56028.4394.88043.67952q.47779.36018.8788.67952c.26462.214.39856.37406.39856.48024q0,.08086-.11924,2.23784-.12006,2.15862-.27932,5.35448-.16171,3.19749-.35936,6.95527-.20092,3.75614-.35936,6.95363-.16171,3.19749-.281,5.43452-.12006,2.23947-.12088,2.39792,0,.16171-1.91768.24012c-1.27736.0539-2.6658.08-4.15552.08q-2.08021,0-3.67692-.08-1.6-.07841-1.59916-.24012l-10.9507-18.543q-.16171,2.79811-.35936,5.6338-.20091,2.83977-.39856,5.27607-.20091,2.44039-.32016,4.23719-.12251,1.79844-.12087,2.67724a42.13448,42.13448,0,0,1-5.5946.75956,55.34926,55.34926,0,0,1-6.95363-.04084q0-.39938-.08167-2.197-.07841-1.79844-.19928-3.99707-.11761-2.19782-.23849-4.19635-.12251-1.9969-.12088-2.79811c0-.10617.10617-.22542.32016-.35936a5.06693,5.06693,0,0,0,.67952-.51944,8.33542,8.33542,0,0,0,.67952-.67952,1.13291,1.13291,0,0,0,.32016-.75956,1.40847,1.40847,0,0,0-.4002-1.03888,4.35761,4.35761,0,0,0-.88043-.67952c-.31852-.18621-.61255-.34629-.8788-.48024-.26789-.13231-.39856-.27932-.39856-.4394q0-.15926-.08167-2.39792-.07841-2.237-.23848-5.5946-.16171-3.35676-.281-7.313-.11761-3.95705-.27769-7.55475-.16171-3.59688-.24175-6.35415-.07841-2.75646-.07841-3.71612a28.8841,28.8841,0,0,1,2.95656-.24012q1.9185-.07841,4.23719-.08,1.83764,0,3.67528.08Q1495.089,338.2781,1496.60976,338.43736Z"/><path class="cls-1" d="M1529.22013,363.05521a50.00453,50.00453,0,0,1,.8396-9.71091,28.80491,28.80491,0,0,1,2.35871-7.23459,1.07145,1.07145,0,0,1,.67952-.59948,8.18114,8.18114,0,0,1,.99968-.19928c.3708-.05227.74486-.09311,1.11729-.11924a2.13907,2.13907,0,0,0,.96047-.281,9.3536,9.3536,0,0,0-.04084-2.558,2.36664,2.36664,0,0,1,.4394-2.07776,16.6502,16.6502,0,0,1,6.35415-3.71612,23.71689,23.71689,0,0,1,7.07451-1.07972q9.7493,0,15.30714,7.35383,5.55458,7.35546,5.55376,21.82137a59.38022,59.38022,0,0,1-.31852,6.27411,40.72313,40.72313,0,0,1-1.03888,5.79551,2.37384,2.37384,0,0,1-.91964,1.7184,9.2863,9.2863,0,0,1-1.79844,1.3182c0,.32016.01143.72036.04084,1.199a8.82448,8.82448,0,0,1-.04084,1.43908c-.0539.48024-.10617.8935-.16008,1.23979a.9591.9591,0,0,1-.31852.67952,17.83671,17.83671,0,0,1-6.395,5.79388,20.70043,20.70043,0,0,1-9.91182,2.1186q-10.79063,0-15.78738-7.393Q1529.22176,377.44517,1529.22013,363.05521Zm21.58125,16.70538a5.626,5.626,0,0,0,2.23784-.4786,4.27068,4.27068,0,0,0,1.96015-2.1186,17.03911,17.03911,0,0,0,1.359-4.75663,54.31512,54.31512,0,0,0,.51944-8.47112q0-2.71726-.20091-5.39531a20.15656,20.15656,0,0,0-.88043-4.75663,8.17043,8.17043,0,0,0-2.03692-3.39759,5.16887,5.16887,0,0,0-3.757-1.3182q-3.03823,0-4.27639,3.556-1.2398,3.55767-1.2398,11.39011,0,2.879.08167,5.71547a21.95351,21.95351,0,0,0,.67952,5.07516,8.23376,8.23376,0,0,0,1.87848,3.59851A4.79855,4.79855,0,0,0,1550.80138,379.76059Z"/><path class="cls-1" d="M1575.97951,329.08581a20.44182,20.44182,0,0,1,9.47243,3.476,28.34585,28.34585,0,0,1,7.313,7.27379,34.90416,34.90416,0,0,1,4.71743,9.871,38.55929,38.55929,0,0,1,1.67756,11.27086,45.4161,45.4161,0,0,1-1.51748,11.90955,32.3026,32.3026,0,0,1-4.51815,9.951,26.30118,26.30118,0,0,1-7.43224,7.23459,25.61168,25.61168,0,0,1-10.19115,3.757c-.16008,0-.361-.294-.59948-.88043a12.70284,12.70284,0,0,1-.59948-1.87848,12.937,12.937,0,0,1-.32016-1.91768q-.08086-.91882.16008-1.07972a10.50254,10.50254,0,0,0,2.558-2.277,19.61025,19.61025,0,0,0,2.91736-4.75663,37.95576,37.95576,0,0,0,2.39792-7.51228,49.02361,49.02361,0,0,0,.998-10.55214,60.98439,60.98439,0,0,0-.79876-10.50967,40.68077,40.68077,0,0,0-2.07776-7.754,21.064,21.064,0,0,0-2.95819-5.35611,17.85916,17.85916,0,0,0-3.4368-3.396,4.4129,4.4129,0,0,1-.0392-1.59916,14.54022,14.54022,0,0,1,.39856-1.99772,7.70207,7.70207,0,0,1,.80039-1.91931A5.3814,5.3814,0,0,1,1575.97951,329.08581Z"/></svg>