<?xml version="1.0" encoding="utf-8"?>
<!-- Generator: Adobe Illustrator 21.0.0, SVG Export Plug-In . SVG Version: 6.00 Build 0)  -->
<svg version="1.1" id="Livello_1" xmlns="http://www.w3.org/2000/svg" xmlns:xlink="http://www.w3.org/1999/xlink" x="0px" y="0px"
	 viewBox="0 0 1108.6 1032.4" style="enable-background:new 0 0 1108.6 1032.4;" xml:space="preserve">
<style type="text/css">
	.st0{fill:#002D5C;}
	.st1{fill:#D60057;}
	.st2{fill:#F7A800;}
	.st3{fill:#00AE8D;}
	.st4{fill:#FFFFFF;}
</style>
<title>Rugbeat_Templates IG</title>
<path class="st0" d="M635.1,352.9c0.2-0.9,1.3-2.3,3.3-4.2c2-1.9,4.5-3.9,7.3-6.1c2.9-2.2,5.9-4.3,9.2-6.3c2.8-1.8,5.7-3.4,8.6-4.8
	c1.5-0.3,3-0.5,4.5-0.5c2.4-0.2,5.1-0.2,8.2-0.2c3.2,0,6.4,0.1,9.5,0.2c3.1,0.2,5.3,0.3,6.7,0.5c0.3,1.4,0.4,2.8,0.4,4.2
	c0,2,0.1,4.5,0.2,7.6c-0.1,1-0.5,1.9-1.2,2.6c-0.7,0.8-1.2,1.9-1.2,3c0.1,1,0.5,2,1.3,2.7c0.8,0.7,1.3,1.7,1.4,2.7
	c0.1,6.7,0.1,14,0.1,22.1c-0.1,8.1-0.1,16.1-0.2,24c-0.1,8-0.2,15.4-0.4,22.4c-0.2,7-0.4,12.6-0.7,16.8c-0.1,0.3-0.7,0.6-1.7,0.9
	c-1.3,0.3-2.6,0.6-3.9,0.7c-1.6,0.2-3.3,0.3-5.1,0.4c-1.9,0.1-3.8,0.2-5.8,0.2c-2,0-4-0.1-5.9-0.2c-1.9-0.1-3.7-0.2-5.2-0.4
	c-1.3-0.1-2.5-0.3-3.8-0.7c-0.7-0.1-1.3-0.4-1.7-0.9c-0.2-4.4-0.3-9.1-0.3-14c0-4.9,0.1-9.9,0.2-15c0.1-0.6,0.4-1.1,1-1.4
	c0.7-0.4,1.4-0.8,2.1-1.1c0.7-0.3,1.4-0.7,2.1-1.1c0.5-0.2,0.9-0.8,1-1.4c0-0.3-0.3-0.7-1-1.1c-0.7-0.4-1.4-0.8-2.1-1.1
	c-0.7-0.3-1.4-0.7-2.1-1.1c-0.7-0.4-1-0.8-1-1.1c0.1-5.6,0.2-11.4,0.2-17.2c0-5.8,0.1-11.6,0.1-17.5c-0.5,0.4-1.3,1-2.3,1.9
	c-1.1,0.9-2.2,1.7-3.5,2.6c-1.2,0.8-2.4,1.6-3.6,2.3c-0.9,0.6-1.9,0.9-2.9,1c-1.1,0-2.4-1-3.8-2.9c-1.5-2.1-2.8-4.3-3.9-6.7
	c-1.1-2.4-2.1-4.8-2.9-7.3C635.5,356.2,635.2,354.5,635.1,352.9z"/>
<path class="st0" d="M793.4,422.1c1.4-0.1,3.5-0.2,6.4-0.4c2.8-0.2,6.1-0.3,9.7-0.3c3.6-0.1,7.5-0.1,11.5-0.1h11.7
	c3.8,0,7.3,0,10.5,0.1c3.2,0,5.8,0.1,7.7,0.1c0.2,0,0.4,0.2,0.5,0.6c0.2,0.4,0.3,0.8,0.4,1.3c0.1,0.4,0.2,0.9,0.4,1.3
	c0.2,0.4,0.3,0.6,0.5,0.6c0.2,0,0.5-0.2,0.8-0.5c0.4-0.4,0.7-0.8,1-1.2c0.3-0.5,0.6-0.9,1-1.3c0.4-0.4,0.6-0.6,0.8-0.6
	c1.4,0.1,2.7,0.2,3.9,0.2c1.2,0,2.1,0.1,3,0.2c0.4,2.1,0.7,4.2,0.9,6.4c0.2,2.2,0.3,4.4,0.2,6.7c0,1.8-0.2,3.7-0.4,5.5
	c0,1-0.3,2-0.8,3c-1.4,0.3-2.8,0.5-4.2,0.6c-2.2,0.2-4.9,0.4-8.2,0.5c-3.2,0.1-6.7,0.2-10.5,0.3c-3.8,0.1-7.6,0.2-11.4,0.2
	c-3.8,0-7.3,0-10.7-0.1c-3.3-0.1-6.1-0.1-8.3-0.2c-0.4,0-0.8-0.2-1-0.5c-0.3-0.4-0.5-0.7-0.7-1.1c-0.2-0.4-0.4-0.8-0.7-1.1
	c-0.2-0.3-0.6-0.5-1-0.5c-0.3,0-0.8,0.5-1.6,1.5c-0.8,1-1.3,1.5-1.6,1.5c-3.7-0.3-7.1-0.6-10-0.9c-0.8-1.6-1.2-3.3-1.2-5
	c-0.4-4.5-0.2-9,0.5-13.4C792.7,424.2,792.9,423.1,793.4,422.1z"/>
<path class="st0" d="M872,352.9c0.2-0.9,1.3-2.3,3.3-4.2c2-1.9,4.5-3.9,7.3-6.1c2.9-2.2,5.9-4.3,9.2-6.3c2.8-1.8,5.7-3.4,8.6-4.8
	c1.5-0.3,3-0.5,4.5-0.5c2.4-0.2,5.1-0.2,8.2-0.2c3.2,0,6.4,0.1,9.5,0.2c3.1,0.2,5.3,0.3,6.7,0.5c0.3,1.4,0.4,2.8,0.4,4.2
	c0,2,0.1,4.5,0.2,7.6c-0.1,1-0.5,1.9-1.2,2.7c-0.7,0.8-1.2,1.9-1.2,3c0.1,1,0.5,2,1.3,2.7c0.8,0.7,1.3,1.7,1.4,2.7
	c0.1,6.7,0.1,14,0.1,22.1c-0.1,8.1-0.1,16.1-0.2,24.1c-0.1,8-0.2,15.5-0.4,22.4c-0.2,7-0.4,12.6-0.7,16.8c-0.1,0.3-0.7,0.6-1.7,0.9
	c-1.3,0.3-2.6,0.6-3.9,0.7c-1.6,0.2-3.3,0.3-5.1,0.4c-1.9,0.1-3.8,0.2-5.8,0.2c-2,0-4-0.1-5.9-0.2c-1.9-0.1-3.7-0.2-5.2-0.4
	c-1.3-0.1-2.6-0.3-3.8-0.7c-0.7-0.1-1.3-0.4-1.7-0.9c-0.2-4.4-0.3-9.1-0.3-14c0-4.9,0.1-9.9,0.2-15.1c0.1-0.6,0.4-1.1,1-1.4
	c0.7-0.4,1.4-0.8,2.1-1.1c0.7-0.3,1.4-0.7,2.1-1.1c0.5-0.2,0.9-0.8,1-1.4c0-0.3-0.3-0.7-1-1.1c-0.7-0.4-1.4-0.8-2.1-1.1
	c-0.7-0.3-1.4-0.7-2.1-1.1c-0.7-0.4-1-0.8-1-1.1c0.1-5.7,0.2-11.4,0.2-17.2c0-5.8,0.1-11.6,0.1-17.5c-0.5,0.4-1.3,1-2.3,1.9
	c-1.1,0.9-2.2,1.7-3.5,2.7c-1.2,0.8-2.4,1.6-3.6,2.3c-0.9,0.6-1.9,0.9-3,1c-1.1,0-2.4-1-3.8-2.9c-1.5-2.1-2.8-4.3-3.9-6.7
	c-1.1-2.4-2.1-4.8-3-7.3C872.3,356.2,872,354.6,872,352.9z"/>
<path class="st0" d="M640.9,494.4c0-6.6,0.8-12.1,2.3-16.4c1.5-4.1,3.9-7.9,7.1-10.9c0.2-0.2,0.7-0.3,1.3-0.1
	c0.7,0.2,1.4,0.3,2.2,0.5c0.8,0.2,1.5,0.4,2.2,0.5c0.4,0.2,0.9,0.2,1.3,0c0.1-0.4,0.1-0.9-0.1-1.3c-0.1-0.7-0.3-1.3-0.4-2
	c-0.2-0.7-0.3-1.3-0.4-1.9s-0.1-0.9,0.1-1c2.1-1.4,4.4-2.4,6.9-3.1c2.3-0.6,4.7-0.9,7.1-0.9c4.1-0.1,8.2,0.5,12.1,1.8
	c3,1,5.7,2.6,8.2,4.6c2.1,1.8,3.8,4,5.1,6.5c1.2,2.3,2.1,4.8,2.7,7.4c0.6,2.4,0.9,4.8,1,7.2c0.1,2.3,0.2,4.3,0.2,6
	c0,0.3-0.3,0.6-0.9,0.8c-0.8,0.3-1.6,0.5-2.4,0.6c-1,0.2-2,0.3-3.2,0.3c-1.2,0.1-2.4,0.1-3.6,0.1c-2,0-3.9-0.1-5.9-0.4
	c-1.7-0.3-2.5-0.7-2.5-1.2c0-4.5-0.8-8-2.3-10.3c-1.5-2.3-4.2-3.7-6.9-3.5c-2-0.1-4,0.7-5.4,2.1c-1.4,1.5-2.5,3.3-3.1,5.2
	c-0.7,2.1-1.2,4.3-1.4,6.5c-0.2,2.3-0.3,4.4-0.3,6.2c-0.1,4,0.2,8,0.8,12c0.4,2.6,1.1,5.1,2.2,7.4c0.7,1.5,1.8,2.8,3.2,3.7
	c1.2,0.7,2.6,1,3.9,1c3.5,0,6.1-0.7,7.8-2c1.7-1.3,2.7-3.3,2.6-5.4c-0.6,0-1.9,0-3.9,0.1c-1.9,0.1-3.8-0.1-5.7-0.5v-12.7
	c0-0.2,0.3-0.3,1-0.5c0.9-0.2,1.8-0.3,2.7-0.3c1.1-0.1,2.4-0.1,3.8-0.2c1.4,0,2.9-0.1,4.5-0.1c2,0,4,0,6,0.1c2,0.1,3.7,0.2,5.3,0.3
	c1.3,0.1,2.6,0.3,3.9,0.5c1,0.2,1.5,0.5,1.5,0.7c0,5.3-0.6,10.5-1.8,15.7c-0.9,4.1-2.5,8-4.5,11.6c-0.2,0.3-0.6,0.5-0.9,0.5
	c-1-0.1-1.9-0.3-2.8-0.8c-1.1-0.5-1.9-0.5-2.4-0.1c-0.1,0.5,0,0.9,0.2,1.3c0.2,0.6,0.5,1.2,0.8,1.7c0.2,0.5,0.5,1.1,0.6,1.6
	c0.2,0.4,0,0.9-0.3,1.1c-2.4,1.7-5.1,3-8,3.8c-3,0.9-6,1.4-9.1,1.4c-4.3,0.1-8.7-0.6-12.8-2c-3.3-1.2-6.3-3-8.8-5.4
	c-2.4-2.2-4.3-4.9-5.6-7.9c-1.4-3.1-2.4-6.3-3.1-9.5c-0.7-3.4-1.1-6.9-1.3-10.4C641,501.2,640.9,497.8,640.9,494.4z"/>
<path class="st0" d="M709.8,461.8c1.1-0.2,2.9-0.3,5.3-0.3c2.5-0.1,5.1-0.1,7.9-0.1c2.4,0,4.7,0,6.9,0.1c2.2,0.1,4.2,0.2,5.8,0.3
	v9.9c-0.1,0.5-0.3,0.9-0.8,1.1c-0.5,0.3-1,0.7-1.6,1.2c-0.5,0.4-1.1,0.8-1.6,1.3c-0.4,0.3-0.7,0.8-0.7,1.3c0,0.5,0.2,1,0.6,1.3
	c0.4,0.4,0.9,0.7,1.3,1c0.5,0.3,0.9,0.7,1.4,1.1c0.4,0.4,0.7,0.9,0.6,1.5c-0.2,4.9-0.3,10.1-0.5,15.4c-0.2,5.4-0.4,10.5-0.6,15.4
	c-0.2,4.9-0.3,9.4-0.5,13.5c-0.1,4-0.2,7.2-0.2,9.5c-2.9,0.6-5.9,1-8.8,1.2c-3.6,0.2-7.2,0.1-10.8-0.2c0-0.4-0.1-1.4-0.2-3.2
	c-0.1-1.7-0.2-3.7-0.3-5.8c-0.1-2.1-0.2-4.2-0.3-6.1c-0.1-2-0.2-3.3-0.2-4.1c0-0.2,0.2-0.3,0.5-0.5c0.3-0.2,0.7-0.4,1.1-0.7
	c0.4-0.3,0.8-0.6,1.1-1c0.3-0.3,0.5-0.7,0.5-1.1c0-0.6-0.2-1.1-0.6-1.5c-0.4-0.4-0.9-0.7-1.3-1c-0.5-0.3-0.9-0.5-1.3-0.7
	c-0.4-0.2-0.6-0.4-0.6-0.6c0-0.2-0.1-1.3-0.2-3.5c-0.1-2.2-0.2-4.9-0.3-8.2c-0.1-3.3-0.3-6.8-0.5-10.7c-0.2-3.9-0.3-7.6-0.5-11.1
	c-0.1-3.5-0.2-6.7-0.3-9.4C709.9,464.7,709.8,462.8,709.8,461.8z"/>
<path class="st0" d="M746.1,491.7l0.2-6.4c0.4-0.2,0.8-0.5,1.3-0.8c0.5-0.3,1-0.6,1.4-0.9c0.4-0.3,0.8-0.6,1.1-1
	c0.2-0.3,0.4-0.6,0.4-1c-0.1-0.9-0.8-1.7-1.7-2c-1-0.5-2-1.1-2.8-1.9l0.6-13.3c0-0.7,0.4-1.3,1-1.6c0.8-0.5,1.6-0.8,2.5-1
	c1.2-0.2,2.3-0.4,3.5-0.5c1.3-0.1,2.7-0.2,4-0.2c1.4,0,2.7,0,4,0.1c1.2,0.1,2.4,0.2,3.5,0.4c0.8,0.1,1.7,0.4,2.5,0.6
	c0.6,0.2,0.9,0.5,0.9,0.8v7.1c0,3.2-0.1,7.8-0.2,13.9c-0.1,5.6,0,10.4,0.2,14.4c0.2,4,0.3,6.9,0.3,8.8c0,1.9,0.2,3.8,0.7,5.7
	c0.4,1.6,1.1,3.2,2,4.6c0.8,1.2,1.9,2.3,3.1,3.1c1.2,0.7,2.5,1.1,3.9,1.1c1.4,0.1,2.8-0.3,4-1.1c1-0.8,1.8-1.7,2.4-2.9
	c0.6-1.4,1-2.8,1.2-4.3c0.2-1.7,0.3-3.5,0.3-5.3l0.2-25.6l-0.2-18.8c0-1.1,1-1.8,3.1-2.1c2.4-0.4,4.8-0.5,7.2-0.5
	c2.4,0,4.7,0.1,7.1,0.3c1.9,0.2,2.8,1,2.8,2.3l0.5,25.2l-0.5,23.9v5.7c0.1,0.5-0.2,0.9-0.7,1c-0.5,0.1-1,0.2-1.5,0.2
	c-0.5,0-1.1,0.1-1.6,0.2c-0.5,0.1-0.9,0.4-1,0.9c0,0.5,0.1,1,0.3,1.4c0.3,0.6,0.6,1.3,0.9,1.9c0.3,0.7,0.7,1.3,0.9,1.9
	c0.3,0.4,0.3,0.9,0.2,1.4c-1.6,3.2-4.5,6.1-8.8,8.6c-4.2,2.5-9.9,3.7-16.9,3.7c-5.2,0.1-10.3-0.7-15.2-2.4c-3.7-1.3-7-3.4-9.8-6.1
	c-2.4-2.3-4.2-5.1-5.4-8.3c-1-2.9-1.6-5.9-1.7-9L746.1,491.7z"/>
<path class="st0" d="M814.9,494.4c0-6.6,0.8-12.1,2.3-16.4c1.5-4.1,3.9-7.9,7.1-10.9c0.2-0.2,0.7-0.3,1.3-0.1
	c0.7,0.2,1.4,0.3,2.2,0.5c0.8,0.2,1.5,0.4,2.2,0.5c0.4,0.2,0.9,0.2,1.3,0c0.1-0.4,0.1-0.9-0.1-1.3c-0.1-0.7-0.3-1.3-0.4-2
	c-0.2-0.7-0.3-1.3-0.4-1.9s-0.1-0.9,0.1-1c2.1-1.4,4.4-2.4,6.9-3.1c2.3-0.6,4.7-0.9,7.1-0.9c4.1-0.1,8.2,0.5,12.1,1.8
	c3,1,5.7,2.6,8.2,4.6c2.1,1.8,3.8,4,5.1,6.5c1.2,2.3,2.1,4.8,2.7,7.4c0.6,2.4,0.9,4.8,1,7.2c0.1,2.3,0.2,4.3,0.2,6
	c0,0.3-0.3,0.6-0.9,0.8c-0.8,0.3-1.6,0.5-2.4,0.6c-1,0.2-2,0.3-3.2,0.3c-1.2,0.1-2.4,0.1-3.6,0.1c-2,0-3.9-0.1-5.9-0.4
	c-1.7-0.3-2.5-0.7-2.5-1.2c0-4.5-0.8-8-2.3-10.3c-1.5-2.3-4.2-3.7-6.9-3.5c-2-0.1-4,0.7-5.4,2.1c-1.4,1.5-2.5,3.3-3.1,5.2
	c-0.7,2.1-1.2,4.3-1.4,6.5c-0.2,2.3-0.3,4.4-0.3,6.2c-0.1,4,0.2,8,0.8,12c0.4,2.6,1.1,5.1,2.2,7.4c0.7,1.5,1.8,2.8,3.2,3.7
	c1.2,0.7,2.6,1,3.9,1c3.5,0,6.1-0.7,7.8-2c1.7-1.3,2.7-3.3,2.6-5.4c-0.6,0-1.9,0-3.9,0.1c-1.9,0.1-3.8-0.1-5.7-0.5v-12.7
	c0-0.2,0.3-0.3,1-0.5c0.9-0.2,1.8-0.3,2.7-0.3c1.1-0.1,2.4-0.1,3.8-0.2c1.4,0,2.9-0.1,4.5-0.1c2,0,4,0,6,0.1c2,0.1,3.7,0.2,5.3,0.3
	c1.3,0.1,2.6,0.3,3.9,0.5c1,0.2,1.5,0.5,1.5,0.7c0,5.3-0.6,10.5-1.8,15.7c-0.9,4.1-2.5,8-4.5,11.6c-0.2,0.3-0.6,0.5-0.9,0.5
	c-1-0.1-1.9-0.3-2.8-0.8c-1.1-0.5-1.9-0.5-2.4-0.1c-0.1,0.5,0,0.9,0.2,1.3c0.2,0.6,0.5,1.2,0.8,1.7c0.2,0.5,0.5,1.1,0.6,1.6
	c0.2,0.4,0,0.9-0.3,1.1c-2.4,1.7-5.1,3-8,3.8c-3,0.9-6,1.4-9.1,1.4c-4.3,0.1-8.7-0.6-12.8-2c-3.3-1.2-6.3-3-8.8-5.4
	c-2.4-2.2-4.3-4.9-5.6-7.9c-1.4-3.1-2.4-6.3-3.1-9.5c-0.7-3.4-1.1-6.9-1.3-10.4C815,501.2,814.9,497.8,814.9,494.4z"/>
<path class="st0" d="M904.4,462.2l16,27.1c-0.1-2.8-0.1-5.7,0.1-8.8c0.1-3.1,0.2-6.1,0.4-8.8c0.2-2.7,0.3-5,0.4-6.8
	c0.1-1.8,0.2-2.8,0.2-2.8c1-0.2,2.6-0.3,4.7-0.4c2.2-0.1,4.5-0.2,6.9-0.2c1.9,0,3.8,0,5.5,0.1c1.5,0,2.9,0.2,4.3,0.5
	c0,0.1,0,0.7-0.1,2c0,1.2-0.1,2.7-0.2,4.5c-0.1,1.8-0.1,3.7-0.2,5.7c0,2-0.1,4-0.2,5.7c-0.1,1.8-0.1,3.3-0.2,4.5
	c0,1.2-0.1,1.9-0.1,2.1s-0.2,0.4-0.6,0.7c-0.4,0.3-0.9,0.6-1.4,1c-0.5,0.3-1,0.7-1.4,1c-0.3,0.2-0.6,0.6-0.6,1
	c0,0.2,0.2,0.5,0.6,0.8c0.4,0.3,0.8,0.6,1.3,1c0.5,0.3,0.9,0.7,1.3,1c0.4,0.3,0.6,0.5,0.6,0.7c0,0.1-0.1,1.2-0.2,3.2
	c-0.1,2.1-0.3,4.7-0.4,7.7c-0.2,3.1-0.3,6.4-0.5,10.1c-0.2,3.6-0.4,7-0.5,10.1c-0.2,3.1-0.3,5.7-0.4,7.9c-0.1,2.2-0.2,3.3-0.2,3.5
	c0,0.2-0.9,0.3-2.8,0.3c-1.8,0.1-3.9,0.1-6,0.1c-2,0-3.8,0-5.3-0.1c-1.5-0.1-2.3-0.2-2.3-0.3l-15.8-26.8c-0.2,2.7-0.3,5.4-0.5,8.1
	c-0.2,2.7-0.4,5.3-0.6,7.6c-0.2,2.4-0.3,4.4-0.5,6.1c-0.1,1.7-0.2,3-0.2,3.9c-2.7,0.5-5.4,0.9-8.1,1.1c-3.4,0.2-6.7,0.2-10.1-0.1
	c0-0.4,0-1.4-0.1-3.2c-0.1-1.7-0.2-3.7-0.3-5.8c-0.1-2.1-0.2-4.1-0.3-6.1c-0.1-1.9-0.2-3.3-0.2-4c0-0.2,0.2-0.3,0.5-0.5
	c0.3-0.2,0.7-0.5,1-0.8c0.3-0.3,0.7-0.6,1-1c0.3-0.3,0.5-0.7,0.5-1.1c0-0.6-0.2-1.1-0.6-1.5c-0.4-0.4-0.8-0.7-1.3-1
	c-0.5-0.3-0.9-0.5-1.3-0.7c-0.4-0.2-0.6-0.4-0.6-0.6c0-0.2,0-1.3-0.1-3.5c-0.1-2.2-0.2-4.9-0.3-8.1c-0.2-3.2-0.3-6.8-0.4-10.6
	c-0.1-3.8-0.3-7.5-0.4-10.9c-0.2-3.5-0.3-6.5-0.3-9.2c-0.1-2.7-0.1-4.4-0.1-5.4c1.4-0.2,2.8-0.3,4.3-0.3c1.8-0.1,3.9-0.1,6.1-0.1
	c1.8,0,3.5,0,5.3,0.1C901.3,461.9,902.9,462,904.4,462.2z"/>
<path class="st0" d="M951.6,497.8c-0.1-4.7,0.4-9.4,1.2-14c0.7-3.6,1.8-7.1,3.4-10.5c0.2-0.4,0.5-0.7,1-0.9c0.5-0.1,1-0.2,1.4-0.3
	c0.5-0.1,1.1-0.1,1.6-0.2c0.5,0,1-0.2,1.4-0.4c0.2-1.2,0.1-2.5-0.1-3.7c-0.3-1,0-2.2,0.6-3c2.6-2.5,5.8-4.3,9.2-5.4
	c3.3-1,6.8-1.6,10.2-1.6c9.4,0,16.8,3.5,22.1,10.6c5.4,7.1,8,17.6,8,31.6c0,3-0.1,6.1-0.5,9.1c-0.3,2.8-0.8,5.6-1.5,8.4
	c-0.1,1-0.6,1.9-1.3,2.5c-0.8,0.7-1.7,1.4-2.6,1.9c0,0.5,0,1,0.1,1.7c0,0.7,0,1.4-0.1,2.1c-0.1,0.7-0.2,1.3-0.2,1.8
	c0,0.4-0.2,0.7-0.5,1c-2.3,3.5-5.5,6.4-9.2,8.4c-3.8,2-8.6,3.1-14.3,3.1c-10.4,0-18-3.6-22.8-10.7
	C954,522.2,951.6,511.7,951.6,497.8z M982.8,522c1.1,0,2.2-0.2,3.2-0.7c1.3-0.7,2.3-1.7,2.8-3.1c1-2.2,1.7-4.5,2-6.9
	c0.6-4.1,0.8-8.2,0.8-12.3c0-2.6-0.1-5.2-0.3-7.8c-0.1-2.3-0.6-4.6-1.3-6.9c-0.6-1.9-1.6-3.5-2.9-4.9c-1.5-1.3-3.4-2-5.4-1.9
	c-2.9,0-5,1.7-6.2,5.1c-1.2,3.4-1.8,8.9-1.8,16.5c0,2.8,0,5.5,0.1,8.3c0,2.5,0.4,4.9,1,7.3c0.5,1.9,1.4,3.7,2.7,5.2
	C978.9,521.4,980.8,522.1,982.8,522L982.8,522z"/>
<path class="st0" d="M647,683.6c-0.5-1.4-0.9-2.9-1.1-4.3c-0.3-1.7-0.5-3.5-0.5-5.2c-0.1-1.8-0.1-3.7,0-5.5c0-1.7,0.2-3.4,0.6-5.1
	c0-1.6,1.2-3.6,3.6-6.2c2.4-2.6,5.4-5.6,9-9c3.6-3.4,7.5-7.1,11.7-11c4.2-3.9,8.1-8,11.7-12.1c3.4-3.8,6.4-7.9,9-12.3
	c2.2-3.6,3.5-7.6,3.6-11.8c0-5-0.7-8.3-2.2-9.9c-1.4-1.6-3.6-2.4-6.5-2.4c-1.9,0-3.7,1-5.5,3c-1.8,2-2.7,4.9-2.7,8.7
	c0,0.4-0.8,0.7-2.3,0.7c-2.7-0.1-5.3-0.3-7.9-0.8c-3.4-0.5-6.7-1.1-10-1.8c-3.3-0.7-6.1-1.5-8.6-2.3c-2.4-0.8-3.7-1.4-3.7-2
	c0-4.5,1-9,2.9-13.2c2-4.5,4.8-8.6,8.3-12c3.7-3.7,8.1-6.6,12.8-8.7c5.3-2.3,10.9-3.4,16.7-3.3c8,0,14.7,1.2,20,3.7
	c5.1,2.2,9.5,5.7,12.8,10.2c0.3,0.6,0.4,1.4,0.1,2.1c-0.3,1-0.7,2-1.1,3c-0.4,1.1-0.8,2.1-1.2,3.1c-0.3,0.7-0.4,1.4-0.2,2.2
	c0.2,0.3,0.7,0.4,1.5,0.3c0.8-0.1,1.7-0.3,2.5-0.6c0.8-0.3,1.6-0.4,2.4-0.6c0.7-0.1,1.1,0.1,1.2,0.5c2,5.7,2.9,12.4,2.7,20.2
	c-0.1,6.1-1,12.1-2.8,17.8c-1.7,5.4-4,10.5-6.8,15.4c-2.6,4.6-5.7,8.8-9.3,12.7c-3.2,3.6-6.7,6.9-10.3,10c6.4,0,12.5-0.1,18.1-0.3
	c5.1-0.2,10.3,0,15.4,0.6c0.4,2.1,0.6,4.3,0.7,6.4c0.2,2.5,0.3,5,0.3,7.5c0,2.5-0.1,4.9-0.3,7.1c-0.1,1.8-0.4,3.6-0.7,5.3
	c-2.8,0.2-6.7,0.4-11.8,0.6c-5.1,0.2-10.3,0.3-15.8,0.3c-5.4,0.1-10.7,0.1-15.8,0.2c-5.1,0.1-9,0.2-11.9,0.2l0,0
	c0.4-0.2,0.6-0.8,0.3-1.8c-0.3-1-0.6-2-1.2-2.9c-0.5-1-1.1-1.9-1.8-2.8c-0.6-0.8-1.1-1.3-1.4-1.3c-0.4,0-1.1,0.4-1.8,1.3
	c-0.8,0.9-1.6,1.8-2.4,2.8c-0.8,1-1.6,1.9-2.3,2.8c-0.7,0.9-1.3,1.3-1.8,1.3c-1.1,0-2.6-0.1-4.3-0.2c-1.8-0.1-3.6-0.2-5.3-0.2
	c-1.8-0.1-3.3-0.1-4.7-0.3C648.4,684,647.7,683.8,647,683.6z"/>
<path class="st0" d="M784.5,557c5.8-0.1,11.6,0.7,17.2,2.3c4.7,1.4,9.1,4,12.5,7.6c3.7,4.1,6.5,8.9,8.1,14.2
	c2.2,7.2,3.5,14.5,3.9,22c0,0.3-0.5,0.8-1.5,1.4c-1,0.6-2.1,1.3-3.3,2.1c-1.2,0.8-2.4,1.5-3.4,2.1c-1.1,0.6-1.6,1.1-1.6,1.4
	s0.6,0.6,1.7,0.9c1.1,0.3,2.3,0.5,3.7,0.8c1.3,0.2,2.5,0.4,3.6,0.7c1.1,0.2,1.6,0.6,1.6,1c0.1,1.8,0.2,3.6,0.2,5.3v5.5
	c0,4.4-0.2,9.1-0.6,14.1c-0.4,4.9-1.1,9.8-2.3,14.6c-1.1,4.7-2.6,9.3-4.6,13.7c-1.9,4.2-4.5,8.1-7.7,11.4c-3.3,3.4-7.2,6-11.5,7.8
	c-5.1,2-10.5,3-15.9,2.9c-4.4,0.1-8.9-0.5-13.2-1.7c-3.6-1-6.9-2.6-10-4.7c-0.3-0.2-0.5-0.8-0.4-1.7c0.1-0.9,0.2-1.9,0.3-2.8
	c0.2-0.9,0.3-1.9,0.3-2.8c0.1-0.9,0-1.4-0.3-1.7c-0.3-0.3-0.9-0.4-1.7-0.2c-0.8,0.2-1.6,0.5-2.3,0.9c-0.7,0.4-1.5,0.7-2.3,0.9
	c-0.5,0.3-1.2,0.1-1.6-0.3c-4.7-6.3-8-14.3-10.1-23.8c-2.1-10.4-3.2-20.9-3.1-31.5c0.1-6.9,0.8-13.7,2.3-20.4
	c1.4-7.1,3.9-13.9,7.3-20.3c3.3-6.1,7.9-11.4,13.6-15.5C769.1,559,776.1,557,784.5,557z M774.1,624.1c0,10.4,0.7,18.5,2,24.2
	c1.3,5.7,4.1,8.6,8.3,8.6c3.3,0,5.7-2.7,7-8c1.3-5.3,2-13.8,2-25.5c0-5.8-0.1-10.8-0.2-15.2c0-3.7-0.4-7.3-1-10.9
	c-0.3-2.4-1.2-4.6-2.7-6.6c-1.3-1.5-3.2-2.3-5.2-2.2c-3.6,0-6.2,2.7-7.8,8.2C775,602.2,774.1,611.3,774.1,624.1L774.1,624.1z"/>
<path class="st0" d="M837.1,683.6c-0.5-1.4-0.9-2.9-1.1-4.3c-0.3-1.7-0.5-3.5-0.5-5.2c-0.1-1.8-0.1-3.7,0-5.5c0-1.7,0.2-3.4,0.6-5.1
	c0-1.6,1.2-3.6,3.6-6.2c2.4-2.6,5.4-5.6,9-9c3.6-3.4,7.5-7.1,11.7-11c4.2-3.9,8.1-8,11.7-12.1c3.4-3.8,6.4-7.9,9-12.3
	c2.2-3.6,3.5-7.6,3.6-11.8c0-5-0.7-8.3-2.2-9.9c-1.4-1.6-3.6-2.4-6.5-2.4c-1.9,0-3.7,1-5.5,3c-1.8,2-2.7,4.9-2.7,8.7
	c0,0.4-0.8,0.7-2.3,0.7c-2.7-0.1-5.3-0.3-7.9-0.8c-3.4-0.5-6.7-1.1-10-1.8c-3.3-0.7-6.1-1.5-8.6-2.3c-2.4-0.8-3.7-1.4-3.7-2
	c0-4.5,1-9,2.9-13.2c2-4.5,4.8-8.6,8.3-12c3.7-3.7,8.1-6.6,12.8-8.7c5.3-2.3,10.9-3.4,16.7-3.3c8,0,14.7,1.2,20,3.7
	c5.1,2.2,9.5,5.7,12.8,10.2c0.3,0.6,0.4,1.4,0.1,2.1c-0.3,1-0.7,2-1.1,3c-0.4,1.1-0.8,2.1-1.2,3.1c-0.3,0.7-0.4,1.4-0.2,2.2
	c0.2,0.3,0.7,0.4,1.5,0.3c0.8-0.1,1.7-0.3,2.5-0.6c0.8-0.3,1.6-0.4,2.4-0.6c0.7-0.1,1.1,0.1,1.2,0.5c2,5.7,2.9,12.4,2.7,20.2
	c-0.1,6.1-1,12.1-2.8,17.8c-1.7,5.4-4,10.5-6.8,15.4c-2.6,4.6-5.7,8.8-9.3,12.7c-3.2,3.6-6.7,6.9-10.3,10c6.4,0,12.5-0.1,18.1-0.3
	c5.1-0.2,10.3,0,15.4,0.6c0.4,2.1,0.6,4.3,0.7,6.4c0.2,2.5,0.3,5,0.3,7.5c0,2.5-0.1,4.9-0.3,7.1c-0.1,1.8-0.4,3.6-0.7,5.3
	c-2.8,0.2-6.7,0.4-11.8,0.6c-5.1,0.2-10.3,0.3-15.8,0.3c-5.4,0.1-10.7,0.1-15.8,0.2c-5.1,0.1-9,0.2-11.9,0.2l0,0
	c0.4-0.2,0.6-0.8,0.3-1.8c-0.3-1-0.6-2-1.2-2.9c-0.5-1-1.1-1.9-1.8-2.8c-0.6-0.8-1.1-1.3-1.4-1.3c-0.4,0-1.1,0.4-1.8,1.3
	c-0.8,0.9-1.6,1.8-2.4,2.8c-0.8,1-1.6,1.9-2.3,2.8c-0.7,0.9-1.3,1.3-1.8,1.3c-1.1,0-2.6-0.1-4.3-0.2c-1.8-0.1-3.6-0.2-5.3-0.2
	c-1.8-0.1-3.3-0.1-4.7-0.3C838.6,684,837.8,683.8,837.1,683.6z"/>
<path class="st0" d="M930.5,650c0-0.6,0.8-1.2,2.4-1.9c1.9-0.8,3.9-1.5,5.9-2.1c2.3-0.7,4.7-1.2,7.2-1.7c2-0.5,4.1-0.7,6.2-0.8
	c1.9,0,2.9,0.3,3,1c0.5,2.1,1.5,4.2,2.8,5.9c1,1.4,2.4,2.5,3.8,3.3c1.2,0.7,2.6,1.2,4,1.4c1.2,0.2,2.3,0.3,3.5,0.3
	c2.7,0.1,5.4-1,7.3-2.8c2-1.9,3-4.8,3-8.8c0-3.4-0.9-5.8-2.7-7.2c-2-1.4-4.4-2.2-6.8-2.3c-1.9-0.1-4.1-0.1-6.8,0
	c-2.6,0.1-5.3,0.2-8.1,0.2c-0.9,0-1.6-1.2-2-3.7c-0.5-2.7-0.7-5.4-0.6-8.1c0-2.7,0.3-5.4,0.9-8.1c0.6-2.4,1.3-3.7,2.3-3.7
	c3.8,0,6.8,0.1,9.1,0.2c2.3,0.2,4.5,0.3,6.6,0.3c3.4,0,5.6-0.9,6.6-2.8c1-2.4,1.5-5,1.4-7.7c0-5-1-8.3-3.1-9.9
	c-2.1-1.6-4.7-2.5-7.4-2.4c-1.1,0-2.2,0.3-3.3,0.7c-1.3,0.6-2.4,1.3-3.4,2.3c-1.1,1-2.1,2.3-2.7,3.7c-0.7,1.6-1.1,3.3-1.1,5
	c0,0.4-0.7,0.7-2,0.7c-2.3-0.1-4.6-0.3-6.9-0.8c-2.9-0.5-5.8-1.1-8.7-1.8c-2.5-0.6-5-1.4-7.4-2.3c-2.1-0.8-3.2-1.4-3.2-2
	c0-3.5,0.6-7,1.8-10.3c1.2-3.5,2.9-6.8,5.1-9.8c0.3-0.4,0.9-0.5,1.6-0.3c0.7,0.3,1.5,0.6,2.4,1c0.9,0.4,1.7,0.7,2.5,1
	c0.8,0.3,1.3,0.3,1.7-0.1c0.3-0.5,0.4-1.1,0.3-1.7c0-1-0.1-2.1-0.3-3.1c-0.2-1.2-0.5-2.6-0.8-4.2c7.2-6.5,16.6-10,26.3-9.7
	c7.6,0,13.9,1.1,19.2,3.3c4.9,1.9,9.2,5,12.7,8.9c3.2,3.8,5.6,8.3,7,13.1c1.5,5.1,2.1,10.4,2,15.8c0,3.8-0.6,7.5-1.7,11.1
	c-0.8,2.6-2,5-3.4,7.2c-1.1,1.7-2.4,3.2-3.8,4.5c-1.3,1.1-2.4,2-3.3,2.7c1.1,0.9,2.4,1.8,3.8,2.7c1.5,1.1,2.9,2.4,3.9,4
	c1.4,2.1,2.5,4.4,3.2,6.7c1,3.6,1.4,7.4,1.3,11.2c0.2,5.3-0.6,10.5-2.2,15.5c-1.5,4.6-4,8.8-7.3,12.3c-0.3,0.3-1,0.4-2,0.2
	c-1.1-0.2-2.2-0.6-3.3-0.9c-1.2-0.4-2.2-0.7-3.3-1c-0.8-0.3-1.6-0.3-2.3,0.1c-0.4,0.3-0.6,0.9-0.4,1.8c0.2,0.9,0.3,1.9,0.5,2.9
	c0.2,1.1,0.3,2,0.3,2.9c0.1,0.9-0.2,1.4-0.7,1.7c-2.9,1.2-6,2-9.1,2.6c-3.7,0.6-7.4,0.9-11.1,0.9c-5.7,0.1-11.4-1.1-16.6-3.3
	c-4.7-2.1-9.1-5-12.8-8.7c-3.5-3.4-6.3-7.5-8.3-12C931.5,659,930.5,654.5,930.5,650z"/>
<path class="st1" d="M635.6,792.7c0.1-1,0.3-2.1,0.6-3.1c0.4-1.8,1-4.1,1.7-6.8c0.7-2.8,1.5-5.9,2.4-9.5c0.9-3.6,1.8-7.2,2.8-11
	c1-3.8,1.9-7.5,2.8-11.3c0.9-3.8,1.7-7.3,2.5-10.5c0.2-0.3,0.4-0.6,0.7-0.7c0.4-0.3,0.8-0.5,1.3-0.8c0.4-0.2,0.9-0.5,1.3-0.7
	c0.3-0.1,0.6-0.4,0.7-0.7c0.1-0.4,0-0.8-0.2-1.1c-0.2-0.4-0.4-0.9-0.7-1.4c-0.2-0.5-0.5-0.9-0.7-1.3c-0.2-0.3-0.3-0.7-0.2-1
	c0.5-1.9,1-3.4,1.3-4.5c0.3-1.1,0.6-1.6,0.7-1.6h22.6c0.2,0,0.6,1.4,1.2,4.1c0.6,2.7,1.3,6.2,2.2,10.4c0.8,4.2,1.7,9,2.7,14.2
	c1,5.2,2,10.4,2.9,15.4c0.1,0.5,0,1.1-0.2,1.6c-0.2,0.6-0.4,1.2-0.7,1.7c-0.3,0.6-0.5,1.2-0.7,1.7c-0.2,0.5-0.3,1-0.2,1.5
	c0.2,0.4,0.4,0.8,0.8,1.1c0.4,0.3,0.8,0.6,1.2,0.9c0.4,0.3,0.8,0.5,1.2,0.8c0.4,0.2,0.6,0.6,0.7,1c0.6,3.3,1.1,6,1.5,8.1
	c0.4,2.1,0.6,3.2,0.6,3.4c0,0.3-0.9,0.4-2.6,0.5c-1.7,0.1-3.7,0.1-6,0.1c-1.3,0-2.6,0-4-0.1c-1.3,0-2.5-0.1-3.6-0.1
	c-0.9,0-1.7-0.1-2.6-0.2c-0.7-0.1-1-0.2-1-0.3c0-0.3-0.1-1.3-0.3-3.1c-0.2-1.8-0.5-4.2-0.8-7h-9.9c-0.4,3-0.8,5.4-1,7.2
	c-0.3,1.8-0.4,2.8-0.4,2.9c0,0.1-0.3,0.1-0.9,0.2c-0.6,0.1-1.4,0.1-2.3,0.2c-1,0-2.1,0.1-3.3,0.1c-1.2,0-2.5,0.1-3.8,0.1
	c-1.3,0-2.6,0-3.8-0.1c-1.2,0-2.3-0.1-3.3-0.1c-1,0-1.7-0.1-2.3-0.2C635.9,792.9,635.6,792.8,635.6,792.7z M665.6,765.2
	c-0.5-3-1-6-1.6-9c-0.6-3-1.1-6-1.7-8.8c-0.5,2.9-1,5.8-1.5,8.8c-0.5,3-1,6-1.6,9H665.6z"/>
<path class="st1" d="M693.9,727.1c1-0.1,2.5-0.2,4.7-0.3c2.2-0.1,4.5-0.1,7-0.1c2.1,0,4.2,0,6.2,0.1c2,0.1,3.7,0.2,5.1,0.3
	c0,0.2,0,1.2-0.1,2.9c-0.1,1.7-0.2,4-0.3,6.7c-0.1,2.7-0.2,5.8-0.4,9.3c-0.1,3.5-0.3,7.1-0.4,10.9c-0.1,3.8-0.3,7.6-0.4,11.4
	c-0.1,3.8-0.2,7.3-0.3,10.6h7c0.6,0,1.2,0.3,1.7,0.6c0.6,0.4,1.3,0.8,1.9,1.3c0.6,0.4,1.2,0.9,1.7,1.3c0.3,0.3,0.7,0.5,1.1,0.6
	c0.3,0,0.6-0.2,0.8-0.5c0.3-0.3,0.6-0.7,0.8-1.1c0.3-0.4,0.5-0.8,0.8-1.1c0.2-0.3,0.4-0.5,0.8-0.5c1.4,0.1,2.8,0.2,4,0.3
	c1.2,0,2.2,0.1,2.9,0.2c0.5,0,0.9,0.6,1.1,1.9c0.4,2.9,0.6,5.8,0.4,8.8c0,0.9-0.2,1.8-0.5,2.6c-1.1,0.3-2.2,0.4-3.3,0.3
	c-2.1,0.1-4.6,0.1-7.7,0.1c-3.1,0-6.4,0-9.9-0.1c-3.5,0-6.8-0.1-9.9-0.2c-3.6-0.1-7.2-0.1-10.7-0.2v-0.2h-0.7c0-0.3-0.1-1.3-0.2-2.8
	c-0.1-1.5-0.2-3.2-0.3-5.1c-0.1-1.9-0.2-3.7-0.3-5.4s-0.2-2.9-0.2-3.5c0-0.1,0.1-0.3,0.4-0.5c0.3-0.2,0.6-0.4,1-0.7
	c0.4-0.2,0.7-0.5,1-0.8c0.3-0.3,0.4-0.7,0.4-1.1c0-0.5-0.2-0.9-0.6-1.2c-0.4-0.3-0.8-0.6-1.2-0.9c-0.4-0.2-0.8-0.4-1.2-0.6
	c-0.4-0.2-0.6-0.4-0.6-0.6c0-0.1-0.1-1.2-0.2-3.1c-0.1-1.9-0.2-4.3-0.3-7.2c-0.1-2.9-0.2-6-0.4-9.4c-0.2-3.4-0.3-6.7-0.4-9.9
	c-0.1-3.1-0.2-5.9-0.3-8.4C693.9,729.5,693.9,727.9,693.9,727.1z"/>
<path class="st1" d="M787.6,726.8H808c1.8,0,3.6,0.3,5.3,0.9c1.7,0.6,3.4,1.6,4.7,2.8c1.5,1.4,2.7,3.1,3.4,4.9
	c0.9,2.3,1.4,4.8,1.3,7.2c0.1,3.4-0.7,6.7-2.2,9.7c-1.1,2.5-3.1,4.6-5.6,5.7c1.3,0.5,2.5,1.2,3.5,2c1.2,0.9,2.2,2,3,3.2
	c0.9,1.4,1.6,2.9,2.1,4.6c0.6,2,0.8,4.1,0.8,6.2c0,0.4-0.2,0.7-0.6,0.7c0,0,0,0,0,0c-0.4,0.1-0.8,0.1-1.2,0.1
	c-0.4,0-0.9,0.1-1.3,0.2c-0.4,0.1-0.7,0.4-0.7,0.8c-0.1,0.4,0.1,0.8,0.4,1c0.4,0.3,0.8,0.6,1.2,0.8c0.4,0.2,0.8,0.5,1.2,0.8
	c0.3,0.2,0.4,0.6,0.3,0.9c-0.6,2-1.5,3.8-2.6,5.6c-1.1,1.7-2.4,3.2-4,4.5c-1.6,1.3-3.5,2.3-5.5,3c-2.3,0.8-4.7,1.2-7.2,1.1h-25
	c-1-0.1-2-0.1-3-0.2c-1,0-2.1-0.1-3.1-0.2v-47.4c0-0.1,0.1-0.3,0.4-0.5c0.3-0.2,0.6-0.4,1-0.7c0.4-0.3,0.7-0.5,1-0.9
	c0.3-0.3,0.4-0.6,0.4-1c0-0.5-0.2-1-0.6-1.3c-0.4-0.3-0.8-0.6-1.2-0.9c-0.4-0.2-0.8-0.4-1.2-0.6c-0.4-0.2-0.6-0.4-0.6-0.6
	c0-0.2,0-0.7-0.1-1.5c0-0.8-0.1-1.8-0.2-3c-0.1-1.2-0.1-2.5-0.2-3.9c0-1.4-0.1-2.8-0.1-4.1c1.4-0.1,3.5-0.3,6.4-0.4
	C781.6,726.6,784.6,726.6,787.6,726.8z M801.6,750.6c1.3,0.1,2.5-0.4,3.5-1.2c0.9-0.6,1.4-1.6,1.4-2.7c0-0.5-0.1-1.1-0.2-1.6
	c-0.1-0.5-0.4-1-0.8-1.4c-0.5-0.5-1.1-0.8-1.7-1c-0.9-0.3-1.9-0.4-2.9-0.4h-8.2v8.2L801.6,750.6z M792.9,767.4
	c0.1,1.6,0.1,3.1,0.1,4.7v4.7h9.2c0.6,0,1.2-0.1,1.8-0.3c0.7-0.2,1.3-0.5,1.8-0.9c0.6-0.4,1.1-0.9,1.5-1.4c0.4-0.6,0.6-1.3,0.6-2
	c0.1-1.3-0.4-2.6-1.4-3.5c-1-0.8-2.5-1.2-4.7-1.2H792.9z"/>
<path class="st1" d="M832.1,753.5l0.2-5.6c0.3-0.2,0.7-0.4,1.2-0.7c0.4-0.2,0.9-0.5,1.3-0.8c0.4-0.3,0.7-0.6,1-0.9
	c0.2-0.2,0.3-0.5,0.4-0.9c-0.1-0.8-0.7-1.5-1.5-1.7c-0.9-0.4-1.8-1-2.5-1.6l0.5-11.8c0-0.6,0.4-1.1,0.9-1.4c0.7-0.4,1.5-0.7,2.3-0.9
	c1-0.2,2.1-0.4,3.1-0.5c1.2-0.1,2.4-0.2,3.6-0.2c1.2,0,2.4,0,3.6,0.1c1,0.1,2.1,0.2,3.1,0.4c0.8,0.1,1.5,0.3,2.2,0.6
	c0.5,0.2,0.8,0.4,0.8,0.7v6.3c0,2.8-0.1,7-0.2,12.4c-0.1,5,0,9.3,0.2,12.8c0.2,3.5,0.3,6.1,0.3,7.9c0,1.7,0.2,3.4,0.6,5
	c0.4,1.5,1,2.8,1.8,4.1c0.7,1.1,1.7,2,2.8,2.7c1,0.6,2.2,1,3.4,1c1.3,0.1,2.5-0.3,3.6-1c0.9-0.7,1.6-1.5,2.1-2.6
	c0.6-1.2,0.9-2.5,1-3.8c0.2-1.6,0.3-3.1,0.3-4.7l0.2-22.7l-0.2-16.7c0-1,0.9-1.6,2.7-1.9c2.1-0.3,4.3-0.5,6.4-0.5
	c2.1,0,4.2,0.1,6.3,0.3c1.7,0.2,2.5,0.9,2.5,2.1l0.4,22.4l-0.4,21.2v5c0.1,0.4-0.2,0.8-0.6,0.9c-0.4,0.1-0.9,0.2-1.3,0.2
	c-0.5,0-0.9,0.1-1.4,0.2c-0.4,0.1-0.8,0.4-0.9,0.8c0,0.4,0,0.9,0.3,1.2c0.2,0.5,0.5,1.1,0.8,1.7c0.3,0.6,0.6,1.1,0.8,1.7
	c0.2,0.4,0.3,0.8,0.2,1.2c-1.4,2.9-4,5.4-7.8,7.6c-3.8,2.2-8.8,3.3-15,3.3c-4.6,0.1-9.2-0.6-13.5-2.1c-3.2-1.2-6.2-3-8.7-5.4
	c-2.1-2-3.8-4.6-4.8-7.3c-0.9-2.6-1.4-5.2-1.5-8L832.1,753.5z"/>
<path class="st1" d="M895.7,727.1c1-0.1,2.5-0.2,4.7-0.3c2.2-0.1,4.5-0.1,7-0.1c2.1,0,4.2,0,6.2,0.1c2,0.1,3.7,0.2,5.1,0.3
	c0,0.2,0,1.2-0.1,2.9c-0.1,1.7-0.2,4-0.3,6.7c-0.1,2.7-0.2,5.8-0.4,9.3c-0.1,3.5-0.3,7.1-0.4,10.9c-0.1,3.8-0.3,7.6-0.4,11.4
	c-0.1,3.8-0.2,7.3-0.3,10.6h7c0.6,0,1.2,0.3,1.7,0.6c0.6,0.4,1.3,0.8,1.9,1.3c0.6,0.4,1.2,0.9,1.7,1.3c0.3,0.3,0.7,0.5,1.1,0.6
	c0.3,0,0.6-0.2,0.8-0.5c0.3-0.3,0.6-0.7,0.8-1.1c0.3-0.4,0.5-0.8,0.8-1.1c0.2-0.3,0.4-0.5,0.8-0.5c1.4,0.1,2.8,0.2,4,0.3
	c1.2,0,2.2,0.1,2.9,0.2c0.5,0,0.9,0.6,1.1,1.9c0.4,2.9,0.6,5.8,0.4,8.8c0,0.9-0.2,1.8-0.5,2.6c-1.1,0.3-2.2,0.4-3.3,0.3
	c-2.1,0.1-4.6,0.1-7.7,0.1c-3.1,0-6.4,0-9.9-0.1c-3.5,0-6.8-0.1-9.9-0.2c-3.6-0.1-7.2-0.1-10.7-0.2v-0.2h-0.7c0-0.3-0.1-1.3-0.2-2.8
	c-0.1-1.5-0.2-3.2-0.3-5.1c-0.1-1.9-0.2-3.7-0.3-5.4c-0.1-1.7-0.2-2.9-0.2-3.5c0-0.1,0.1-0.3,0.4-0.5c0.3-0.2,0.6-0.4,1-0.7
	c0.4-0.2,0.7-0.5,1-0.8c0.3-0.3,0.4-0.7,0.4-1.1c0-0.5-0.2-0.9-0.6-1.2c-0.4-0.3-0.8-0.6-1.2-0.9c-0.4-0.2-0.8-0.4-1.2-0.6
	c-0.4-0.2-0.6-0.4-0.6-0.6c0-0.1-0.1-1.2-0.2-3.1c-0.1-1.9-0.2-4.3-0.3-7.2c-0.1-2.9-0.2-6-0.4-9.4c-0.2-3.4-0.3-6.7-0.4-9.9
	c-0.1-3.1-0.2-5.9-0.3-8.4C895.8,729.5,895.7,727.9,895.7,727.1z"/>
<path class="st1" d="M964.1,726.8c2.5,0,5.1,0,8.1-0.1c2.9,0,5.6-0.1,8.2-0.1h9.5c0.5,0,1,0.7,1.4,2.1c0.5,1.5,0.8,3,1,4.6
	c0.2,1.5,0.1,3.1-0.2,4.6c-0.3,1.4-1,2.1-2.2,2.1c-0.2,0-1,0.1-2.4,0.2c-1.4,0.1-3.2,0.2-5.5,0.4c-0.6,0-1.2-0.4-1.4-0.9
	c-0.3-0.5-0.8-0.9-1.4-0.8c-0.1,0-0.2,0.1-0.4,0.4c-0.2,0.2-0.4,0.5-0.6,0.8c-0.2,0.3-0.5,0.6-0.9,0.8c-0.3,0.2-0.7,0.3-1,0.4h-6.3
	c-0.1,2-0.2,4.1-0.3,6.4c-0.1,2.3-0.1,4.6-0.2,7c1.6-0.1,3.5-0.2,5.6-0.3c2.1-0.1,4.1-0.1,6.1-0.2c1.9-0.1,3.6-0.1,5-0.1
	c0.8,0,1.7,0.1,2.5,0.3c0.4,0.2,0.6,1,0.7,2.4c0.1,1.5,0,2.9-0.1,4.4c-0.1,1.4-0.3,2.9-0.5,4.3c-0.2,1.3-0.5,2-0.9,2
	c-0.2,0-1,0-2.5-0.1c-1.4,0-3.1-0.1-5-0.1c-1.9,0-3.9-0.1-6-0.2c-2.1-0.1-3.9-0.2-5.5-0.3c-0.1,2.2-0.1,4.3-0.2,6.4
	c0,2.1-0.1,4.1-0.2,6h7c0.6,0,1.2,0.3,1.7,0.6c0.6,0.4,1.3,0.8,1.9,1.3c0.6,0.4,1.2,0.9,1.7,1.3c0.3,0.3,0.7,0.5,1.1,0.6
	c0.3,0,0.6-0.2,0.8-0.5c0.3-0.3,0.6-0.7,0.8-1.1c0.3-0.4,0.5-0.8,0.8-1.1c0.2-0.3,0.4-0.5,0.8-0.5c2.3,0.1,4.1,0.3,5.5,0.4
	c1.4,0.1,2.2,0.2,2.4,0.2c1.2,0,1.9,0.7,2.2,2.1c0.3,1.5,0.4,3,0.2,4.6c-0.1,1.6-0.5,3.1-1,4.6c-0.5,1.4-1,2.1-1.4,2.1h-41.5v-0.2
	h-0.7c0-0.3-0.1-1.3-0.2-2.8c-0.1-1.5-0.2-3.2-0.3-5.1c-0.1-1.9-0.2-3.7-0.3-5.4c-0.1-1.7-0.2-2.9-0.2-3.5c0-0.1,0.1-0.3,0.4-0.5
	c0.3-0.2,0.6-0.4,1-0.7c0.4-0.2,0.7-0.5,1-0.8c0.3-0.3,0.4-0.7,0.4-1.1c0-0.5-0.2-0.9-0.6-1.2c-0.4-0.3-0.8-0.6-1.2-0.9
	c-0.4-0.2-0.8-0.4-1.2-0.6c-0.4-0.2-0.6-0.4-0.6-0.6c0-0.1-0.1-1.2-0.2-3.1c-0.1-1.9-0.2-4.3-0.3-7.2c-0.1-2.9-0.2-6-0.4-9.4
	c-0.2-3.4-0.3-6.7-0.4-9.9c-0.1-3.1-0.2-5.9-0.3-8.4c-0.1-2.4-0.2-4.1-0.2-4.9c0.6-0.1,1.5-0.1,2.8-0.2c1.2-0.1,2.6-0.1,4.1-0.2
	c1.5,0,3.1-0.1,4.8-0.1C960.8,726.6,962.4,726.7,964.1,726.8z"/>
<path class="st1" d="M1000.6,718.2c1.4-0.1,2.8-0.3,4-0.4c1.2-0.1,2.4-0.2,3.6-0.2c1.9,0,3.7,0.2,5.5,0.6c0.4,2.3,0.6,4.6,0.6,6.9
	c0,2.8-0.2,5.7-0.7,8.5c-0.4,2.7-1.2,5.3-2.2,7.8c-0.7,2.1-2.2,3.8-4.1,4.9c-0.7,0.3-1.6,0.5-2.4,0.4c-0.8,0-1.7-0.1-2.5-0.4
	c-0.6-0.1-1.2-0.5-1.6-1c0.1-0.4,0.4-1.1,0.8-2c0.4-0.9,0.8-2,1.2-3.1c0.4-1.1,0.9-2.3,1.2-3.4c0.3-1,0.6-2,0.8-3.1
	c-0.7-0.1-1.5-0.1-2.4-0.2c-0.7,0-1.3-0.1-1.9-0.3c-0.2-1.3-0.4-2.6-0.5-3.8c-0.1-1.5-0.1-2.9-0.1-4.4c0-1.4,0.1-2.8,0.2-4
	C1000.3,720.1,1000.4,719.1,1000.6,718.2z"/>
<path class="st1" d="M645.3,821.8h10.3c0.9,0,1.8,0.2,2.7,0.5c0.9,0.3,1.7,0.8,2.4,1.4c0.7,0.7,1.3,1.5,1.7,2.5
	c0.5,1.2,0.7,2.4,0.7,3.6c0,1.7-0.4,3.4-1.1,4.9c-0.6,1.3-1.6,2.3-2.8,2.9c0.6,0.3,1.2,0.6,1.8,1c0.6,0.5,1.1,1,1.5,1.6
	c0.5,0.7,0.8,1.5,1.1,2.3c0.3,1,0.4,2.1,0.4,3.1c0,0.2-0.1,0.3-0.3,0.4c0,0,0,0,0,0c-0.2,0-0.4,0.1-0.6,0.1c-0.2,0-0.4,0-0.6,0.1
	c-0.2,0-0.3,0.2-0.4,0.4c0,0.2,0,0.4,0.2,0.5c0.2,0.1,0.4,0.3,0.6,0.4c0.2,0.1,0.4,0.2,0.6,0.4c0.2,0.1,0.2,0.3,0.2,0.5
	c-0.3,1-0.7,1.9-1.3,2.8c-0.5,0.9-1.2,1.6-2,2.3c-0.8,0.7-1.8,1.2-2.8,1.5c-1.2,0.4-2.4,0.6-3.6,0.6h-12.6c-0.5,0-1-0.1-1.5-0.1
	c-0.5,0-1,0-1.5-0.1v-23.8c0-0.1,0.1-0.1,0.2-0.2c0.1-0.1,0.3-0.2,0.5-0.3c0.2-0.1,0.3-0.3,0.5-0.4c0.1-0.1,0.2-0.3,0.2-0.5
	c0-0.3-0.1-0.5-0.3-0.7c-0.2-0.2-0.4-0.3-0.6-0.4c-0.2-0.1-0.4-0.2-0.6-0.3c-0.2-0.1-0.3-0.2-0.3-0.3s0-0.4,0-0.8
	c0-0.4,0-0.9-0.1-1.5c0-0.6-0.1-1.3-0.1-2c0-0.7,0-1.4,0-2c0.7-0.1,1.8-0.1,3.2-0.2C642.3,821.7,643.8,821.7,645.3,821.8z
	 M652.4,833.7c0.6,0,1.3-0.2,1.8-0.6c0.4-0.3,0.7-0.8,0.7-1.4c0-0.3,0-0.5-0.1-0.8c-0.1-0.3-0.2-0.5-0.4-0.7
	c-0.2-0.2-0.5-0.4-0.9-0.5c-0.5-0.1-1-0.2-1.4-0.2h-4.1v4.1L652.4,833.7z M648,842.2c0,0.8,0.1,1.6,0.1,2.3v2.3h4.6
	c0.3,0,0.6-0.1,0.9-0.2c0.3-0.1,0.6-0.3,0.9-0.4c0.3-0.2,0.5-0.4,0.7-0.7c0.2-0.3,0.3-0.6,0.3-1c0-0.7-0.2-1.3-0.7-1.8
	c-0.7-0.5-1.5-0.7-2.4-0.6L648,842.2z"/>
<path class="st1" d="M676.6,821.8c1.2,0,2.6,0,4,0c1.5,0,2.8,0,4.1,0h4.8c0.2,0,0.5,0.3,0.7,1c0.3,0.7,0.4,1.5,0.5,2.3
	c0.1,0.8,0.1,1.5-0.1,2.3c-0.2,0.7-0.5,1-1.1,1c-0.1,0-0.5,0-1.2,0.1s-1.6,0.1-2.8,0.2c-0.3,0-0.6-0.2-0.7-0.5
	c-0.1-0.3-0.4-0.4-0.7-0.4c0,0-0.1,0.1-0.2,0.2c-0.1,0.1-0.2,0.3-0.3,0.4c-0.1,0.2-0.3,0.3-0.4,0.4c-0.1,0.1-0.3,0.2-0.5,0.2h-3.1
	c-0.1,1-0.1,2.1-0.2,3.2c0,1.2-0.1,2.3-0.1,3.5c0.8-0.1,1.8-0.1,2.8-0.2c1.1,0,2.1-0.1,3-0.1c1,0,1.8,0,2.5,0c0.4,0,0.9,0,1.3,0.1
	c0.2,0.1,0.3,0.5,0.4,1.2c0,0.7,0,1.5,0,2.2c0,0.7-0.1,1.4-0.3,2.2c-0.1,0.7-0.3,1-0.4,1c-0.1,0-0.5,0-1.2,0c-0.7,0-1.6,0-2.5-0.1
	c-1,0-2-0.1-3-0.1c-1-0.1-2-0.1-2.8-0.1c0,1.1-0.1,2.2-0.1,3.2c0,1,0,2.1-0.1,3h3.5c0.3,0,0.6,0.1,0.9,0.3c0.3,0.2,0.6,0.4,1,0.6
	c0.3,0.2,0.6,0.4,0.8,0.6c0.1,0.1,0.3,0.3,0.5,0.3c0.2,0,0.3-0.1,0.4-0.2c0.1-0.2,0.3-0.4,0.4-0.5c0.1-0.2,0.3-0.4,0.4-0.6
	c0.1-0.1,0.2-0.2,0.4-0.3c1.1,0.1,2.1,0.1,2.8,0.2c0.7,0.1,1.1,0.1,1.2,0.1c0.6,0,1,0.3,1.1,1c0.2,0.8,0.2,1.5,0.1,2.3
	c-0.1,0.8-0.2,1.6-0.5,2.3c-0.2,0.7-0.5,1-0.7,1h-20.8v-0.1h-0.4c0-0.2,0-0.6-0.1-1.4c-0.1-0.8-0.1-1.6-0.2-2.6
	c-0.1-0.9-0.1-1.9-0.2-2.7c-0.1-0.9-0.1-1.5-0.1-1.8c0-0.1,0.1-0.2,0.2-0.3c0.1-0.1,0.3-0.2,0.5-0.3c0.2-0.1,0.3-0.3,0.5-0.4
	c0.1-0.1,0.2-0.3,0.2-0.5c0-0.2-0.1-0.5-0.3-0.6c-0.2-0.2-0.4-0.3-0.6-0.4c-0.2-0.1-0.4-0.2-0.6-0.3c-0.2-0.1-0.3-0.2-0.3-0.3
	c0-0.1,0-0.6-0.1-1.5c-0.1-1-0.1-2.2-0.2-3.6c-0.1-1.4-0.1-3-0.2-4.7c-0.1-1.7-0.2-3.4-0.2-4.9c-0.1-1.6-0.1-3-0.2-4.2
	c-0.1-1.2-0.1-2-0.1-2.4c0.3,0,0.8-0.1,1.4-0.1c0.6,0,1.3-0.1,2.1-0.1c0.8,0,1.6,0,2.4,0C674.9,821.7,675.7,821.7,676.6,821.8z"/>
<path class="st1" d="M696.2,821.9c0.5-0.1,1.3-0.1,2.4-0.2c1.1,0,2.3-0.1,3.5-0.1c1.1,0,2.1,0,3.1,0.1c1,0,1.9,0.1,2.6,0.2
	c0,0.1,0,0.6-0.1,1.5c0,0.9-0.1,2-0.1,3.4c-0.1,1.4-0.1,2.9-0.2,4.7c-0.1,1.8-0.1,3.6-0.2,5.5c-0.1,1.9-0.1,3.8-0.2,5.7
	c-0.1,1.9-0.1,3.7-0.2,5.3h3.5c0.3,0,0.6,0.1,0.9,0.3c0.3,0.2,0.6,0.4,1,0.6c0.3,0.2,0.6,0.4,0.8,0.6c0.1,0.1,0.3,0.3,0.5,0.3
	c0.2,0,0.3-0.1,0.4-0.2c0.1-0.2,0.3-0.4,0.4-0.5c0.1-0.2,0.3-0.4,0.4-0.6c0.1-0.1,0.2-0.2,0.4-0.3c0.7,0.1,1.4,0.1,2,0.1
	c0.6,0,1.1,0,1.4,0.1c0.3,0,0.5,0.3,0.6,1c0.2,1.5,0.3,2.9,0.2,4.4c0,0.4-0.1,0.9-0.2,1.3c-0.5,0.1-1.1,0.2-1.6,0.2
	c-1,0-2.3,0.1-3.9,0.1c-1.5,0-3.2,0-5,0c-1.8,0-3.4,0-5-0.1c-1.8,0-3.6-0.1-5.4-0.1v-0.1h-0.4c0-0.2,0-0.6-0.1-1.4
	c-0.1-0.8-0.1-1.6-0.2-2.6c-0.1-0.9-0.1-1.9-0.2-2.7c-0.1-0.9-0.1-1.5-0.1-1.8c0-0.1,0.1-0.2,0.2-0.3c0.1-0.1,0.3-0.2,0.5-0.3
	c0.2-0.1,0.3-0.3,0.5-0.4c0.1-0.1,0.2-0.3,0.2-0.5c0-0.2-0.1-0.5-0.3-0.6c-0.2-0.2-0.4-0.3-0.6-0.4c-0.2-0.1-0.4-0.2-0.6-0.3
	c-0.2-0.1-0.3-0.2-0.3-0.3c0-0.1,0-0.6-0.1-1.5c-0.1-1-0.1-2.2-0.2-3.6c-0.1-1.4-0.1-3-0.2-4.7c-0.1-1.7-0.2-3.4-0.2-4.9
	c-0.1-1.6-0.1-3-0.2-4.2C696.2,823.1,696.2,822.3,696.2,821.9z"/>
<path class="st1" d="M722.2,821.9c0.5-0.1,1.3-0.1,2.4-0.2c1.1,0,2.3-0.1,3.5-0.1c1.1,0,2.1,0,3.1,0.1c1,0,1.9,0.1,2.6,0.2
	c0,0.1,0,0.6-0.1,1.5c0,0.9-0.1,2-0.1,3.4c-0.1,1.4-0.1,2.9-0.2,4.7c-0.1,1.8-0.1,3.6-0.2,5.5c-0.1,1.9-0.1,3.8-0.2,5.7
	c-0.1,1.9-0.1,3.7-0.2,5.3h3.5c0.3,0,0.6,0.1,0.9,0.3c0.3,0.2,0.6,0.4,1,0.6c0.3,0.2,0.6,0.4,0.8,0.6c0.2,0.1,0.3,0.3,0.5,0.3
	c0.2,0,0.3-0.1,0.4-0.2c0.1-0.2,0.3-0.4,0.4-0.5c0.1-0.2,0.3-0.4,0.4-0.6c0.1-0.1,0.2-0.2,0.4-0.3c0.7,0.1,1.4,0.1,2,0.1
	c0.6,0,1.1,0,1.4,0.1c0.3,0,0.5,0.3,0.6,1c0.1,0.7,0.2,1.4,0.2,2.2c0,0.7,0,1.5,0,2.2c0,0.4-0.1,0.9-0.2,1.3
	c-0.5,0.1-1.1,0.2-1.6,0.2c-1,0-2.3,0.1-3.9,0.1c-1.5,0-3.2,0-5,0c-1.8,0-3.4,0-5-0.1c-1.8,0-3.6-0.1-5.4-0.1v-0.1h-0.4
	c0-0.2,0-0.6-0.1-1.4c-0.1-0.8-0.1-1.6-0.2-2.6c-0.1-0.9-0.1-1.9-0.2-2.7c-0.1-0.9-0.1-1.5-0.1-1.8c0-0.1,0.1-0.2,0.2-0.3
	c0.1-0.1,0.3-0.2,0.5-0.3c0.2-0.1,0.3-0.3,0.5-0.4c0.1-0.1,0.2-0.3,0.2-0.5c0-0.2-0.1-0.5-0.3-0.6c-0.2-0.2-0.4-0.3-0.6-0.4
	c-0.2-0.1-0.4-0.2-0.6-0.3c-0.2-0.1-0.3-0.2-0.3-0.3c0-0.1,0-0.6-0.1-1.5c-0.1-1-0.1-2.2-0.2-3.6c-0.1-1.4-0.1-3-0.2-4.7
	c-0.1-1.7-0.2-3.4-0.2-4.9c-0.1-1.6-0.1-3-0.2-4.2C722.2,823.1,722.2,822.3,722.2,821.9z"/>
<path class="st1" d="M748.2,821.9c0.5-0.1,1.3-0.1,2.4-0.2c1.1,0,2.3-0.1,3.5-0.1c1.1,0,2.1,0,3.1,0.1c1,0,1.9,0.1,2.6,0.2v4.4
	c0,0.2-0.1,0.4-0.3,0.5c-0.2,0.2-0.5,0.3-0.7,0.5c-0.2,0.2-0.5,0.4-0.7,0.6c-0.2,0.1-0.3,0.4-0.3,0.6c0,0.2,0.1,0.4,0.3,0.6
	c0.2,0.2,0.4,0.3,0.6,0.5c0.2,0.2,0.4,0.3,0.6,0.5c0.2,0.2,0.3,0.4,0.3,0.7c-0.1,2.2-0.1,4.5-0.2,6.9c-0.1,2.4-0.2,4.7-0.3,6.9
	c-0.1,2.2-0.2,4.2-0.2,6c-0.1,1.8-0.1,3.2-0.1,4.3c-1.3,0.3-2.6,0.5-3.9,0.5c-1.6,0.1-3.2,0.1-4.8-0.1c0-0.2,0-0.6-0.1-1.4
	c-0.1-0.8-0.1-1.6-0.2-2.6c-0.1-0.9-0.1-1.9-0.2-2.7c-0.1-0.9-0.1-1.5-0.1-1.8c0-0.1,0.1-0.1,0.2-0.2c0.1-0.1,0.3-0.2,0.5-0.3
	c0.2-0.1,0.3-0.3,0.5-0.4c0.1-0.1,0.2-0.3,0.2-0.5c0-0.3-0.1-0.5-0.3-0.7c-0.2-0.2-0.4-0.3-0.6-0.4c-0.2-0.1-0.4-0.2-0.6-0.3
	c-0.2-0.1-0.3-0.2-0.3-0.3c0-0.1,0-0.6-0.1-1.5c-0.1-1-0.1-2.2-0.2-3.6c-0.1-1.5-0.1-3-0.2-4.8c-0.1-1.7-0.2-3.4-0.2-4.9
	c-0.1-1.6-0.1-3-0.2-4.2C748.2,823.2,748.2,822.4,748.2,821.9z"/>
<path class="st1" d="M774,822.1l7.1,12.1c0-1.2,0-2.6,0-3.9c0.1-1.4,0.1-2.7,0.2-3.9c0.1-1.2,0.1-2.2,0.2-3c0.1-0.8,0.1-1.2,0.1-1.3
	c0.4-0.1,1.2-0.1,2.1-0.2c1-0.1,2-0.1,3.1-0.1c0.9,0,1.7,0,2.4,0.1c0.6,0,1.3,0.1,1.9,0.2c0,0,0,0.3,0,0.9c0,0.6,0,1.2-0.1,2
	c0,0.8-0.1,1.6-0.1,2.6c0,0.9,0,1.8-0.1,2.6c0,0.8-0.1,1.5-0.1,2c0,0.6,0,0.9,0,0.9c0,0.1-0.1,0.2-0.3,0.3c-0.2,0.1-0.4,0.3-0.6,0.4
	c-0.2,0.1-0.4,0.3-0.6,0.5c-0.2,0.1-0.3,0.3-0.3,0.4c0,0.1,0.1,0.2,0.3,0.4c0.2,0.1,0.4,0.3,0.6,0.4c0.2,0.2,0.4,0.3,0.6,0.4
	c0.2,0.1,0.3,0.2,0.3,0.3c0,0,0,0.5-0.1,1.4c-0.1,0.9-0.1,2.1-0.2,3.5c-0.1,1.4-0.1,2.9-0.2,4.5c-0.1,1.6-0.2,3.1-0.2,4.5
	c-0.1,1.4-0.1,2.5-0.2,3.5c-0.1,1-0.1,1.5-0.1,1.5c0,0.1-0.4,0.1-1.2,0.2c-0.8,0-1.7,0.1-2.7,0.1c-0.9,0-1.7,0-2.4-0.1
	c-0.7,0-1-0.1-1-0.2l-7.1-12c-0.1,1.2-0.1,2.4-0.2,3.6c-0.1,1.2-0.2,2.4-0.3,3.4c-0.1,1-0.2,2-0.2,2.7c-0.1,0.8-0.1,1.3-0.1,1.7
	c-1.2,0.2-2.4,0.4-3.6,0.5c-1.5,0.1-3,0.1-4.5,0c0-0.2,0-0.6-0.1-1.4c0-0.8-0.1-1.6-0.1-2.6c-0.1-0.9-0.1-1.8-0.2-2.7
	c-0.1-0.9-0.1-1.5-0.1-1.8c0-0.1,0.1-0.1,0.2-0.2c0.2-0.1,0.3-0.2,0.4-0.3c0.2-0.1,0.3-0.3,0.4-0.4c0.1-0.1,0.2-0.3,0.2-0.5
	c0-0.2-0.1-0.5-0.3-0.7c-0.2-0.2-0.4-0.3-0.6-0.4c-0.2-0.1-0.4-0.2-0.6-0.3c-0.2-0.1-0.3-0.2-0.3-0.3c0-0.1,0-0.6-0.1-1.5
	c0-1-0.1-2.2-0.2-3.6c-0.1-1.4-0.1-3-0.2-4.7c-0.1-1.7-0.1-3.3-0.2-4.9c-0.1-1.5-0.1-2.9-0.2-4.1c0-1.2-0.1-2-0.1-2.4
	c0.6-0.1,1.3-0.1,1.9-0.2c0.8,0,1.7-0.1,2.7-0.1c0.8,0,1.6,0,2.4,0.1C772.7,821.9,773.4,822,774,822.1z"/>
<path class="st1" d="M795.1,849c0.3-0.7,0.6-1.4,1-2.1c0.4-0.7,0.8-1.5,1.2-2.2c0.1-0.1,0.3-0.1,0.6,0.2c0.3,0.3,0.6,0.6,1,0.9
	c0.3,0.3,0.7,0.7,1,1c0.3,0.3,0.5,0.4,0.6,0.3c0.1-0.1,0.1-0.4-0.1-0.9c-0.1-0.5-0.3-1.1-0.5-1.8c-0.2-0.7-0.4-1.3-0.6-1.8
	c-0.2-0.6-0.2-0.9-0.2-1c0.7-1.1,1.4-2.2,2.2-3.3c0.8-1.1,1.6-2.1,2.4-3.1c0.8-1,1.5-1.9,2.2-2.8c0.7-0.9,1.3-1.7,1.7-2.4
	c-1.3,0-2.7-0.1-4.1-0.1c-1.4,0-2.6-0.1-3.8-0.1c-1.1,0-2.1-0.1-2.8-0.1c-0.4,0-0.8,0-1.2-0.1c-0.1-0.1-0.2-0.5-0.2-1.3
	c0-0.8,0-1.7,0-2.6c0-0.9,0.1-1.8,0.1-2.6c0.1-0.8,0.2-1.2,0.3-1.2c0.3-0.1,0.7-0.1,1-0.1c0.6,0,1.2,0,2.1-0.1c0.8,0,1.8,0,2.8,0h8
	c1.6,0,3,0,4.4,0c1.3,0,2.4,0,3.2,0.1c0.4,0,0.9,0,1.3,0.1c0.1,0.1,0.2,0.8,0.1,2.1c-0.3,0.1-0.6,0.1-0.9,0.1
	c-0.6,0.1-1.2,0.1-1.9,0.2c-0.7,0.1-1.3,0.1-1.9,0.2c-0.3,0-0.6,0-0.9,0.1c0,0.1,0.3,0.2,0.8,0.3c0.6,0.1,1.2,0.3,1.9,0.4
	c0.7,0.2,1.3,0.3,1.9,0.4c0.6,0.1,0.8,0.2,0.8,0.3c0,0.6-0.1,1.1-0.1,1.4c0,0.3-0.1,0.5-0.2,0.8c-0.8,1.6-1.7,3.2-2.7,4.7
	c-1,1.6-2,3.2-3.1,4.8c-1,1.6-2.1,3.2-3.1,4.7c-1,1.5-1.9,3-2.6,4.4c1.4,0,2.9,0.1,4.3,0.1c1.4,0,2.7,0.1,3.9,0.1
	c1.2,0,2.1,0.1,2.9,0.1c0.4,0,0.8,0,1.2,0.1c0.1,0,0.1,0.3,0.2,0.7c0,0.4,0.1,1,0.1,1.6c0,0.6,0.1,1.3,0.1,2c0,0.7,0,1.3,0,1.9
	c0,0.6-0.1,1.1-0.1,1.5c-0.1,0.4-0.1,0.6-0.2,0.7c0,0-0.2,0-0.5,0c-0.3,0-0.7,0-1.2,0H816c-0.6,0-1.2,0-1.8,0.1
	c-0.2,0-0.3-0.1-0.4-0.4c-0.1-0.3-0.2-0.5-0.3-0.8c-0.1-0.3-0.2-0.6-0.3-0.8c-0.1-0.2-0.3-0.4-0.5-0.4c-0.3,0-0.5,0.2-0.6,0.4
	c-0.2,0.3-0.5,0.5-0.7,0.9c-0.2,0.3-0.5,0.6-0.7,0.9c-0.2,0.2-0.4,0.4-0.7,0.4h-5.3c-1.8,0-3.5,0-4.9,0c-1.5,0-2.7,0-3.7-0.1
	c-0.5,0-1,0-1.5-0.1v-0.1c-0.1-0.7-0.1-1.4-0.1-2.1c0-0.7,0.1-1.3,0.2-1.9s0.1-1.1,0.2-1.5C795,849.4,795,849.2,795.1,849z"/>
<path class="st1" d="M821.2,854.9c0.1-0.5,0.2-1,0.3-1.5c0.2-0.9,0.5-2,0.9-3.4c0.4-1.4,0.8-3,1.2-4.8c0.4-1.8,0.9-3.6,1.4-5.5
	c0.5-1.9,0.9-3.8,1.4-5.7c0.4-1.9,0.9-3.7,1.2-5.3c0.1-0.2,0.2-0.3,0.4-0.4c0.2-0.1,0.4-0.3,0.6-0.4c0.2-0.1,0.4-0.2,0.6-0.4
	c0.2-0.1,0.3-0.2,0.4-0.3c0-0.2,0-0.4-0.1-0.5c-0.1-0.2-0.2-0.5-0.3-0.7c-0.1-0.2-0.2-0.5-0.3-0.7c-0.1-0.2-0.1-0.3-0.1-0.5
	c0.3-1,0.5-1.7,0.7-2.3c0.2-0.5,0.3-0.8,0.4-0.8h11.3c0.3,0.6,0.5,1.3,0.6,2c0.3,1.4,0.7,3.1,1.1,5.2c0.4,2.1,0.9,4.5,1.4,7.1
	c0.5,2.6,1,5.2,1.5,7.8c0,0.3,0,0.5-0.1,0.8c-0.1,0.3-0.2,0.6-0.4,0.9c-0.1,0.3-0.3,0.6-0.4,0.9c-0.1,0.2-0.1,0.5-0.1,0.7
	c0.1,0.2,0.2,0.4,0.4,0.6c0.2,0.2,0.4,0.3,0.6,0.5c0.2,0.1,0.4,0.3,0.6,0.4c0.2,0.1,0.3,0.3,0.3,0.5c0.3,1.6,0.6,3,0.7,4.1
	c0.2,1.1,0.3,1.6,0.3,1.7c0,0.1-0.4,0.2-1.3,0.3c-0.9,0-1.9,0.1-3,0.1c-0.7,0-1.3,0-2,0c-0.7,0-1.3,0-1.8-0.1c-0.4,0-0.9,0-1.3-0.1
	c-0.3-0.1-0.5-0.1-0.5-0.1c0-0.1-0.1-0.7-0.2-1.6c-0.1-0.9-0.2-2.1-0.4-3.5h-4.9c-0.2,1.5-0.4,2.7-0.5,3.6c-0.1,0.9-0.2,1.4-0.2,1.5
	c0,0-0.1,0.1-0.4,0.1c-0.3,0-0.7,0.1-1.2,0.1c-0.5,0-1,0-1.6,0.1c-0.6,0-1.3,0-1.9,0c-0.7,0-1.3,0-1.9,0c-0.6,0-1.2,0-1.6-0.1
	c-0.5,0-0.9,0-1.2-0.1S821.2,854.9,821.2,854.9z M836.3,841.1c-0.2-1.5-0.5-3-0.8-4.5c-0.3-1.5-0.6-3-0.8-4.4
	c-0.2,1.4-0.5,2.9-0.7,4.4c-0.3,1.5-0.5,3-0.8,4.5H836.3z"/>
<path class="st1" d="M849.2,836.4c-0.1-2.5,0.3-4.9,1-7.3c0.6-1.8,1.7-3.5,3.1-4.9c0.1-0.1,0.3-0.1,0.6-0.1c0.3,0.1,0.6,0.1,1,0.2
	s0.7,0.2,1,0.2c0.2,0.1,0.4,0.1,0.6,0c0-0.2,0-0.4,0-0.6c-0.1-0.3-0.1-0.6-0.2-0.9c-0.1-0.3-0.1-0.6-0.2-0.9c-0.1-0.3,0-0.4,0-0.4
	c0.9-0.6,2-1.1,3.1-1.4c1-0.3,2.1-0.4,3.2-0.4c1.8,0,3.7,0.2,5.4,0.8c1.3,0.5,2.6,1.2,3.6,2.1c0.9,0.8,1.7,1.8,2.3,2.9
	c0.5,1,0.9,2.2,1.2,3.3c0.2,1,0.4,2.1,0.5,3.2c0.1,1,0.1,1.9,0.1,2.7c0,0.1-0.1,0.3-0.4,0.4c-0.3,0.1-0.7,0.2-1.1,0.3
	c-0.4,0.1-0.9,0.1-1.4,0.2c-0.5,0-1.1,0.1-1.6,0.1c-0.9,0-1.8-0.1-2.6-0.2c-0.8-0.1-1.1-0.3-1.1-0.5c0.1-1.6-0.3-3.2-1-4.6
	c-0.7-1-1.9-1.6-3.1-1.6c-0.9,0-1.8,0.3-2.4,1c-0.6,0.7-1.1,1.5-1.4,2.3c-0.3,0.9-0.5,1.9-0.6,2.9c-0.1,1-0.2,2-0.2,2.8
	c0,1.8,0.1,3.6,0.4,5.4c0.2,1.1,0.5,2.3,1,3.3c0.3,0.7,0.8,1.2,1.4,1.6c0.5,0.3,1.1,0.5,1.8,0.5c1.2,0.1,2.4-0.2,3.5-0.9
	c0.8-0.6,1.2-1.5,1.2-2.4c-0.3,0-0.9,0-1.8,0.1c-0.8,0-1.7,0-2.5-0.2v-5.7c0-0.1,0.1-0.1,0.4-0.2c0.4-0.1,0.8-0.1,1.2-0.2
	c0.5,0,1.1-0.1,1.7-0.1c0.6,0,1.3,0,2,0c0.9,0,1.8,0,2.7,0.1c0.9,0,1.7,0.1,2.4,0.1c0.6,0,1.2,0.1,1.7,0.2c0.4,0.1,0.7,0.2,0.7,0.3
	c0,2.4-0.3,4.7-0.8,7c-0.4,1.8-1.1,3.6-2,5.2c-0.1,0.1-0.2,0.2-0.4,0.2c-0.4,0-0.9-0.1-1.2-0.3c-0.5-0.2-0.8-0.2-1.1,0
	c0,0.2,0,0.4,0.1,0.6c0.1,0.3,0.2,0.5,0.3,0.8c0.1,0.2,0.2,0.5,0.3,0.7c0.1,0.2,0,0.4-0.2,0.5c-1.1,0.8-2.3,1.3-3.6,1.7
	c-1.3,0.4-2.7,0.6-4.1,0.6c-1.9,0-3.9-0.2-5.7-0.9c-1.5-0.5-2.8-1.3-3.9-2.4c-1.1-1-1.9-2.2-2.5-3.5c-0.6-1.4-1.1-2.8-1.4-4.3
	c-0.3-1.5-0.5-3.1-0.6-4.6C849.3,839.5,849.2,837.9,849.2,836.4z"/>
<path class="st1" d="M878.7,837.9c0-2.1,0.2-4.2,0.5-6.3c0.3-1.6,0.8-3.2,1.5-4.7c0.1-0.2,0.2-0.3,0.4-0.4c0.2-0.1,0.4-0.1,0.6-0.1
	c0.2,0,0.5-0.1,0.7-0.1c0.2,0,0.4-0.1,0.6-0.2c0.1-0.5,0.1-1.1,0-1.7c-0.1-0.5,0-1,0.3-1.3c1.2-1.1,2.6-1.9,4.1-2.4
	c1.5-0.5,3-0.7,4.6-0.7c3.9-0.2,7.6,1.6,9.9,4.7c2.4,3.2,3.6,7.9,3.6,14.1c0,1.4-0.1,2.7-0.2,4c-0.1,1.3-0.4,2.5-0.7,3.7
	c0,0.4-0.2,0.8-0.6,1.1c-0.4,0.3-0.7,0.6-1.2,0.8c0,0.2,0,0.5,0,0.8c0,0.3,0,0.6,0,0.9c0,0.3-0.1,0.6-0.1,0.8c0,0.2-0.1,0.3-0.2,0.4
	c-1,1.6-2.5,2.8-4.1,3.7c-2,1-4.2,1.4-6.4,1.4c-4.6,0-8-1.6-10.2-4.8C879.7,848.8,878.7,844.1,878.7,837.9z M892.6,848.7
	c0.5,0,1-0.1,1.4-0.3c0.6-0.3,1-0.8,1.3-1.4c0.4-1,0.7-2,0.9-3.1c0.3-1.8,0.4-3.6,0.3-5.5c0-1.2,0-2.3-0.1-3.5
	c-0.1-1-0.3-2.1-0.6-3.1c-0.3-0.8-0.7-1.6-1.3-2.2c-0.7-0.6-1.5-0.9-2.4-0.9c-1.3,0-2.2,0.8-2.8,2.3c-0.6,2.4-0.9,4.9-0.8,7.3
	c0,1.2,0,2.5,0.1,3.7c0,1.1,0.2,2.2,0.4,3.3c0.2,0.9,0.6,1.7,1.2,2.3C890.8,848.5,891.7,848.8,892.6,848.7L892.6,848.7z"/>
<path class="st1" d="M921.5,836.6c0-2.5,0.4-4.9,1.1-7.3c0.7-2.3,1.7-4.4,3-6.4c1.3-1.8,2.9-3.4,4.7-4.7c1.8-1.2,3.9-2,6.1-2.2
	c0.3,0.2,0.5,0.5,0.7,0.9c0.2,0.4,0.4,0.8,0.5,1.2c0.1,0.4,0.2,0.9,0.3,1.3c0.1,0.3,0,0.7,0,1c-0.8,0.6-1.6,1.4-2.2,2.2
	c-0.8,1.1-1.4,2.2-1.9,3.5c-0.6,1.6-1.1,3.3-1.3,5c-0.4,2.2-0.5,4.5-0.5,6.8c0,2.3,0.2,4.6,0.6,6.8c0.3,1.7,0.9,3.3,1.5,4.8
	c0.5,1.1,1.1,2.1,1.9,3.1c0.5,0.6,1,1.1,1.6,1.5c0.1,0.1,0.1,0.3,0.1,0.7c0,0.4-0.1,0.8-0.2,1.2c-0.1,0.4-0.2,0.8-0.4,1.2
	c-0.2,0.4-0.3,0.6-0.4,0.6c-2.3-0.3-4.6-1.2-6.6-2.4c-1.9-1.2-3.5-2.8-4.8-4.7c-1.3-2-2.3-4.1-2.9-6.4
	C921.8,841.8,921.5,839.2,921.5,836.6z"/>
<path class="st1" d="M950.2,822.1l7.1,12.1c0-1.2,0-2.6,0-3.9c0.1-1.4,0.1-2.7,0.2-3.9c0.1-1.2,0.1-2.2,0.2-3
	c0.1-0.8,0.1-1.2,0.1-1.3c0.4-0.1,1.2-0.1,2.1-0.2c1-0.1,2-0.1,3.1-0.1c0.9,0,1.7,0,2.4,0.1c0.6,0,1.3,0.1,1.9,0.2c0,0,0,0.3,0,0.9
	c0,0.6,0,1.2-0.1,2c0,0.8-0.1,1.6-0.1,2.6c0,0.9,0,1.8-0.1,2.6c0,0.8-0.1,1.5-0.1,2c0,0.6,0,0.9,0,0.9c0,0.1-0.1,0.2-0.3,0.3
	c-0.2,0.1-0.4,0.3-0.6,0.4c-0.2,0.1-0.4,0.3-0.6,0.5c-0.2,0.1-0.3,0.3-0.3,0.4c0,0.1,0.1,0.2,0.3,0.4c0.2,0.1,0.4,0.3,0.6,0.4
	c0.2,0.2,0.4,0.3,0.6,0.4c0.2,0.1,0.3,0.2,0.3,0.3c0,0,0,0.5-0.1,1.4c-0.1,0.9-0.1,2.1-0.2,3.5c-0.1,1.4-0.1,2.9-0.2,4.5
	c-0.1,1.6-0.2,3.1-0.2,4.5c-0.1,1.4-0.1,2.5-0.2,3.5c-0.1,1-0.1,1.5-0.1,1.5c0,0.1-0.4,0.1-1.2,0.2c-0.8,0-1.7,0.1-2.7,0.1
	c-0.9,0-1.7,0-2.4-0.1c-0.7,0-1-0.1-1-0.2l-7.1-12c-0.1,1.2-0.1,2.4-0.2,3.6c-0.1,1.2-0.2,2.4-0.3,3.4c-0.1,1-0.2,2-0.2,2.7
	c-0.1,0.8-0.1,1.3-0.1,1.7c-1.2,0.2-2.4,0.4-3.6,0.5c-1.5,0.1-3,0.1-4.5,0c0-0.2,0-0.6-0.1-1.4s-0.1-1.6-0.1-2.6
	c-0.1-0.9-0.1-1.8-0.2-2.7c-0.1-0.9-0.1-1.5-0.1-1.8c0-0.1,0.1-0.1,0.2-0.2c0.2-0.1,0.3-0.2,0.4-0.3c0.2-0.1,0.3-0.3,0.4-0.4
	c0.1-0.1,0.2-0.3,0.2-0.5c0-0.2-0.1-0.5-0.3-0.7c-0.2-0.2-0.4-0.3-0.6-0.4c-0.2-0.1-0.4-0.2-0.6-0.3c-0.2-0.1-0.3-0.2-0.3-0.3
	c0-0.1,0-0.6-0.1-1.5c0-1-0.1-2.2-0.2-3.6c-0.1-1.4-0.1-3-0.2-4.7c-0.1-1.7-0.1-3.3-0.2-4.9c-0.1-1.5-0.1-2.9-0.2-4.1
	c0-1.2-0.1-2-0.1-2.4c0.6-0.1,1.3-0.1,1.9-0.2c0.8,0,1.7-0.1,2.7-0.1c0.8,0,1.6,0,2.4,0.1C948.8,821.9,949.5,822,950.2,822.1z"/>
<path class="st1" d="M971.2,837.9c0-2.1,0.2-4.2,0.5-6.3c0.3-1.6,0.8-3.2,1.5-4.7c0.1-0.2,0.2-0.3,0.4-0.4c0.2-0.1,0.4-0.1,0.6-0.1
	c0.2,0,0.5-0.1,0.7-0.1c0.2,0,0.4-0.1,0.6-0.2c0.1-0.5,0.1-1.1,0-1.7c-0.1-0.5,0-1,0.3-1.3c1.2-1.1,2.6-1.9,4.1-2.4
	c1.5-0.5,3-0.7,4.6-0.7c3.9-0.2,7.6,1.6,9.9,4.7c2.4,3.2,3.6,7.9,3.6,14.1c0,1.4-0.1,2.7-0.2,4c-0.1,1.3-0.4,2.5-0.7,3.7
	c0,0.4-0.2,0.8-0.6,1.1c-0.4,0.3-0.7,0.6-1.2,0.8c0,0.2,0,0.5,0,0.8c0,0.3,0,0.6,0,0.9c0,0.3-0.1,0.6-0.1,0.8c0,0.2-0.1,0.3-0.2,0.4
	c-1,1.6-2.5,2.8-4.1,3.7c-2,1-4.2,1.4-6.4,1.4c-4.6,0-8-1.6-10.2-4.8C972.3,848.8,971.2,844.1,971.2,837.9z M985.1,848.7
	c0.5,0,1-0.1,1.4-0.3c0.6-0.3,1-0.8,1.3-1.4c0.4-1,0.7-2,0.9-3.1c0.3-1.8,0.4-3.6,0.3-5.5c0-1.2,0-2.3-0.1-3.5
	c-0.1-1-0.3-2.1-0.6-3.1c-0.3-0.8-0.7-1.6-1.3-2.2c-0.7-0.6-1.5-0.9-2.4-0.9c-1.3,0-2.2,0.8-2.8,2.3c-0.6,2.4-0.9,4.9-0.8,7.3
	c0,1.2,0,2.5,0.1,3.7c0,1.1,0.2,2.2,0.4,3.3c0.2,0.9,0.6,1.7,1.2,2.3C983.4,848.5,984.3,848.8,985.1,848.7z"/>
<path class="st1" d="M1001.4,816c2.2,0.2,4.3,1,6.1,2.2c1.8,1.3,3.4,2.9,4.7,4.7c1.3,1.9,2.4,4.1,3,6.4c0.7,2.4,1.1,4.8,1.1,7.3
	c0,2.6-0.3,5.2-1,7.7c-0.6,2.3-1.6,4.5-2.9,6.4c-1.3,1.9-2.9,3.4-4.8,4.7c-2,1.3-4.2,2.1-6.6,2.4c-0.1,0-0.2-0.2-0.4-0.6
	c-0.2-0.4-0.3-0.8-0.4-1.2c-0.1-0.4-0.2-0.8-0.2-1.2c0-0.4,0-0.6,0.1-0.7c0.6-0.4,1.2-0.9,1.6-1.5c0.8-0.9,1.4-2,1.9-3.1
	c0.7-1.6,1.2-3.2,1.5-4.8c0.5-2.2,0.7-4.5,0.6-6.8c0-2.3-0.1-4.5-0.5-6.8c-0.3-1.7-0.7-3.4-1.3-5c-0.5-1.2-1.1-2.4-1.9-3.5
	c-0.6-0.8-1.4-1.6-2.2-2.2c-0.1-0.3-0.1-0.7,0-1c0.1-0.4,0.1-0.9,0.3-1.3c0.1-0.4,0.3-0.9,0.5-1.2
	C1000.9,816.6,1001.1,816.3,1001.4,816z"/>
<path class="st0" d="M480.3,642.4l4.3-52.5l-11.1-50l-6,24.1l-1.2-45.1l-11.8-40.5l-9.6,24l-11-42.3l-13.6-29.3l-8,18.7l-24.5-40.6
	l-29.3-4.1l-7.9-8.8h-59.6l-7.9,8.8l-29.3,4.1l-24.5,40.6l-8-18.7l-13.6,29.3l-11,42.3l-9.6-24l-11.8,40.5l-1.2,45.1l-6-24.1
	l-11.1,50l4.3,52.5l-16.1-8.7l7.1,44.6l17.7,45.8l5.9,38l34.6,26.7c3.1,2.6,6.3,5.1,9.6,7.4l0.1,0.1l0,0c27.2,19,61.9,27,99.8,27.2
	v0c0.2,0,0.5,0,0.7,0c0.2,0,0.5,0,0.7,0v0c37.8-0.2,72.5-8.3,99.8-27.2l0,0l0.1-0.1c3.3-2.3,6.5-4.8,9.6-7.4l34.6-26.7l5.9-38
	l17.7-45.8l7.1-44.6L480.3,642.4z"/>
<polygon class="st2" points="172.1,581.1 206.7,650.7 172.7,646.2 169.9,602.6 "/>
<polygon class="st2" points="248.8,550 266.1,499.6 295.3,550.3 271.1,581.1 "/>
<polygon class="st2" points="453.2,514.9 455.9,530.3 455.9,553.8 446.8,533.9 "/>
<polygon class="st2" points="394.5,548 377.9,499.6 349.8,548.3 373.1,577.9 "/>
<polygon class="st2" points="398.2,631.5 384.3,604.1 365.7,628.4 382.4,621.5 "/>
<polygon class="st2" points="323.2,523.1 311.3,539.1 287.9,500.1 323.6,447.7 358.5,496.8 334,536.7 "/>
<polygon class="st2" points="290.6,420.7 264.3,436.9 267.5,420.8 245.6,453 260.5,479.7 268.1,469.5 275.7,478.4 298.5,445.4 "/>
<polygon class="st2" points="354.8,420.7 381.2,436.9 378,420.8 399.9,453 385,479.7 377.4,469.5 369.8,478.4 347,445.4 "/>
<polygon class="st2" points="407.4,525.9 422,507.2 431.7,521.8 424.2,478.6 417.1,467.9 400.8,496.9 "/>
<polygon class="st2" points="193,580.1 218.1,537.9 254.4,598.6 230.8,607 217.7,588.8 204.9,600.5 "/>
<polygon class="st2" points="235.4,529.4 220.2,505.4 209.5,521.4 217.7,473.9 225.6,462.1 243.5,494 "/>
<polygon class="st2" points="191.1,513.5 188.3,529.5 188.3,553.8 197.7,533.2 "/>
<polygon class="st0" points="245.5,394.7 209.5,340.4 172.7,331.1 74.4,417.6 111.1,258.9 121.2,258.9 119.9,248.2 140,256.4 
	140,248.2 239.6,252.1 262.1,253.9 226.3,203.6 224.9,139.4 301.6,187.7 327.1,123.1 391.9,73.5 392.1,211.5 385.8,271.9 
	473.7,268.5 467.5,278.4 479.5,277 473.7,287.8 488.9,283.3 531.7,348.1 537.6,417.6 473.7,362.8 430.4,346.1 375.1,394.7 "/>
<polygon class="st3" points="271.5,312.3 267.3,271.2 152.6,262 162.8,278.8 133.8,265.2 142.2,278.8 121.5,267.7 93.1,384.8 
	158.7,300.1 148.7,282 166.2,290.5 231.7,292.4 "/>
<polygon class="st3" points="301.8,368.3 287.1,265.4 299.4,256.2 282.6,258.9 237.6,200.3 237.6,180.5 246.4,180.5 234.1,170.8 
	234.1,159.8 296.1,200.3 293.8,219.3 299.4,208.4 299.4,225.8 306,208.4 342.7,263.2 353.9,302 353.9,368.3 338.7,312 333.8,347.8 
	321,284.8 321,351.4 305.9,315.2 "/>
<polygon class="st3" points="315.5,187.6 333.9,135.9 342,141.1 333.9,130.7 347.9,135.9 340.1,124.9 380.8,95.2 380.8,177.9 
	367.3,159.8 380.8,192.2 367.9,174.1 374.8,200.3 362.1,188.3 374.8,213.5 363.5,291.3 348.2,238 "/>
<polygon class="st3" points="370.5,340.4 374.8,311.1 381.9,284.8 453.3,284.8 444.6,293.5 462.7,287 454.1,296.9 475.8,296.9 
	517.9,346.5 507.6,355.1 522.4,354 526.5,396.1 502.9,358 445.4,317 452.3,306.3 437.6,316.7 400.7,311.1 "/>
<path class="st0" d="M575.6,730.2l-29,2.4l-5.9-63.9l16.4-2.2l-11-37.1l3.3-27l-58-8.2l-5.7-5.1l-37.2-1l-3.2-12.8l-50.9,14
	l-55.7-3.3l-38-22l-29.9,42.5l-19.9,5.1l2.8-8.6L86.2,642.5l21.3,140l8.2,11l20.8,147l33.1-37.1l-1.3,15.6l3.1,8l-9.4,82.1
	l82.2-44.8l4,3l42.9-26.9l217.5-65.5l17.1,6.8l9.8-57l3.6-6.1l2.9-18.1l24.6-3.9l-2.5-22.7L575.6,730.2z"/>
<path class="st4" d="M274.3,631.3l-40.3,118.5l64.1,38.9l-19.5,9.4l2.2,24.1l-52.2-15l-9.5,3.1l-32.2-8.9l-1.4,64.5l-12.8-9.9
	l-17.1,19.2l-13.7-96.4l-8-10.7L117.5,661l98.3-23.2l-3,9.1L274.3,631.3z M219.8,688.2l-45.7,14.7l3.8,45.2l3.1,3.6l14.9-9.8
	l16.2-44.7l5.8-2.1L219.8,688.2z"/>
<path class="st4" d="M424.2,608l-9.4,42.1l-3.6,7.6l-27,100l-36.7,3.3l-5.1-3.6l-67.5,5.1l-0.6-14.6l-13-5l27.1-73.4l-0.8-9.3
	l29.8-68.3l20.1,13.4l17,0.4l-51.4,112.9l37.6,7.4l22.5-0.8l3.3-25l-2.2-10.8l18.8-76.6l14.5,5.5L424.2,608z"/>
<path class="st4" d="M534.9,643.1l-65.7,8.7l-25.6,60.8l13.5,9.1l20.8-2.2l16.8-3.7l1.2-19.9l-25.3,2.7l6.9-13.5l-9.7-10.7l55.4-8
	l9.6,31.5l-5.7,4.1l2.8,28.7l-14.8,3.8l-15.2,6.9l-65.8,28.5l-18.5-14.6l-0.2-8.7L409,736l21.4-65.6l-1-9l13.2-50.1l42.9,1.1
	l5.3,4.7l40,2l-6.1,13.4L534.9,643.1z"/>
<path class="st4" d="M293.5,836.5l-23.9,37.1l25.3-1.9l-3,40.6l-38.8,24.3l-3.1-2.3l-53.3,29l4.6-40l-3.2-8.3l3.8-45.1l-2.5-8.4
	l3.4-29.1l45.8-3l-2.1,4.9L293.5,836.5z M264.4,898.5l-7.6-1.5l-3.7-2.2l-26.2,5l-1.7,21.8l6.7-3l27.1-14.7L264.4,898.5z
	 M257.1,855.5l-2-0.1l-6.4,3.3l-19.2,0.3l-3.3,18.8l19.1-2.4L257.1,855.5z"/>
<path class="st4" d="M399,798.4l-63.3,14.7l-2.1,8.4l43.5-4l-3.6,5.5l24.6,1.5l-10.2,13.4l1.4,7.2l-29.9,4.7l-4.1,3.8l-24.9,4.4
	l-1.7,14.5l30.2-4l1,4l30.3-7.5l-5.5,13.3l7.1,9.3l-53.7,14.8l-3.1,3.2l-29,6.3l5-63.9l-3-6.7l3.6-63.4l38.5,0.1l-1.4,4.5l60.8-1.2
	l-23.7,9.6L399,798.4z"/>
<path class="st4" d="M477.6,797l-0.5,26.1l-3.1,5.1l-5.2,44.1l-8.8-0.8l-6.9,10.2l0.2-29.6l-21.7,5.7l-1.8,3.4l-8.6,1.2
	c-1.1,3.9-3.6,12-7.3,24.3l-8.1-4.6l-7.3,7.4l10.6-44.9l-0.9-6.8l6.2-43.3l44.2-0.6l-2.5,4.1L477.6,797z M454,816l-18.9,1.5
	l-5.7,20.7l18.1-3.8l-1.4,3.8l5.5-1.5L454,816z"/>
<path class="st4" d="M549.4,756.7l-6.4,10.4l0.9,7.7l-19,3l-5,31.2l-3.5,6l-5.4,31.3l-5.8-2.3l-9,11.5l4.4-48.7l-1.7-8.5l1.4-16.3
	L449,785l26.4-12.4l-17.7-1.4l61.2-14.8l1.3,2.8L549.4,756.7z"/>
<polygon class="st0" points="245.5,394.7 243.5,417.6 236.6,437.8 267.3,413.4 330.9,416.3 380.8,416.3 400.8,430.3 391.8,396.1 
	395.8,376.5 "/>
<polygon class="st2" points="298.5,581.1 323.2,548.9 342.8,577.9 323.2,562.8 "/>
<polygon class="st2" points="450.5,586.5 427,539.1 397.7,582.1 425.4,560.2 "/>
<polygon class="st2" points="441.3,586.5 427.1,539.1 409.5,582.1 425.4,562.8 "/>
<path class="st0" d="M349.8,548.3l11.1-6.7l-1.1,19.6l12.3-19.5l0.9,36.3l11.3-34.3v19.2l8.3-19.9c0,0,7.3,1.6,8.1,3
	s-13.3,24.7-13.3,24.7l-11.8,15.9l-19.7-5.4c0,0-9.2-23.1-9-23.4S349.8,548.3,349.8,548.3z"/>
<polygon class="st0" points="287.9,500.1 302.1,489.8 296,513.5 309.3,495.8 306.1,530.4 320.6,499.6 323.2,523.1 330,499.6 
	339.7,525.9 339.7,498 349.8,510.9 347,490.6 358.5,496.8 357.2,520.1 335.2,542.1 310.7,544.3 281.9,507.3 "/>
<path class="st0" d="M295.2,548.5l-11.3-6.9l1.1,19.9l-12.4-19.8l-0.9,36.8l-11.5-34.7v19.4l-9-20.1c0,0-6.8,1.6-7.6,3
	s13.4,25,13.4,25l11.9,16.1l20-5.5c0,0,9.3-23.4,9.1-23.7S295.2,548.5,295.2,548.5z"/>
<polygon class="st0" points="193,580.1 207.7,570.1 198.2,589 215.8,570.1 209.5,596.3 221.9,572.5 225.5,599.7 228.3,581.1 
	236.6,599.7 232.8,577.9 254.4,598.6 251.8,608.8 211.7,617.8 191.3,591.9 "/>
<polygon class="st0" points="245.6,453 256.2,447.7 253.3,466.7 263.4,450.2 260.5,479.7 268.8,453.4 275.7,478.4 278.7,453.4 
	281.9,469.4 278,489.8 250.7,486.7 "/>
<polygon class="st0" points="400.1,453 389.4,447.7 392.4,466.7 382.3,450.2 385.2,479.7 376.8,453.4 370,478.4 367,453.4 
	363.8,469.4 367.7,489.8 395,486.7 "/>
<polygon class="st0" points="227.6,517.1 229.8,491.5 243.5,494 240.2,529.4 233.9,540.3 "/>
<polygon class="st0" points="280.8,426.7 274.6,435.9 292.6,426.7 312.3,400.5 "/>
<polygon class="st0" points="354.8,420.7 363.8,435.9 336.8,418.2 "/>
<polygon class="st0" points="191.3,617.8 179,604.1 180,620.4 173.6,609.7 171.9,623.8 185.1,623.8 "/>
<polygon class="st2" points="312.4,580.5 323.7,548.3 332.6,577.3 323.7,567.8 "/>
<path class="st0" d="M709.9,331.9c0.2-0.3,1.6-0.6,4.2-0.7c2.6-0.2,6-0.3,10.3-0.3c4.3-0.1,9.2-0.1,14.8,0
	c5.6,0.1,11.4,0.2,17.5,0.4c0.5,0,1,0.3,1.6,0.9s1.1,1.2,1.7,2c0.6,0.7,1.2,1.4,1.7,2c0.6,0.6,1.1,0.9,1.5,0.9
	c0.3,0,0.8-0.3,1.3-0.9c0.6-0.6,1.2-1.2,1.8-1.8c0.6-0.6,1.2-1.2,1.8-1.8c0.6-0.6,1-0.9,1.3-0.9c2.1,0.1,4.2,0.2,6.3,0.2
	c2.1,0,4.2,0.1,6.2,0.2c0.4,1.7,0.7,3.6,0.8,5.8c0.2,1.8,0.3,4,0.2,6.5c-0.1,2.6-0.3,5.4-0.9,8.4c-1.8,5.7-3.7,11.9-5.8,18.6
	c-2.1,6.7-4.2,13.5-6.5,20.3c-2.2,6.8-4.3,13.4-6.4,19.8s-3.9,12-5.4,16.9c-1.6,4.9-3.3,10.4-5.2,16.4c0,0.2-0.7,0.3-2.1,0.4
	c-1.4,0.1-3.2,0.1-5.3,0.1c-2.3,0-4.9,0-7.6-0.1c-2.8-0.1-5.4-0.2-7.9-0.3c-2.5-0.2-4.5-0.3-6.1-0.5c-1.6-0.2-2.4-0.3-2.4-0.6
	c0.5-1.8,1.2-4,2-6.6c0.8-2.6,1.8-5.6,2.9-8.8c0.2-0.7,0.7-1.3,1.6-1.6c0.8-0.3,1.7-0.6,2.7-0.9c0.9-0.3,1.8-0.6,2.7-1
	c0.8-0.4,1.4-1.1,1.7-1.9c0.1-0.4-0.1-1-0.5-1.9c-0.4-0.8-0.9-1.8-1.5-2.8c-0.6-1-1.1-1.9-1.4-2.8c-0.4-0.9-0.5-1.6-0.4-2
	c3.2-9.6,6.2-19,9.2-28.2c3-9.2,5.8-18.1,8.6-26.6l-38.9,0.2c-0.3-1.8-0.5-4.1-0.6-7c-0.1-2.9-0.2-5.8-0.2-8.6
	c0-2.8,0.1-5.3,0.2-7.5C709.6,333.6,709.7,332.3,709.9,331.9z"/>
<path class="st0" d="M951.2,410.3c0-3.8,0.3-7.2,1-9.9c0.7-2.8,1.5-5.1,2.6-6.9c1.1-1.8,2.3-3.2,3.6-4.2c1.3-1,2.6-1.7,3.9-2
	c0.2-0.2,0.2-0.4,0-0.7c-2.7-0.8-4.9-3.2-6.5-7.4c-1.6-4.2-2.4-10.3-2.4-18.2c0-4.4,0.5-8.1,1.4-11.1c0.9-3,2.1-5.6,3.5-7.9
	c0.1-0.2,0.6-0.1,1.4,0.2c0.8,0.3,1.8,0.7,2.7,1.1c1,0.4,1.9,0.8,2.8,1.1c0.9,0.3,1.4,0.3,1.6,0.1c0.2-0.2,0.1-0.7-0.1-1.5
	c-0.3-0.8-0.6-1.8-1.1-2.7s-0.8-1.9-1.1-2.7c-0.3-0.8-0.3-1.4-0.1-1.5c2.6-1.9,5.6-3.2,8.9-3.9c3.3-0.8,7.3-1.1,12-1.1
	c5.1,0,9.6,0.6,13.5,1.7c3.9,1.1,7.2,3,9.9,5.6c2.7,2.6,4.7,5.9,6.1,10.1c1.4,4.1,2.1,9.2,2.1,15.3c0,4.7-0.4,8.6-1.3,11.7
	c-0.9,3.1-1.8,5.6-2.9,7.4c-1,1.8-2,3.1-2.8,3.8c-0.8,0.7-1.3,1.1-1.4,1.1s-0.1,0-0.1,0.1c0,0.1,0,0.1,0.1,0.1c0.8,0.4,1.8,1,2.8,2
	c1,0.9,2,2.3,3,4c1,1.7,1.8,4,2.5,6.7c0.7,2.7,1,6.1,1,10c0,12.8-3.4,21.5-10.1,26.2c-0.3,0.2-0.9-0.2-1.8-1.1c-0.9-0.9-1.9-1.9-3-3
	c-1.1-1.1-2.1-2-3.2-2.8c-1-0.8-1.8-1.1-2.4-0.8c-0.4,0.2-0.4,0.9-0.1,2c0.3,1.2,0.6,2.4,1,3.8c0.4,1.4,0.7,2.6,0.9,3.8
	c0.2,1.2,0.1,1.8-0.3,1.9c-4.4,1-9.4,1.5-15.1,1.5c-5.6,0-10.6-0.7-14.9-2.1c-4.3-1.4-7.9-3.8-10.8-7c-0.1-0.2-0.1-0.5,0.1-1
	c0.1-0.5,0.3-1,0.6-1.5c0.2-0.5,0.4-1,0.6-1.6c0.2-0.5,0.2-0.9,0-1.1c-0.3-0.3-0.7-0.4-1.2-0.5c-0.5,0-1.1-0.1-1.6-0.1
	c-0.6,0-1.1-0.1-1.5-0.2s-0.8-0.4-1-0.8C952.2,421.9,951.2,416.6,951.2,410.3z M985.6,422.7c1.2,0,2.2-0.2,3-0.6
	c0.8-0.4,1.4-1.1,1.8-2.1c0.5-1,0.8-2.4,1.1-4.2c0.2-1.7,0.4-4,0.4-6.7c0.1-4.2-0.3-7.3-1.3-9.3c-0.9-2-2.7-3-5.3-3
	c-2.7,0-4.6,1-5.6,3c-1,2-1.5,5-1.5,8.8c0,5.2,0.4,8.8,1.3,10.8C980.3,421.7,982.4,422.7,985.6,422.7z M985.1,376.8
	c0.9,0,1.8-0.2,2.5-0.6c0.7-0.4,1.4-1.1,1.9-2c0.5-1,0.9-2.4,1.2-4.2c0.3-1.8,0.4-4.2,0.4-7c0-5.3-0.4-9.1-1.1-11.2
	c-0.8-2.1-2.3-3.2-4.5-3.2c-1.8,0-3.3,0.9-4.6,2.7c-1.3,1.8-1.9,5.2-1.9,10.2c0,3.4,0.2,6.1,0.5,8c0.3,2,0.8,3.5,1.3,4.6
	c0.6,1.1,1.2,1.8,2,2.1C983.6,376.6,984.4,376.8,985.1,376.8z"/>
</svg>
